<svg xmlns="http://www.w3.org/2000/svg" viewBox="0 0 856 64" shape-rendering="crispEdges" role="img" aria-label="SecondB sprite sheet">
<title>SecondB sprite sheet</title>
<desc>Frame order: idle, blink, happy, thinking, carrying_shard, chat, sleep, alert, wave_a, wave_b, walk_1, walk_2</desc>
<g transform="translate(0 0)"><rect x="0" y="0" width="64" height="64" fill="none" stroke="#243056" stroke-opacity="0.22"/><rect x="20" y="54" width="24" height="4" fill="#0D1530" opacity="0.38"/><rect x="31" y="10" width="2" height="8" fill="#243056"/><rect x="29" y="6" width="6" height="6" fill="#0D1530"/><rect x="31" y="8" width="2" height="2" fill="#72F2C7"/><rect x="22" y="16" width="20" height="4" fill="#0D1530"/><rect x="18" y="20" width="28" height="4" fill="#0D1530"/><rect x="16" y="24" width="32" height="22" fill="#0D1530"/><rect x="18" y="46" width="28" height="4" fill="#0D1530"/><rect x="22" y="50" width="20" height="4" fill="#0D1530"/><rect x="22" y="20" width="20" height="4" fill="#C4B5FD"/><rect x="20" y="24" width="24" height="4" fill="#A78BFA"/><rect x="18" y="28" width="28" height="16" fill="#A78BFA"/><rect x="20" y="44" width="24" height="4" fill="#5B4BB7"/><rect x="24" y="48" width="16" height="2" fill="#5B4BB7"/><rect x="22" y="27" width="20" height="12" fill="#16213E"/><rect x="24" y="29" width="16" height="8" fill="#0D1530"/><rect x="25" y="31" width="3" height="4" fill="#E8ECF8"/><rect x="36" y="31" width="3" height="4" fill="#E8ECF8"/><rect x="26" y="32" width="1" height="1" fill="#72F2C7"/><rect x="37" y="32" width="1" height="1" fill="#72F2C7"/><rect x="30" y="40" width="4" height="4" fill="#0D1530"/><rect x="31" y="41" width="2" height="2" fill="#72F2C7"/><rect x="12" y="33" width="4" height="10" fill="#0D1530"/><rect x="48" y="33" width="4" height="10" fill="#0D1530"/><rect x="13" y="34" width="2" height="7" fill="#5B4BB7"/><rect x="49" y="34" width="2" height="7" fill="#5B4BB7"/><rect x="24" y="53" width="5" height="4" fill="#0D1530"/><rect x="35" y="53" width="5" height="4" fill="#0D1530"/><rect x="25" y="53" width="3" height="2" fill="#5B4BB7"/><rect x="36" y="53" width="3" height="2" fill="#5B4BB7"/></g><g transform="translate(72 0)"><rect x="0" y="0" width="64" height="64" fill="none" stroke="#243056" stroke-opacity="0.22"/><rect x="20" y="54" width="24" height="4" fill="#0D1530" opacity="0.38"/><rect x="31" y="10" width="2" height="8" fill="#243056"/><rect x="29" y="6" width="6" height="6" fill="#0D1530"/><rect x="31" y="8" width="2" height="2" fill="#72F2C7"/><rect x="22" y="16" width="20" height="4" fill="#0D1530"/><rect x="18" y="20" width="28" height="4" fill="#0D1530"/><rect x="16" y="24" width="32" height="22" fill="#0D1530"/><rect x="18" y="46" width="28" height="4" fill="#0D1530"/><rect x="22" y="50" width="20" height="4" fill="#0D1530"/><rect x="22" y="20" width="20" height="4" fill="#C4B5FD"/><rect x="20" y="24" width="24" height="4" fill="#A78BFA"/><rect x="18" y="28" width="28" height="16" fill="#A78BFA"/><rect x="20" y="44" width="24" height="4" fill="#5B4BB7"/><rect x="24" y="48" width="16" height="2" fill="#5B4BB7"/><rect x="22" y="27" width="20" height="12" fill="#16213E"/><rect x="24" y="29" width="16" height="8" fill="#0D1530"/><rect x="25" y="33" width="4" height="1" fill="#E8ECF8"/><rect x="35" y="33" width="4" height="1" fill="#E8ECF8"/><rect x="30" y="40" width="4" height="4" fill="#0D1530"/><rect x="31" y="41" width="2" height="2" fill="#72F2C7"/><rect x="12" y="33" width="4" height="10" fill="#0D1530"/><rect x="48" y="33" width="4" height="10" fill="#0D1530"/><rect x="13" y="34" width="2" height="7" fill="#5B4BB7"/><rect x="49" y="34" width="2" height="7" fill="#5B4BB7"/><rect x="24" y="53" width="5" height="4" fill="#0D1530"/><rect x="35" y="53" width="5" height="4" fill="#0D1530"/><rect x="25" y="53" width="3" height="2" fill="#5B4BB7"/><rect x="36" y="53" width="3" height="2" fill="#5B4BB7"/></g><g transform="translate(144 0)"><rect x="0" y="0" width="64" height="64" fill="none" stroke="#243056" stroke-opacity="0.22"/><rect x="20" y="54" width="24" height="4" fill="#0D1530" opacity="0.38"/><rect x="31" y="10" width="2" height="8" fill="#243056"/><rect x="29" y="6" width="6" height="6" fill="#0D1530"/><rect x="31" y="8" width="2" height="2" fill="#72F2C7"/><rect x="27" y="4" width="2" height="2" fill="#72F2C7" opacity="0.74"/><rect x="35" y="4" width="2" height="2" fill="#72F2C7" opacity="0.74"/><rect x="22" y="16" width="20" height="4" fill="#0D1530"/><rect x="18" y="20" width="28" height="4" fill="#0D1530"/><rect x="16" y="24" width="32" height="22" fill="#0D1530"/><rect x="18" y="46" width="28" height="4" fill="#0D1530"/><rect x="22" y="50" width="20" height="4" fill="#0D1530"/><rect x="22" y="20" width="20" height="4" fill="#C4B5FD"/><rect x="20" y="24" width="24" height="4" fill="#A78BFA"/><rect x="18" y="28" width="28" height="16" fill="#A78BFA"/><rect x="20" y="44" width="24" height="4" fill="#5B4BB7"/><rect x="24" y="48" width="16" height="2" fill="#5B4BB7"/><rect x="22" y="27" width="20" height="12" fill="#16213E"/><rect x="24" y="29" width="16" height="8" fill="#0D1530"/><rect x="24" y="32" width="2" height="2" fill="#E8ECF8"/><rect x="26" y="30" width="2" height="2" fill="#E8ECF8"/><rect x="28" y="32" width="2" height="2" fill="#E8ECF8"/><rect x="34" y="32" width="2" height="2" fill="#E8ECF8"/><rect x="36" y="30" width="2" height="2" fill="#E8ECF8"/><rect x="38" y="32" width="2" height="2" fill="#E8ECF8"/><rect x="29" y="40" width="6" height="5" fill="#0D1530"/><rect x="31" y="41" width="2" height="2" fill="#FFD166"/><rect x="30" y="43" width="4" height="1" fill="#FFD166" opacity="0.8"/><rect x="29" y="36" width="6" height="1" fill="#E8ECF8"/><rect x="28" y="35" width="1" height="1" fill="#E8ECF8"/><rect x="35" y="35" width="1" height="1" fill="#E8ECF8"/><rect x="12" y="33" width="4" height="10" fill="#0D1530"/><rect x="48" y="33" width="4" height="10" fill="#0D1530"/><rect x="13" y="34" width="2" height="7" fill="#5B4BB7"/><rect x="49" y="34" width="2" height="7" fill="#5B4BB7"/><rect x="24" y="53" width="5" height="4" fill="#0D1530"/><rect x="35" y="53" width="5" height="4" fill="#0D1530"/><rect x="25" y="53" width="3" height="2" fill="#5B4BB7"/><rect x="36" y="53" width="3" height="2" fill="#5B4BB7"/><rect x="9" y="12" width="2" height="2" fill="#FFD166"/><rect x="11" y="10" width="2" height="2" fill="#FFD166"/><rect x="13" y="12" width="2" height="2" fill="#FFD166"/><rect x="11" y="14" width="2" height="2" fill="#FFD166"/><rect x="49" y="47" width="2" height="2" fill="#72F2C7"/><rect x="51" y="45" width="2" height="2" fill="#72F2C7"/><rect x="53" y="47" width="2" height="2" fill="#72F2C7"/><rect x="51" y="49" width="2" height="2" fill="#72F2C7"/></g><g transform="translate(216 0)"><rect x="0" y="0" width="64" height="64" fill="none" stroke="#243056" stroke-opacity="0.22"/><rect x="20" y="54" width="24" height="4" fill="#0D1530" opacity="0.38"/><rect x="31" y="10" width="2" height="8" fill="#243056"/><rect x="29" y="6" width="6" height="6" fill="#0D1530"/><rect x="31" y="8" width="2" height="2" fill="#72F2C7"/><rect x="22" y="16" width="20" height="4" fill="#0D1530"/><rect x="18" y="20" width="28" height="4" fill="#0D1530"/><rect x="16" y="24" width="32" height="22" fill="#0D1530"/><rect x="18" y="46" width="28" height="4" fill="#0D1530"/><rect x="22" y="50" width="20" height="4" fill="#0D1530"/><rect x="22" y="20" width="20" height="4" fill="#C4B5FD"/><rect x="20" y="24" width="24" height="4" fill="#A78BFA"/><rect x="18" y="28" width="28" height="16" fill="#A78BFA"/><rect x="20" y="44" width="24" height="4" fill="#5B4BB7"/><rect x="24" y="48" width="16" height="2" fill="#5B4BB7"/><rect x="22" y="27" width="20" height="12" fill="#16213E"/><rect x="24" y="29" width="16" height="8" fill="#0D1530"/><rect x="25" y="31" width="3" height="4" fill="#E8ECF8"/><rect x="36" y="32" width="4" height="2" fill="#E8ECF8"/><rect x="26" y="32" width="1" height="1" fill="#72F2C7"/><rect x="30" y="40" width="4" height="4" fill="#0D1530"/><rect x="31" y="41" width="2" height="2" fill="#72F2C7"/><rect x="12" y="33" width="4" height="10" fill="#0D1530"/><rect x="48" y="33" width="4" height="10" fill="#0D1530"/><rect x="13" y="34" width="2" height="7" fill="#5B4BB7"/><rect x="49" y="34" width="2" height="7" fill="#5B4BB7"/><rect x="24" y="53" width="5" height="4" fill="#0D1530"/><rect x="35" y="53" width="5" height="4" fill="#0D1530"/><rect x="25" y="53" width="3" height="2" fill="#5B4BB7"/><rect x="36" y="53" width="3" height="2" fill="#5B4BB7"/><rect x="48" y="11" width="4" height="4" fill="#16213E"/><rect x="49" y="12" width="2" height="2" fill="#72F2C7"/><rect x="53" y="7" width="6" height="6" fill="#16213E"/><rect x="55" y="9" width="2" height="2" fill="#72F2C7"/><rect x="58" y="2" width="4" height="4" fill="#16213E"/><rect x="59" y="3" width="2" height="2" fill="#E8ECF8"/></g><g transform="translate(288 0)"><rect x="0" y="0" width="64" height="64" fill="none" stroke="#243056" stroke-opacity="0.22"/><rect x="20" y="54" width="24" height="4" fill="#0D1530" opacity="0.38"/><rect x="31" y="10" width="2" height="8" fill="#243056"/><rect x="29" y="6" width="6" height="6" fill="#0D1530"/><rect x="31" y="8" width="2" height="2" fill="#72F2C7"/><rect x="27" y="4" width="2" height="2" fill="#72F2C7" opacity="0.74"/><rect x="35" y="4" width="2" height="2" fill="#72F2C7" opacity="0.74"/><rect x="22" y="16" width="20" height="4" fill="#0D1530"/><rect x="18" y="20" width="28" height="4" fill="#0D1530"/><rect x="16" y="24" width="32" height="22" fill="#0D1530"/><rect x="18" y="46" width="28" height="4" fill="#0D1530"/><rect x="22" y="50" width="20" height="4" fill="#0D1530"/><rect x="22" y="20" width="20" height="4" fill="#C4B5FD"/><rect x="20" y="24" width="24" height="4" fill="#A78BFA"/><rect x="18" y="28" width="28" height="16" fill="#A78BFA"/><rect x="20" y="44" width="24" height="4" fill="#5B4BB7"/><rect x="24" y="48" width="16" height="2" fill="#5B4BB7"/><rect x="22" y="27" width="20" height="12" fill="#16213E"/><rect x="24" y="29" width="16" height="8" fill="#0D1530"/><rect x="25" y="31" width="3" height="4" fill="#E8ECF8"/><rect x="36" y="31" width="3" height="4" fill="#E8ECF8"/><rect x="26" y="32" width="1" height="1" fill="#72F2C7"/><rect x="37" y="32" width="1" height="1" fill="#72F2C7"/><rect x="29" y="40" width="6" height="5" fill="#0D1530"/><rect x="31" y="41" width="2" height="2" fill="#FFD166"/><rect x="30" y="43" width="4" height="1" fill="#FFD166" opacity="0.8"/><rect x="9" y="36" width="11" height="4" fill="#0D1530"/><rect x="44" y="36" width="11" height="4" fill="#0D1530"/><rect x="10" y="37" width="8" height="2" fill="#C4B5FD"/><rect x="46" y="37" width="8" height="2" fill="#C4B5FD"/><rect x="24" y="53" width="5" height="4" fill="#0D1530"/><rect x="35" y="53" width="5" height="4" fill="#0D1530"/><rect x="25" y="53" width="3" height="2" fill="#5B4BB7"/><rect x="36" y="53" width="3" height="2" fill="#5B4BB7"/><rect x="27" y="34" width="10" height="10" fill="#0D1530"/><rect x="29" y="32" width="6" height="4" fill="#FFD166"/><rect x="27" y="36" width="10" height="4" fill="#FFD166"/><rect x="29" y="40" width="6" height="4" fill="#FFD166"/><rect x="31" y="34" width="2" height="2" fill="#E8ECF8" opacity="0.85"/><rect x="35" y="38" width="2" height="2" fill="#72F2C7" opacity="0.9"/></g><g transform="translate(360 0)"><rect x="0" y="0" width="64" height="64" fill="none" stroke="#243056" stroke-opacity="0.22"/><rect x="20" y="54" width="24" height="4" fill="#0D1530" opacity="0.38"/><rect x="31" y="10" width="2" height="8" fill="#243056"/><rect x="29" y="6" width="6" height="6" fill="#0D1530"/><rect x="31" y="8" width="2" height="2" fill="#72F2C7"/><rect x="27" y="4" width="2" height="2" fill="#72F2C7" opacity="0.74"/><rect x="35" y="4" width="2" height="2" fill="#72F2C7" opacity="0.74"/><rect x="22" y="16" width="20" height="4" fill="#0D1530"/><rect x="18" y="20" width="28" height="4" fill="#0D1530"/><rect x="16" y="24" width="32" height="22" fill="#0D1530"/><rect x="18" y="46" width="28" height="4" fill="#0D1530"/><rect x="22" y="50" width="20" height="4" fill="#0D1530"/><rect x="22" y="20" width="20" height="4" fill="#C4B5FD"/><rect x="20" y="24" width="24" height="4" fill="#A78BFA"/><rect x="18" y="28" width="28" height="16" fill="#A78BFA"/><rect x="20" y="44" width="24" height="4" fill="#5B4BB7"/><rect x="24" y="48" width="16" height="2" fill="#5B4BB7"/><rect x="22" y="27" width="20" height="12" fill="#16213E"/><rect x="24" y="29" width="16" height="8" fill="#0D1530"/><rect x="25" y="31" width="4" height="4" fill="#72F2C7"/><rect x="35" y="31" width="4" height="4" fill="#72F2C7"/><rect x="30" y="40" width="4" height="4" fill="#0D1530"/><rect x="31" y="41" width="2" height="2" fill="#72F2C7"/><rect x="12" y="33" width="4" height="10" fill="#0D1530"/><rect x="48" y="31" width="4" height="8" fill="#0D1530"/><rect x="13" y="34" width="2" height="7" fill="#5B4BB7"/><rect x="49" y="32" width="2" height="5" fill="#C4B5FD"/><rect x="24" y="53" width="5" height="4" fill="#0D1530"/><rect x="35" y="53" width="5" height="4" fill="#0D1530"/><rect x="25" y="53" width="3" height="2" fill="#5B4BB7"/><rect x="36" y="53" width="3" height="2" fill="#5B4BB7"/><rect x="43" y="10" width="16" height="12" fill="#16213E"/><rect x="45" y="12" width="12" height="7" fill="#0D1530"/><rect x="45" y="20" width="4" height="4" fill="#16213E"/><rect x="47" y="14" width="4" height="2" fill="#72F2C7"/><rect x="53" y="14" width="2" height="2" fill="#FFD166"/><rect x="47" y="17" width="8" height="1" fill="#8D98B8"/></g><g transform="translate(432 0)"><rect x="0" y="0" width="64" height="64" fill="none" stroke="#243056" stroke-opacity="0.22"/><rect x="20" y="54" width="24" height="4" fill="#0D1530" opacity="0.38"/><rect x="31" y="12" width="2" height="6" fill="#243056"/><rect x="30" y="8" width="4" height="4" fill="#243056"/><rect x="22" y="16" width="20" height="4" fill="#0D1530"/><rect x="18" y="20" width="28" height="4" fill="#0D1530"/><rect x="16" y="24" width="32" height="22" fill="#0D1530"/><rect x="18" y="46" width="28" height="4" fill="#0D1530"/><rect x="22" y="50" width="20" height="4" fill="#0D1530"/><rect x="22" y="20" width="20" height="4" fill="#C4B5FD"/><rect x="20" y="24" width="24" height="4" fill="#A78BFA"/><rect x="18" y="28" width="28" height="16" fill="#A78BFA"/><rect x="20" y="44" width="24" height="4" fill="#5B4BB7"/><rect x="24" y="48" width="16" height="2" fill="#5B4BB7"/><rect x="22" y="27" width="20" height="12" fill="#16213E"/><rect x="24" y="29" width="16" height="8" fill="#0D1530"/><rect x="25" y="33" width="4" height="1" fill="#E8ECF8"/><rect x="35" y="33" width="4" height="1" fill="#E8ECF8"/><rect x="30" y="40" width="4" height="4" fill="#0D1530"/><rect x="31" y="41" width="2" height="2" fill="#72F2C7"/><rect x="13" y="37" width="3" height="7" fill="#0D1530"/><rect x="48" y="37" width="3" height="7" fill="#0D1530"/><rect x="24" y="53" width="5" height="4" fill="#0D1530"/><rect x="35" y="53" width="5" height="4" fill="#0D1530"/><rect x="25" y="53" width="3" height="2" fill="#5B4BB7"/><rect x="36" y="53" width="3" height="2" fill="#5B4BB7"/><rect x="47" y="14" width="3" height="3" fill="#243056"/><rect x="52" y="9" width="4" height="4" fill="#243056"/><rect x="57" y="4" width="5" height="5" fill="#243056"/><rect x="58" y="5" width="3" height="1" fill="#E8ECF8" opacity="0.65"/><rect x="53" y="10" width="2" height="1" fill="#E8ECF8" opacity="0.55"/></g><g transform="translate(504 0)"><rect x="0" y="0" width="64" height="64" fill="none" stroke="#243056" stroke-opacity="0.22"/><rect x="20" y="54" width="24" height="4" fill="#0D1530" opacity="0.38"/><rect x="31" y="10" width="2" height="8" fill="#243056"/><rect x="29" y="6" width="6" height="6" fill="#0D1530"/><rect x="31" y="8" width="2" height="2" fill="#FFD166"/><rect x="30" y="1" width="4" height="4" fill="#FFD166"/><rect x="31" y="0" width="2" height="1" fill="#E8ECF8" opacity="0.9"/><rect x="22" y="16" width="20" height="4" fill="#0D1530"/><rect x="18" y="20" width="28" height="4" fill="#0D1530"/><rect x="16" y="24" width="32" height="22" fill="#0D1530"/><rect x="18" y="46" width="28" height="4" fill="#0D1530"/><rect x="22" y="50" width="20" height="4" fill="#0D1530"/><rect x="22" y="20" width="20" height="4" fill="#C4B5FD"/><rect x="20" y="24" width="24" height="4" fill="#A78BFA"/><rect x="18" y="28" width="28" height="16" fill="#A78BFA"/><rect x="20" y="44" width="24" height="4" fill="#5B4BB7"/><rect x="24" y="48" width="16" height="2" fill="#5B4BB7"/><rect x="22" y="27" width="20" height="12" fill="#16213E"/><rect x="24" y="29" width="16" height="8" fill="#0D1530"/><rect x="25" y="31" width="3" height="4" fill="#FFD166"/><rect x="36" y="31" width="3" height="4" fill="#FFD166"/><rect x="29" y="40" width="6" height="5" fill="#0D1530"/><rect x="31" y="41" width="2" height="2" fill="#FFD166"/><rect x="30" y="43" width="4" height="1" fill="#FFD166" opacity="0.8"/><rect x="10" y="33" width="6" height="4" fill="#0D1530"/><rect x="48" y="33" width="6" height="4" fill="#0D1530"/><rect x="11" y="34" width="4" height="2" fill="#FF7A90"/><rect x="49" y="34" width="4" height="2" fill="#FF7A90"/><rect x="24" y="53" width="5" height="4" fill="#0D1530"/><rect x="35" y="53" width="5" height="4" fill="#0D1530"/><rect x="25" y="53" width="3" height="2" fill="#5B4BB7"/><rect x="36" y="53" width="3" height="2" fill="#5B4BB7"/><rect x="53" y="16" width="4" height="12" fill="#0D1530"/><rect x="54" y="17" width="2" height="7" fill="#FF7A90"/><rect x="54" y="26" width="2" height="2" fill="#FF7A90"/><rect x="7" y="18" width="4" height="8" fill="#0D1530"/><rect x="8" y="19" width="2" height="5" fill="#FF7A90"/></g><g transform="translate(576 0)"><rect x="0" y="0" width="64" height="64" fill="none" stroke="#243056" stroke-opacity="0.22"/><rect x="20" y="54" width="24" height="4" fill="#0D1530" opacity="0.38"/><rect x="31" y="10" width="2" height="8" fill="#243056"/><rect x="29" y="6" width="6" height="6" fill="#0D1530"/><rect x="31" y="8" width="2" height="2" fill="#72F2C7"/><rect x="27" y="4" width="2" height="2" fill="#72F2C7" opacity="0.74"/><rect x="35" y="4" width="2" height="2" fill="#72F2C7" opacity="0.74"/><rect x="22" y="16" width="20" height="4" fill="#0D1530"/><rect x="18" y="20" width="28" height="4" fill="#0D1530"/><rect x="16" y="24" width="32" height="22" fill="#0D1530"/><rect x="18" y="46" width="28" height="4" fill="#0D1530"/><rect x="22" y="50" width="20" height="4" fill="#0D1530"/><rect x="22" y="20" width="20" height="4" fill="#C4B5FD"/><rect x="20" y="24" width="24" height="4" fill="#A78BFA"/><rect x="18" y="28" width="28" height="16" fill="#A78BFA"/><rect x="20" y="44" width="24" height="4" fill="#5B4BB7"/><rect x="24" y="48" width="16" height="2" fill="#5B4BB7"/><rect x="22" y="27" width="20" height="12" fill="#16213E"/><rect x="24" y="29" width="16" height="8" fill="#0D1530"/><rect x="24" y="32" width="2" height="2" fill="#E8ECF8"/><rect x="26" y="30" width="2" height="2" fill="#E8ECF8"/><rect x="28" y="32" width="2" height="2" fill="#E8ECF8"/><rect x="34" y="32" width="2" height="2" fill="#E8ECF8"/><rect x="36" y="30" width="2" height="2" fill="#E8ECF8"/><rect x="38" y="32" width="2" height="2" fill="#E8ECF8"/><rect x="30" y="40" width="4" height="4" fill="#0D1530"/><rect x="31" y="41" width="2" height="2" fill="#72F2C7"/><rect x="12" y="34" width="4" height="9" fill="#0D1530"/><rect x="48" y="25" width="4" height="15" fill="#0D1530"/><rect x="13" y="35" width="2" height="6" fill="#5B4BB7"/><rect x="49" y="26" width="2" height="12" fill="#C4B5FD"/><rect x="47" y="23" width="6" height="3" fill="#FFD166"/><rect x="24" y="53" width="5" height="4" fill="#0D1530"/><rect x="35" y="53" width="5" height="4" fill="#0D1530"/><rect x="25" y="53" width="3" height="2" fill="#5B4BB7"/><rect x="36" y="53" width="3" height="2" fill="#5B4BB7"/></g><g transform="translate(648 0)"><rect x="0" y="0" width="64" height="64" fill="none" stroke="#243056" stroke-opacity="0.22"/><rect x="20" y="54" width="24" height="4" fill="#0D1530" opacity="0.38"/><rect x="31" y="10" width="2" height="8" fill="#243056"/><rect x="29" y="6" width="6" height="6" fill="#0D1530"/><rect x="31" y="8" width="2" height="2" fill="#72F2C7"/><rect x="27" y="4" width="2" height="2" fill="#72F2C7" opacity="0.74"/><rect x="35" y="4" width="2" height="2" fill="#72F2C7" opacity="0.74"/><rect x="22" y="16" width="20" height="4" fill="#0D1530"/><rect x="18" y="20" width="28" height="4" fill="#0D1530"/><rect x="16" y="24" width="32" height="22" fill="#0D1530"/><rect x="18" y="46" width="28" height="4" fill="#0D1530"/><rect x="22" y="50" width="20" height="4" fill="#0D1530"/><rect x="22" y="20" width="20" height="4" fill="#C4B5FD"/><rect x="20" y="24" width="24" height="4" fill="#A78BFA"/><rect x="18" y="28" width="28" height="16" fill="#A78BFA"/><rect x="20" y="44" width="24" height="4" fill="#5B4BB7"/><rect x="24" y="48" width="16" height="2" fill="#5B4BB7"/><rect x="22" y="27" width="20" height="12" fill="#16213E"/><rect x="24" y="29" width="16" height="8" fill="#0D1530"/><rect x="24" y="32" width="2" height="2" fill="#E8ECF8"/><rect x="26" y="30" width="2" height="2" fill="#E8ECF8"/><rect x="28" y="32" width="2" height="2" fill="#E8ECF8"/><rect x="34" y="32" width="2" height="2" fill="#E8ECF8"/><rect x="36" y="30" width="2" height="2" fill="#E8ECF8"/><rect x="38" y="32" width="2" height="2" fill="#E8ECF8"/><rect x="30" y="40" width="4" height="4" fill="#0D1530"/><rect x="31" y="41" width="2" height="2" fill="#72F2C7"/><rect x="12" y="34" width="4" height="9" fill="#0D1530"/><rect x="50" y="22" width="4" height="17" fill="#0D1530"/><rect x="13" y="35" width="2" height="6" fill="#5B4BB7"/><rect x="51" y="23" width="2" height="14" fill="#C4B5FD"/><rect x="53" y="20" width="3" height="6" fill="#FFD166"/><rect x="24" y="53" width="5" height="4" fill="#0D1530"/><rect x="35" y="53" width="5" height="4" fill="#0D1530"/><rect x="25" y="53" width="3" height="2" fill="#5B4BB7"/><rect x="36" y="53" width="3" height="2" fill="#5B4BB7"/></g><g transform="translate(720 0)"><rect x="0" y="0" width="64" height="64" fill="none" stroke="#243056" stroke-opacity="0.22"/><rect x="19" y="54" width="24" height="4" fill="#0D1530" opacity="0.38"/><rect x="30" y="10" width="2" height="8" fill="#243056"/><rect x="28" y="6" width="6" height="6" fill="#0D1530"/><rect x="30" y="8" width="2" height="2" fill="#72F2C7"/><rect x="21" y="16" width="20" height="4" fill="#0D1530"/><rect x="17" y="20" width="28" height="4" fill="#0D1530"/><rect x="15" y="24" width="32" height="22" fill="#0D1530"/><rect x="17" y="46" width="28" height="4" fill="#0D1530"/><rect x="21" y="50" width="20" height="4" fill="#0D1530"/><rect x="21" y="20" width="20" height="4" fill="#C4B5FD"/><rect x="19" y="24" width="24" height="4" fill="#A78BFA"/><rect x="17" y="28" width="28" height="16" fill="#A78BFA"/><rect x="19" y="44" width="24" height="4" fill="#5B4BB7"/><rect x="23" y="48" width="16" height="2" fill="#5B4BB7"/><rect x="21" y="27" width="20" height="12" fill="#16213E"/><rect x="23" y="29" width="16" height="8" fill="#0D1530"/><rect x="24" y="31" width="3" height="4" fill="#E8ECF8"/><rect x="35" y="31" width="3" height="4" fill="#E8ECF8"/><rect x="25" y="32" width="1" height="1" fill="#72F2C7"/><rect x="36" y="32" width="1" height="1" fill="#72F2C7"/><rect x="29" y="40" width="4" height="4" fill="#0D1530"/><rect x="30" y="41" width="2" height="2" fill="#72F2C7"/><rect x="11" y="33" width="4" height="10" fill="#0D1530"/><rect x="47" y="33" width="4" height="10" fill="#0D1530"/><rect x="12" y="34" width="2" height="7" fill="#5B4BB7"/><rect x="48" y="34" width="2" height="7" fill="#5B4BB7"/><rect x="21" y="53" width="6" height="4" fill="#0D1530"/><rect x="35" y="52" width="5" height="5" fill="#0D1530"/><rect x="22" y="53" width="3" height="2" fill="#5B4BB7"/><rect x="36" y="52" width="3" height="3" fill="#5B4BB7"/></g><g transform="translate(792 0)"><rect x="0" y="0" width="64" height="64" fill="none" stroke="#243056" stroke-opacity="0.22"/><rect x="21" y="54" width="24" height="4" fill="#0D1530" opacity="0.38"/><rect x="32" y="10" width="2" height="8" fill="#243056"/><rect x="30" y="6" width="6" height="6" fill="#0D1530"/><rect x="32" y="8" width="2" height="2" fill="#72F2C7"/><rect x="23" y="16" width="20" height="4" fill="#0D1530"/><rect x="19" y="20" width="28" height="4" fill="#0D1530"/><rect x="17" y="24" width="32" height="22" fill="#0D1530"/><rect x="19" y="46" width="28" height="4" fill="#0D1530"/><rect x="23" y="50" width="20" height="4" fill="#0D1530"/><rect x="23" y="20" width="20" height="4" fill="#C4B5FD"/><rect x="21" y="24" width="24" height="4" fill="#A78BFA"/><rect x="19" y="28" width="28" height="16" fill="#A78BFA"/><rect x="21" y="44" width="24" height="4" fill="#5B4BB7"/><rect x="25" y="48" width="16" height="2" fill="#5B4BB7"/><rect x="23" y="27" width="20" height="12" fill="#16213E"/><rect x="25" y="29" width="16" height="8" fill="#0D1530"/><rect x="26" y="31" width="3" height="4" fill="#E8ECF8"/><rect x="37" y="31" width="3" height="4" fill="#E8ECF8"/><rect x="27" y="32" width="1" height="1" fill="#72F2C7"/><rect x="38" y="32" width="1" height="1" fill="#72F2C7"/><rect x="31" y="40" width="4" height="4" fill="#0D1530"/><rect x="32" y="41" width="2" height="2" fill="#72F2C7"/><rect x="13" y="33" width="4" height="10" fill="#0D1530"/><rect x="49" y="33" width="4" height="10" fill="#0D1530"/><rect x="14" y="34" width="2" height="7" fill="#5B4BB7"/><rect x="50" y="34" width="2" height="7" fill="#5B4BB7"/><rect x="25" y="52" width="5" height="5" fill="#0D1530"/><rect x="38" y="53" width="6" height="4" fill="#0D1530"/><rect x="26" y="52" width="3" height="3" fill="#5B4BB7"/><rect x="39" y="53" width="3" height="2" fill="#5B4BB7"/></g>
</svg>
