<svg xmlns="http://www.w3.org/2000/svg" width="64" height="64" viewBox="0 0 64 64" role="img" aria-labelledby="title desc" shape-rendering="crispEdges">
  <title>세컨비 - AI 안내자</title>
  <desc>2ndB Cosmic Pixel Graph Village character asset: 세컨비, AI 안내자.</desc>
  <rect x="18" y="54" width="28" height="4" fill="#020513" opacity="0.55"/>
  <rect x="30" y="7" width="4" height="6" fill="#243056"/>
  <rect x="29" y="4" width="6" height="4" fill="#A78BFA"/>
  <rect x="10" y="27" width="6" height="12" fill="#243056"/>
  <rect x="48" y="27" width="6" height="12" fill="#243056"/>
  <rect x="12" y="30" width="2" height="6" fill="#A78BFA"/>
  <rect x="50" y="30" width="2" height="6" fill="#A78BFA"/>
  <rect x="16" y="14" width="32" height="30" fill="#16213E" rx="6" stroke="#243056" stroke-width="2"/>
  <rect x="20" y="18" width="24" height="16" fill="#0D1530" rx="3"/>
  <rect x="22" y="20" width="20" height="12" fill="#0B1028" rx="2" stroke="#A78BFA" stroke-width="1"/>
  <rect x="25" y="24" width="4" height="4" fill="#E8ECF8"/>
  <rect x="35" y="24" width="4" height="4" fill="#E8ECF8"/>
  <rect x="23" y="38" width="18" height="12" fill="#16213E" rx="3" stroke="#243056" stroke-width="2"/>
  <rect x="29" y="41" width="6" height="6" fill="#A78BFA"/>
  <rect x="31" y="43" width="2" height="2" fill="#E8ECF8" opacity="0.75"/>
  <rect x="12" y="40" width="7" height="5" fill="#243056"/>
  <rect x="45" y="40" width="7" height="5" fill="#243056"/>
  <rect x="22" y="50" width="7" height="5" fill="#243056"/>
  <rect x="35" y="50" width="7" height="5" fill="#243056"/>
  <rect x="21" y="12" width="5" height="2" fill="#72F2C7" opacity="0.9"/>
  <rect x="38" y="12" width="5" height="2" fill="#72F2C7" opacity="0.9"/>
  <rect x="48" y="17" width="3" height="3" fill="#FFD166"/>
  <rect x="14" y="16" width="2" height="2" fill="#A78BFA" opacity="0.8"/>
  <rect x="48" y="48" width="2" height="2" fill="#72F2C7" opacity="0.85"/>
  <rect x="9" y="51" width="2" height="2" fill="#FFD166" opacity="0.9"/>
</svg>
