<svg xmlns="http://www.w3.org/2000/svg" width="390" height="844" viewBox="0 0 390 844" fill="none" shape-rendering="crispEdges">
  <defs>
    <filter id="softGlow" x="-60%" y="-60%" width="220%" height="220%"><feGaussianBlur stdDeviation="6" result="b"/><feMerge><feMergeNode in="b"/><feMergeNode in="SourceGraphic"/></feMerge></filter>
    <filter id="tinyGlow" x="-80%" y="-80%" width="260%" height="260%"><feGaussianBlur stdDeviation="2" result="b"/><feMerge><feMergeNode in="b"/><feMergeNode in="SourceGraphic"/></feMerge></filter>
    <radialGradient id="screenBg" cx="50%" cy="28%" r="86%"><stop offset="0" stop-color="#72F2C7" stop-opacity="0.10"/><stop offset="34%" stop-color="#A78BFA" stop-opacity="0.10"/><stop offset="74%" stop-color="#0D1530" stop-opacity="0.92"/><stop offset="100%" stop-color="#070A18"/></radialGradient>
    <radialGradient id="mintGlow" cx="50%" cy="50%" r="58%"><stop offset="0" stop-color="#72F2C7" stop-opacity="0.68"/><stop offset="100%" stop-color="#72F2C7" stop-opacity="0"/></radialGradient>
    <radialGradient id="violetGlow" cx="50%" cy="50%" r="58%"><stop offset="0" stop-color="#A78BFA" stop-opacity="0.64"/><stop offset="100%" stop-color="#A78BFA" stop-opacity="0"/></radialGradient>
    <radialGradient id="lampGlow" cx="50%" cy="50%" r="58%"><stop offset="0" stop-color="#FFD166" stop-opacity="0.72"/><stop offset="100%" stop-color="#FFD166" stop-opacity="0"/></radialGradient>
    <linearGradient id="panel" x1="0" y1="0" x2="1" y2="1"><stop offset="0" stop-color="#0D1530" stop-opacity="0.96"/><stop offset="1" stop-color="#16213E" stop-opacity="0.88"/></linearGradient>
    <linearGradient id="shardPanel" x1="0" y1="0" x2="1" y2="1"><stop offset="0" stop-color="#16213E" stop-opacity="0.94"/><stop offset="0.68" stop-color="#0D1530" stop-opacity="0.96"/><stop offset="1" stop-color="#72F2C7" stop-opacity="0.15"/></linearGradient>
    
  </defs><rect width="390" height="844" fill="url(#screenBg)"/><rect x="20" y="122" width="2" height="2" fill="#8D98B8" opacity="0.50"/><rect x="342" y="114" width="2" height="2" fill="#72F2C7" opacity="0.50"/><rect x="66" y="225" width="2" height="2" fill="#A78BFA" opacity="0.50"/><rect x="312" y="322" width="2" height="2" fill="#FFD166" opacity="0.50"/><rect x="52" y="516" width="2" height="2" fill="#72F2C7" opacity="0.50"/><rect x="352" y="635" width="2" height="2" fill="#8D98B8" opacity="0.50"/><rect x="96" y="760" width="2" height="2" fill="#FFD166" opacity="0.50"/><rect x="210" y="206" width="2" height="2" fill="#8D98B8" opacity="0.50"/><rect x="172" y="660" width="2" height="2" fill="#4CC9F0" opacity="0.50"/><rect x="32" y="407" width="2" height="2" fill="#FFD166" opacity="0.50"/><rect x="342" y="466" width="2" height="2" fill="#72F2C7" opacity="0.50"/><rect x="280" y="735" width="2" height="2" fill="#A78BFA" opacity="0.50"/>
  <rect x="16" y="50" width="44" height="44" rx="14" fill="#0D1530" stroke="#8D98B8" stroke-opacity="0.28"/>
  <path d="M42 62L32 72L42 82" stroke="#E8ECF8" stroke-width="3"/>
  <text x="78" y="72" text-anchor="start" font-family="Pretendard, system-ui, -apple-system, Segoe UI, sans-serif" font-size="22" font-weight="600" fill="#E8ECF8" shape-rendering="geometricPrecision">위키 페이지</text>
  <text x="78" y="96" text-anchor="start" font-family="Pretendard, system-ui, -apple-system, Segoe UI, sans-serif" font-size="11" font-weight="500" fill="#8D98B8" shape-rendering="geometricPrecision">조각이 모인 한 페이지</text>
  <rect x="336" y="54" width="38" height="38" rx="13" fill="#0D1530" stroke="#72F2C7" stroke-opacity="0.32"/>
  <path d="M356 62L360 72L370 76L360 80L356 90L352 80L342 76L352 72Z" fill="#72F2C7" opacity="0.88"/>
  <g transform="translate(20 126)"><rect x="0" y="0" width="350" height="164" rx="28" fill="url(#shardPanel)" stroke="#72F2C7" stroke-opacity="0.30"/><g transform="translate(54 72) scale(1.1)" opacity="1">
      <path d="M0 -13L12 -2L6 13L-10 9L-8 -6Z" fill="#16213E" stroke="#72F2C7" stroke-width="2"/>
      <rect x="-2" y="-2" width="4" height="4" fill="#72F2C7" filter="url(#tinyGlow)"/>
    </g><text x="106" y="50" text-anchor="start" font-family="Pretendard, system-ui, -apple-system, Segoe UI, sans-serif" font-size="18" font-weight="600" fill="#E8ECF8" shape-rendering="geometricPrecision">픽셀 그래프 마을</text><text x="106" y="78" text-anchor="start" font-family="Pretendard, system-ui, -apple-system, Segoe UI, sans-serif" font-size="11" font-weight="500" fill="#8D98B8" shape-rendering="geometricPrecision">저장된 UI 시안과 세계관 조각이 모인 페이지예요.</text><rect x="106" y="104" width="80" height="26" rx="12" fill="#72F2C7" fill-opacity="0.14"/><text x="146" y="121" text-anchor="middle" font-family="Pretendard, system-ui, -apple-system, Segoe UI, sans-serif" font-size="9" font-weight="600" fill="#E8ECF8" shape-rendering="geometricPrecision">14 조각</text><rect x="196" y="104" width="74" height="26" rx="12" fill="#FFD166" fill-opacity="0.14"/><text x="233" y="121" text-anchor="middle" font-family="Pretendard, system-ui, -apple-system, Segoe UI, sans-serif" font-size="9" font-weight="600" fill="#E8ECF8" shape-rendering="geometricPrecision">3 연결</text></g>
  <g transform="translate(20 314)"><rect x="0" y="0" width="350" height="160" rx="24" fill="#0D1530" fill-opacity="0.82" stroke="#8D98B8" stroke-opacity="0.20"/><text x="24" y="34" text-anchor="start" font-family="Pretendard, system-ui, -apple-system, Segoe UI, sans-serif" font-size="15" font-weight="600" fill="#E8ECF8" shape-rendering="geometricPrecision">요약</text><rect x="24" y="56" width="296" height="8" rx="4" fill="#8D98B8" opacity="0.52"/><rect x="24" y="76" width="244" height="8" rx="4" fill="#8D98B8" opacity="0.36"/><rect x="24" y="96" width="278" height="8" rx="4" fill="#8D98B8" opacity="0.28"/><rect x="24" y="126" width="106" height="26" rx="12" fill="#72F2C7" fill-opacity="0.12" stroke="#72F2C7" stroke-opacity="0.22"/><text x="77" y="143" text-anchor="middle" font-family="Pretendard, system-ui, -apple-system, Segoe UI, sans-serif" font-size="9" font-weight="600" fill="#E8ECF8" shape-rendering="geometricPrecision">편집하기</text></g>
  <g transform="translate(20 496)"><rect x="0" y="0" width="350" height="134" rx="24" fill="#0D1530" fill-opacity="0.86" stroke="#4CC9F0" stroke-opacity="0.22"/><text x="24" y="34" text-anchor="start" font-family="Pretendard, system-ui, -apple-system, Segoe UI, sans-serif" font-size="15" font-weight="600" fill="#4CC9F0" shape-rendering="geometricPrecision">연결된 길</text><path d="M62 82C112 40 166 116 214 84C250 54 288 76 322 52" stroke="#72F2C7" stroke-opacity="0.54" stroke-width="3" fill="none"/><g transform="translate(62 82)">
      <circle r="18" fill="#16213E" stroke="#72F2C7" stroke-opacity="0.62" stroke-width="2"/>
      <rect x="-4" y="-4" width="8" height="8" fill="#72F2C7" filter="url(#tinyGlow)"/>
    </g><g transform="translate(160 104)">
      <circle r="18" fill="#16213E" stroke="#A78BFA" stroke-opacity="0.62" stroke-width="2"/>
      <rect x="-4" y="-4" width="8" height="8" fill="#A78BFA" filter="url(#tinyGlow)"/>
    </g><g transform="translate(240 74)">
      <circle r="18" fill="#16213E" stroke="#FFD166" stroke-opacity="0.62" stroke-width="2"/>
      <rect x="-4" y="-4" width="8" height="8" fill="#FFD166" filter="url(#tinyGlow)"/>
    </g><g transform="translate(322 52)">
      <circle r="18" fill="#16213E" stroke="#4CC9F0" stroke-opacity="0.62" stroke-width="2"/>
      <rect x="-4" y="-4" width="8" height="8" fill="#4CC9F0" filter="url(#tinyGlow)"/>
    </g></g>
  <g transform="translate(20 652)"><rect x="0" y="0" width="350" height="72" rx="24" fill="#A78BFA" fill-opacity="0.14" stroke="#A78BFA" stroke-opacity="0.38"/><g transform="translate(48 36) scale(0.36)">
      <circle cx="0" cy="2" r="42" fill="url(#violetGlow)" opacity="0.52"/>
      <rect x="-25" y="-19" width="50" height="48" rx="14" fill="#16213E" stroke="#A78BFA" stroke-opacity="0.62"/>
      <rect x="-12" y="-30" width="24" height="12" rx="5" fill="#A78BFA" fill-opacity="0.18" stroke="#A78BFA" stroke-opacity="0.42"/>
      <rect x="-12" y="-1" width="6" height="6" fill="#E8ECF8"/><rect x="6" y="-1" width="6" height="6" fill="#E8ECF8"/>
      <rect x="-7" y="17" width="14" height="4" fill="#72F2C7"/>
      <rect x="-3" y="-13" width="6" height="6" fill="#72F2C7" filter="url(#tinyGlow)"/>
    </g><text x="112" y="40" text-anchor="start" font-family="Pretendard, system-ui, -apple-system, Segoe UI, sans-serif" font-size="15" font-weight="600" fill="#E8ECF8" shape-rendering="geometricPrecision">이 페이지로 세컨비에게 묻기</text><path d="M304 27L314 36L304 45" stroke="#72F2C7" stroke-width="3"/></g>
</svg>