<svg xmlns="http://www.w3.org/2000/svg" width="390" height="844" viewBox="0 0 390 844" fill="none" shape-rendering="crispEdges">
  <defs>
    <filter id="softGlow" x="-60%" y="-60%" width="220%" height="220%"><feGaussianBlur stdDeviation="6" result="b"/><feMerge><feMergeNode in="b"/><feMergeNode in="SourceGraphic"/></feMerge></filter>
    <filter id="tinyGlow" x="-80%" y="-80%" width="260%" height="260%"><feGaussianBlur stdDeviation="2" result="b"/><feMerge><feMergeNode in="b"/><feMergeNode in="SourceGraphic"/></feMerge></filter>
    <radialGradient id="screenBg" cx="50%" cy="28%" r="86%"><stop offset="0" stop-color="#72F2C7" stop-opacity="0.10"/><stop offset="34%" stop-color="#A78BFA" stop-opacity="0.10"/><stop offset="74%" stop-color="#0D1530" stop-opacity="0.92"/><stop offset="100%" stop-color="#070A18"/></radialGradient>
    <radialGradient id="mintGlow" cx="50%" cy="50%" r="58%"><stop offset="0" stop-color="#72F2C7" stop-opacity="0.68"/><stop offset="100%" stop-color="#72F2C7" stop-opacity="0"/></radialGradient>
    <radialGradient id="violetGlow" cx="50%" cy="50%" r="58%"><stop offset="0" stop-color="#A78BFA" stop-opacity="0.64"/><stop offset="100%" stop-color="#A78BFA" stop-opacity="0"/></radialGradient>
    <radialGradient id="lampGlow" cx="50%" cy="50%" r="58%"><stop offset="0" stop-color="#FFD166" stop-opacity="0.72"/><stop offset="100%" stop-color="#FFD166" stop-opacity="0"/></radialGradient>
    <linearGradient id="panel" x1="0" y1="0" x2="1" y2="1"><stop offset="0" stop-color="#0D1530" stop-opacity="0.96"/><stop offset="1" stop-color="#16213E" stop-opacity="0.88"/></linearGradient>
    <linearGradient id="shardPanel" x1="0" y1="0" x2="1" y2="1"><stop offset="0" stop-color="#16213E" stop-opacity="0.94"/><stop offset="0.68" stop-color="#0D1530" stop-opacity="0.96"/><stop offset="1" stop-color="#72F2C7" stop-opacity="0.15"/></linearGradient>
    
  </defs><rect width="390" height="844" fill="url(#screenBg)"/><rect x="20" y="122" width="2" height="2" fill="#8D98B8" opacity="0.50"/><rect x="342" y="114" width="2" height="2" fill="#72F2C7" opacity="0.50"/><rect x="66" y="225" width="2" height="2" fill="#A78BFA" opacity="0.50"/><rect x="312" y="322" width="2" height="2" fill="#FFD166" opacity="0.50"/><rect x="52" y="516" width="2" height="2" fill="#72F2C7" opacity="0.50"/><rect x="352" y="635" width="2" height="2" fill="#8D98B8" opacity="0.50"/><rect x="96" y="760" width="2" height="2" fill="#FFD166" opacity="0.50"/><rect x="210" y="206" width="2" height="2" fill="#8D98B8" opacity="0.50"/><rect x="172" y="660" width="2" height="2" fill="#4CC9F0" opacity="0.50"/><rect x="32" y="407" width="2" height="2" fill="#FFD166" opacity="0.50"/><rect x="342" y="466" width="2" height="2" fill="#72F2C7" opacity="0.50"/><rect x="280" y="735" width="2" height="2" fill="#A78BFA" opacity="0.50"/>
  <rect x="16" y="50" width="44" height="44" rx="14" fill="#0D1530" stroke="#8D98B8" stroke-opacity="0.28"/>
  <path d="M42 62L32 72L42 82" stroke="#E8ECF8" stroke-width="3"/>
  <text x="78" y="72" text-anchor="start" font-family="Pretendard, system-ui, -apple-system, Segoe UI, sans-serif" font-size="22" font-weight="600" fill="#E8ECF8" shape-rendering="geometricPrecision">검색</text>
  <text x="78" y="96" text-anchor="start" font-family="Pretendard, system-ui, -apple-system, Segoe UI, sans-serif" font-size="11" font-weight="500" fill="#8D98B8" shape-rendering="geometricPrecision">조각과 위키를 빠르게 찾아요</text>
  <rect x="336" y="54" width="38" height="38" rx="13" fill="#0D1530" stroke="#72F2C7" stroke-opacity="0.32"/>
  <path d="M356 62L360 72L370 76L360 80L356 90L352 80L342 76L352 72Z" fill="#72F2C7" opacity="0.88"/>
  <g transform="translate(20 126)"><rect x="0" y="0" width="350" height="58" rx="22" fill="#0D1530" fill-opacity="0.92" stroke="#72F2C7" stroke-opacity="0.24"/><circle cx="31" cy="29" r="10" stroke="#72F2C7" stroke-width="3"/><path d="M39 37L48 46" stroke="#72F2C7" stroke-width="3"/><text x="64" y="36" text-anchor="start" font-family="Pretendard, system-ui, -apple-system, Segoe UI, sans-serif" font-size="14" font-weight="500" fill="#E8ECF8" shape-rendering="geometricPrecision">그래프 UI</text></g>
  <g transform="translate(20 204)"><rect x="0" y="0" width="350" height="118" rx="24" fill="#0D1530" fill-opacity="0.86" stroke="#8D98B8" stroke-opacity="0.20"/><g transform="translate(42 46) scale(0.82)" opacity="1">
      <path d="M0 -13L12 -2L6 13L-10 9L-8 -6Z" fill="#16213E" stroke="#72F2C7" stroke-width="2"/>
      <rect x="-2" y="-2" width="4" height="4" fill="#72F2C7" filter="url(#tinyGlow)"/>
    </g><text x="78" y="35" text-anchor="start" font-family="Pretendard, system-ui, -apple-system, Segoe UI, sans-serif" font-size="13" font-weight="600" fill="#72F2C7" shape-rendering="geometricPrecision">검색 결과</text><text x="78" y="60" text-anchor="start" font-family="Pretendard, system-ui, -apple-system, Segoe UI, sans-serif" font-size="15" font-weight="600" fill="#E8ECF8" shape-rendering="geometricPrecision">모바일 그래프 UI Pack</text><text x="78" y="84" text-anchor="start" font-family="Pretendard, system-ui, -apple-system, Segoe UI, sans-serif" font-size="11" font-weight="500" fill="#8D98B8" shape-rendering="geometricPrecision">wiki page · graph · 6 연결</text></g>
  <g transform="translate(20 346)"><rect x="0" y="0" width="350" height="118" rx="24" fill="#0D1530" fill-opacity="0.86" stroke="#8D98B8" stroke-opacity="0.20"/><g transform="translate(42 46) scale(0.82)" opacity="1">
      <path d="M0 -13L12 -2L6 13L-10 9L-8 -6Z" fill="#16213E" stroke="#A78BFA" stroke-width="2"/>
      <rect x="-2" y="-2" width="4" height="4" fill="#A78BFA" filter="url(#tinyGlow)"/>
    </g><text x="78" y="35" text-anchor="start" font-family="Pretendard, system-ui, -apple-system, Segoe UI, sans-serif" font-size="13" font-weight="600" fill="#A78BFA" shape-rendering="geometricPrecision">검색 결과</text><text x="78" y="60" text-anchor="start" font-family="Pretendard, system-ui, -apple-system, Segoe UI, sans-serif" font-size="15" font-weight="600" fill="#E8ECF8" shape-rendering="geometricPrecision">세컨비 대화 UI</text><text x="78" y="84" text-anchor="start" font-family="Pretendard, system-ui, -apple-system, Segoe UI, sans-serif" font-size="11" font-weight="500" fill="#8D98B8" shape-rendering="geometricPrecision">record · chat · 3 연결</text></g>
  <g transform="translate(20 496)"><rect x="0" y="0" width="350" height="130" rx="24" fill="#0D1530" fill-opacity="0.84" stroke="#8D98B8" stroke-opacity="0.18"/><text x="24" y="34" text-anchor="start" font-family="Pretendard, system-ui, -apple-system, Segoe UI, sans-serif" font-size="14" font-weight="600" fill="#E8ECF8" shape-rendering="geometricPrecision">보기 방식</text><rect x="24" y="54" width="72" height="32" rx="14" fill="#72F2C7" fill-opacity="0.16" stroke="#72F2C7" stroke-opacity="0.28"/><text x="60" y="75" text-anchor="middle" font-family="Pretendard, system-ui, -apple-system, Segoe UI, sans-serif" font-size="11" font-weight="600" fill="#E8ECF8" shape-rendering="geometricPrecision">전체</text><rect x="106" y="54" width="82" height="32" rx="14" fill="#16213E"/><text x="147" y="75" text-anchor="middle" font-family="Pretendard, system-ui, -apple-system, Segoe UI, sans-serif" font-size="11" font-weight="600" fill="#8D98B8" shape-rendering="geometricPrecision">위키</text><rect x="198" y="54" width="86" height="32" rx="14" fill="#16213E"/><text x="241" y="75" text-anchor="middle" font-family="Pretendard, system-ui, -apple-system, Segoe UI, sans-serif" font-size="11" font-weight="600" fill="#8D98B8" shape-rendering="geometricPrecision">기록</text></g>
</svg>