<svg xmlns="http://www.w3.org/2000/svg" width="390" height="844" viewBox="0 0 390 844" fill="none" shape-rendering="crispEdges">
  <defs>
    <filter id="softGlow" x="-60%" y="-60%" width="220%" height="220%"><feGaussianBlur stdDeviation="6" result="b"/><feMerge><feMergeNode in="b"/><feMergeNode in="SourceGraphic"/></feMerge></filter>
    <filter id="tinyGlow" x="-80%" y="-80%" width="260%" height="260%"><feGaussianBlur stdDeviation="2" result="b"/><feMerge><feMergeNode in="b"/><feMergeNode in="SourceGraphic"/></feMerge></filter>
    <radialGradient id="screenBg" cx="50%" cy="28%" r="86%"><stop offset="0" stop-color="#72F2C7" stop-opacity="0.10"/><stop offset="34%" stop-color="#A78BFA" stop-opacity="0.10"/><stop offset="74%" stop-color="#0D1530" stop-opacity="0.92"/><stop offset="100%" stop-color="#070A18"/></radialGradient>
    <radialGradient id="mintGlow" cx="50%" cy="50%" r="58%"><stop offset="0" stop-color="#72F2C7" stop-opacity="0.68"/><stop offset="100%" stop-color="#72F2C7" stop-opacity="0"/></radialGradient>
    <radialGradient id="violetGlow" cx="50%" cy="50%" r="58%"><stop offset="0" stop-color="#A78BFA" stop-opacity="0.64"/><stop offset="100%" stop-color="#A78BFA" stop-opacity="0"/></radialGradient>
    <radialGradient id="lampGlow" cx="50%" cy="50%" r="58%"><stop offset="0" stop-color="#FFD166" stop-opacity="0.72"/><stop offset="100%" stop-color="#FFD166" stop-opacity="0"/></radialGradient>
    <linearGradient id="panel" x1="0" y1="0" x2="1" y2="1"><stop offset="0" stop-color="#0D1530" stop-opacity="0.96"/><stop offset="1" stop-color="#16213E" stop-opacity="0.88"/></linearGradient>
    <linearGradient id="shardPanel" x1="0" y1="0" x2="1" y2="1"><stop offset="0" stop-color="#16213E" stop-opacity="0.94"/><stop offset="0.68" stop-color="#0D1530" stop-opacity="0.96"/><stop offset="1" stop-color="#72F2C7" stop-opacity="0.15"/></linearGradient>
    
  </defs><rect width="390" height="844" fill="url(#screenBg)"/><rect x="20" y="122" width="2" height="2" fill="#8D98B8" opacity="0.50"/><rect x="342" y="114" width="2" height="2" fill="#72F2C7" opacity="0.50"/><rect x="66" y="225" width="2" height="2" fill="#A78BFA" opacity="0.50"/><rect x="312" y="322" width="2" height="2" fill="#FFD166" opacity="0.50"/><rect x="52" y="516" width="2" height="2" fill="#72F2C7" opacity="0.50"/><rect x="352" y="635" width="2" height="2" fill="#8D98B8" opacity="0.50"/><rect x="96" y="760" width="2" height="2" fill="#FFD166" opacity="0.50"/><rect x="210" y="206" width="2" height="2" fill="#8D98B8" opacity="0.50"/><rect x="172" y="660" width="2" height="2" fill="#4CC9F0" opacity="0.50"/><rect x="32" y="407" width="2" height="2" fill="#FFD166" opacity="0.50"/><rect x="342" y="466" width="2" height="2" fill="#72F2C7" opacity="0.50"/><rect x="280" y="735" width="2" height="2" fill="#A78BFA" opacity="0.50"/>
  <rect x="16" y="50" width="44" height="44" rx="14" fill="#0D1530" stroke="#8D98B8" stroke-opacity="0.28"/>
  <path d="M42 62L32 72L42 82" stroke="#E8ECF8" stroke-width="3"/>
  <text x="78" y="72" text-anchor="start" font-family="Pretendard, system-ui, -apple-system, Segoe UI, sans-serif" font-size="22" font-weight="600" fill="#E8ECF8" shape-rendering="geometricPrecision">조각 기록</text>
  <text x="78" y="96" text-anchor="start" font-family="Pretendard, system-ui, -apple-system, Segoe UI, sans-serif" font-size="11" font-weight="500" fill="#8D98B8" shape-rendering="geometricPrecision">저장된 자료를 시간순으로 살펴봐요</text>
  <rect x="336" y="54" width="38" height="38" rx="13" fill="#0D1530" stroke="#FFD166" stroke-opacity="0.32"/>
  <path d="M356 62L360 72L370 76L360 80L356 90L352 80L342 76L352 72Z" fill="#FFD166" opacity="0.88"/>
  <g transform="translate(20 126)"><rect x="0" y="0" width="350" height="48" rx="18" fill="#0D1530" fill-opacity="0.90" stroke="#8D98B8" stroke-opacity="0.18"/><text x="24" y="30" text-anchor="start" font-family="Pretendard, system-ui, -apple-system, Segoe UI, sans-serif" font-size="12" font-weight="600" fill="#E8ECF8" shape-rendering="geometricPrecision">전체</text><rect x="82" y="10" width="74" height="28" rx="13" fill="#72F2C7" fill-opacity="0.14" stroke="#72F2C7" stroke-opacity="0.24"/><text x="119" y="28" text-anchor="middle" font-family="Pretendard, system-ui, -apple-system, Segoe UI, sans-serif" font-size="10" font-weight="600" fill="#E8ECF8" shape-rendering="geometricPrecision">journal</text><rect x="166" y="10" width="76" height="28" rx="13" fill="#16213E"/><text x="204" y="28" text-anchor="middle" font-family="Pretendard, system-ui, -apple-system, Segoe UI, sans-serif" font-size="10" font-weight="600" fill="#8D98B8" shape-rendering="geometricPrecision">capture</text></g>
  <g transform="translate(20 190)"><rect x="0" y="0" width="350" height="86" rx="20" fill="#0D1530" fill-opacity="0.86" stroke="#8D98B8" stroke-opacity="0.18"/><g transform="translate(38 43) scale(0.72)" opacity="1">
      <path d="M0 -13L12 -2L6 13L-10 9L-8 -6Z" fill="#16213E" stroke="#FFD166" stroke-width="2"/>
      <rect x="-2" y="-2" width="4" height="4" fill="#FFD166" filter="url(#tinyGlow)"/>
    </g><text x="70" y="30" text-anchor="start" font-family="Pretendard, system-ui, -apple-system, Segoe UI, sans-serif" font-size="12" font-weight="600" fill="#FFD166" shape-rendering="geometricPrecision">조각 기록</text><text x="70" y="54" text-anchor="start" font-family="Pretendard, system-ui, -apple-system, Segoe UI, sans-serif" font-size="12" font-weight="600" fill="#E8ECF8" shape-rendering="geometricPrecision">모바일 그래프에서 연결이 잘 보이는 구조</text><text x="70" y="74" text-anchor="start" font-family="Pretendard, system-ui, -apple-system, Segoe UI, sans-serif" font-size="9" font-weight="500" fill="#8D98B8" shape-rendering="geometricPrecision">record · 최근</text><path d="M314 31L324 43L314 55" stroke="#72F2C7" stroke-width="3"/></g><g transform="translate(20 296)"><rect x="0" y="0" width="350" height="86" rx="20" fill="#0D1530" fill-opacity="0.86" stroke="#8D98B8" stroke-opacity="0.18"/><g transform="translate(38 43) scale(0.72)" opacity="1">
      <path d="M0 -13L12 -2L6 13L-10 9L-8 -6Z" fill="#16213E" stroke="#72F2C7" stroke-width="2"/>
      <rect x="-2" y="-2" width="4" height="4" fill="#72F2C7" filter="url(#tinyGlow)"/>
    </g><text x="70" y="30" text-anchor="start" font-family="Pretendard, system-ui, -apple-system, Segoe UI, sans-serif" font-size="12" font-weight="600" fill="#72F2C7" shape-rendering="geometricPrecision">조각 기록</text><text x="70" y="54" text-anchor="start" font-family="Pretendard, system-ui, -apple-system, Segoe UI, sans-serif" font-size="12" font-weight="600" fill="#E8ECF8" shape-rendering="geometricPrecision">링크를 조각으로 저장하는 흐름</text><text x="70" y="74" text-anchor="start" font-family="Pretendard, system-ui, -apple-system, Segoe UI, sans-serif" font-size="9" font-weight="500" fill="#8D98B8" shape-rendering="geometricPrecision">record · 최근</text><path d="M314 31L324 43L314 55" stroke="#72F2C7" stroke-width="3"/></g><g transform="translate(20 402)"><rect x="0" y="0" width="350" height="86" rx="20" fill="#0D1530" fill-opacity="0.86" stroke="#8D98B8" stroke-opacity="0.18"/><g transform="translate(38 43) scale(0.72)" opacity="1">
      <path d="M0 -13L12 -2L6 13L-10 9L-8 -6Z" fill="#16213E" stroke="#A78BFA" stroke-width="2"/>
      <rect x="-2" y="-2" width="4" height="4" fill="#A78BFA" filter="url(#tinyGlow)"/>
    </g><text x="70" y="30" text-anchor="start" font-family="Pretendard, system-ui, -apple-system, Segoe UI, sans-serif" font-size="12" font-weight="600" fill="#A78BFA" shape-rendering="geometricPrecision">조각 기록</text><text x="70" y="54" text-anchor="start" font-family="Pretendard, system-ui, -apple-system, Segoe UI, sans-serif" font-size="12" font-weight="600" fill="#E8ECF8" shape-rendering="geometricPrecision">공상 작업실에서 만든 장면 카드</text><text x="70" y="74" text-anchor="start" font-family="Pretendard, system-ui, -apple-system, Segoe UI, sans-serif" font-size="9" font-weight="500" fill="#8D98B8" shape-rendering="geometricPrecision">record · 최근</text><path d="M314 31L324 43L314 55" stroke="#72F2C7" stroke-width="3"/></g><g transform="translate(20 508)"><rect x="0" y="0" width="350" height="86" rx="20" fill="#0D1530" fill-opacity="0.86" stroke="#8D98B8" stroke-opacity="0.18"/><g transform="translate(38 43) scale(0.72)" opacity="1">
      <path d="M0 -13L12 -2L6 13L-10 9L-8 -6Z" fill="#16213E" stroke="#4CC9F0" stroke-width="2"/>
      <rect x="-2" y="-2" width="4" height="4" fill="#4CC9F0" filter="url(#tinyGlow)"/>
    </g><text x="70" y="30" text-anchor="start" font-family="Pretendard, system-ui, -apple-system, Segoe UI, sans-serif" font-size="12" font-weight="600" fill="#4CC9F0" shape-rendering="geometricPrecision">조각 기록</text><text x="70" y="54" text-anchor="start" font-family="Pretendard, system-ui, -apple-system, Segoe UI, sans-serif" font-size="12" font-weight="600" fill="#E8ECF8" shape-rendering="geometricPrecision">세컨비 답변에 참고한 조각 표시</text><text x="70" y="74" text-anchor="start" font-family="Pretendard, system-ui, -apple-system, Segoe UI, sans-serif" font-size="9" font-weight="500" fill="#8D98B8" shape-rendering="geometricPrecision">record · 최근</text><path d="M314 31L324 43L314 55" stroke="#72F2C7" stroke-width="3"/></g>
  <g transform="translate(20 640)"><rect x="0" y="0" width="350" height="116" rx="26" fill="url(#panel)" stroke="#4CC9F0" stroke-opacity="0.22"/><text x="24" y="36" text-anchor="start" font-family="Pretendard, system-ui, -apple-system, Segoe UI, sans-serif" font-size="15" font-weight="600" fill="#4CC9F0" shape-rendering="geometricPrecision">오늘의 흐름</text><path d="M56 74H296" stroke="#243056" stroke-width="3"/><circle cx="56" cy="74" r="8" fill="#FFD166"/><circle cx="134" cy="74" r="8" fill="#72F2C7"/><circle cx="212" cy="74" r="8" fill="#A78BFA"/><circle cx="296" cy="74" r="8" fill="#4CC9F0"/></g>
</svg>