<svg xmlns="http://www.w3.org/2000/svg" width="390" height="844" viewBox="0 0 390 844" fill="none">
<defs>
  <filter id="softGlow" x="-60%" y="-60%" width="220%" height="220%">
    <feGaussianBlur stdDeviation="5" result="blur"/>
    <feColorMatrix in="blur" type="matrix" values="0 0 0 0 0.45 0 0 0 0 0.95 0 0 0 0 0.80 0 0 0 0.7 0" result="glow"/>
    <feMerge><feMergeNode in="glow"/><feMergeNode in="SourceGraphic"/></feMerge>
  </filter>
  <filter id="violetGlow" x="-60%" y="-60%" width="220%" height="220%">
    <feGaussianBlur stdDeviation="6" result="blur"/>
    <feColorMatrix in="blur" type="matrix" values="0 0 0 0 0.65 0 0 0 0 0.55 0 0 0 0 1 0 0 0 0.65 0" result="glow"/>
    <feMerge><feMergeNode in="glow"/><feMergeNode in="SourceGraphic"/></feMerge>
  </filter>
  <filter id="lampGlow" x="-60%" y="-60%" width="220%" height="220%">
    <feGaussianBlur stdDeviation="4" result="blur"/>
    <feColorMatrix in="blur" type="matrix" values="0 0 0 0 1 0 0 0 0 0.82 0 0 0 0 0.35 0 0 0 0.65 0" result="glow"/>
    <feMerge><feMergeNode in="glow"/><feMergeNode in="SourceGraphic"/></feMerge>
  </filter>
  <pattern id="noiseGrid" width="12" height="12" patternUnits="userSpaceOnUse">
    <path d="M 12 0 L 0 0 0 12" fill="none" stroke="rgba(141,152,184,0.08)" stroke-width="1"/>
  </pattern>
  <style>
    .t { font-family: 'Noto Sans CJK KR','Pretendard','SF Pro Display',system-ui,sans-serif; }
    .mono { font-family: 'NanumGothicCoding','SF Mono',monospace; }
    .pixel { shape-rendering: crispEdges; }
  </style>
</defs>


<rect width="390" height="844" fill="#070A18"/>
<rect width="390" height="844" fill="url(#noiseGrid)" opacity="0.48"/>
<circle cx="195" cy="160" r="150" fill="#A78BFA" opacity="0.14" filter="url(#violetGlow)"/>
<circle cx="72" cy="594" r="126" fill="#72F2C7" opacity="0.06"/>


<rect x="16" y="20" width="358" height="70" rx="22" fill="rgba(13,21,48,0.88)" stroke="rgba(167,139,250,0.30)"/>
<circle cx="52" cy="55" r="20" fill="#16213E" stroke="#A78BFA"/>
<rect class="pixel" x="44" y="50" width="5" height="5" fill="#E8ECF8"/><rect class="pixel" x="56" y="50" width="5" height="5" fill="#E8ECF8"/>
<text x="84" y="49" class="t" fill="#E8ECF8" font-size="16" font-weight="800">만드는 나에서 질문</text>
<text x="84" y="69" class="t" fill="#8D98B8" font-size="12">선택한 노드 맥락을 가지고 시작해요</text>
<rect x="333" y="46" width="16" height="16" rx="4" fill="rgba(114,242,199,0.18)"/>
<circle cx="341" cy="54" r="3" fill="#72F2C7"/>

<g transform="translate(28 124)">
  <rect x="0" y="0" width="334" height="88" rx="22" fill="rgba(167,139,250,0.12)" stroke="rgba(167,139,250,0.35)"/>
  <rect class="pixel" x="22" y="32" width="16" height="16" fill="#A78BFA"/>
  <text x="54" y="37" class="t" fill="#E8ECF8" font-size="14" font-weight="800">만드는 나</text>
  <text x="54" y="62" class="t" fill="#8D98B8" font-size="12">최근 연결된 조각 23개 · 공상 작업실과 가까움</text>
</g>
<g transform="translate(20 248)">
  <rect x="0" y="0" width="330" height="136" rx="24" fill="rgba(13,21,48,0.94)" stroke="rgba(167,139,250,0.38)"/>
  <text x="20" y="34" class="t" fill="#E8ECF8" font-size="14" font-weight="800">세컨비</text>
  <text x="20" y="66" class="t" fill="#E8ECF8" font-size="14">이 노드에서 시작할까요?</text>
  <text x="20" y="91" class="t" fill="#8D98B8" font-size="12">관련 조각을 먼저 참고해서 답할게요.</text>
</g>
<g transform="translate(20 420)">
  <rect x="0" y="0" width="164" height="42" rx="16" fill="rgba(114,242,199,0.13)" stroke="rgba(114,242,199,0.35)"/>
  <text x="82" y="27" class="t" fill="#72F2C7" font-size="12" font-weight="800" text-anchor="middle">다음 한 걸음</text>
  <rect x="178" y="0" width="172" height="42" rx="16" fill="rgba(22,33,62,0.92)" stroke="rgba(167,139,250,0.25)"/>
  <text x="264" y="27" class="t" fill="#E8ECF8" font-size="12" font-weight="700" text-anchor="middle">왜 이어졌어?</text>
</g>

<rect x="16" y="758" width="358" height="68" rx="24" fill="rgba(13,21,48,0.96)" stroke="rgba(141,152,184,0.25)"/>
<rect x="30" y="772" width="246" height="40" rx="16" fill="rgba(7,10,24,0.55)"/>
<text x="48" y="797" class="t" fill="#8D98B8" font-size="13">세컨비에게 물어보기...</text>
<rect x="288" y="772" width="72" height="40" rx="16" fill="rgba(114,242,199,0.14)" stroke="rgba(114,242,199,0.38)"/>
<text x="309" y="797" class="t" fill="#72F2C7" font-size="13" font-weight="800">전송</text>


</svg>