<svg xmlns="http://www.w3.org/2000/svg" width="390" height="844" viewBox="0 0 390 844" fill="none">
<defs>
  <filter id="softGlow" x="-60%" y="-60%" width="220%" height="220%">
    <feGaussianBlur stdDeviation="5" result="blur"/>
    <feColorMatrix in="blur" type="matrix" values="0 0 0 0 0.45 0 0 0 0 0.95 0 0 0 0 0.80 0 0 0 0.7 0" result="glow"/>
    <feMerge><feMergeNode in="glow"/><feMergeNode in="SourceGraphic"/></feMerge>
  </filter>
  <filter id="violetGlow" x="-60%" y="-60%" width="220%" height="220%">
    <feGaussianBlur stdDeviation="6" result="blur"/>
    <feColorMatrix in="blur" type="matrix" values="0 0 0 0 0.65 0 0 0 0 0.55 0 0 0 0 1 0 0 0 0.65 0" result="glow"/>
    <feMerge><feMergeNode in="glow"/><feMergeNode in="SourceGraphic"/></feMerge>
  </filter>
  <filter id="lampGlow" x="-60%" y="-60%" width="220%" height="220%">
    <feGaussianBlur stdDeviation="4" result="blur"/>
    <feColorMatrix in="blur" type="matrix" values="0 0 0 0 1 0 0 0 0 0.82 0 0 0 0 0.35 0 0 0 0.65 0" result="glow"/>
    <feMerge><feMergeNode in="glow"/><feMergeNode in="SourceGraphic"/></feMerge>
  </filter>
  <pattern id="noiseGrid" width="12" height="12" patternUnits="userSpaceOnUse">
    <path d="M 12 0 L 0 0 0 12" fill="none" stroke="rgba(141,152,184,0.08)" stroke-width="1"/>
  </pattern>
  <style>
    .t { font-family: 'Noto Sans CJK KR','Pretendard','SF Pro Display',system-ui,sans-serif; }
    .mono { font-family: 'NanumGothicCoding','SF Mono',monospace; }
    .pixel { shape-rendering: crispEdges; }
  </style>
</defs>


<rect width="390" height="844" fill="#070A18"/>
<rect width="390" height="844" fill="url(#noiseGrid)" opacity="0.48"/>
<circle cx="195" cy="160" r="150" fill="#A78BFA" opacity="0.14" filter="url(#violetGlow)"/>
<circle cx="72" cy="594" r="126" fill="#72F2C7" opacity="0.06"/>


<rect x="16" y="20" width="358" height="70" rx="22" fill="rgba(13,21,48,0.88)" stroke="rgba(167,139,250,0.30)"/>
<circle cx="52" cy="55" r="20" fill="#16213E" stroke="#A78BFA"/>
<rect class="pixel" x="44" y="50" width="5" height="5" fill="#E8ECF8"/><rect class="pixel" x="56" y="50" width="5" height="5" fill="#E8ECF8"/>
<text x="84" y="49" class="t" fill="#E8ECF8" font-size="16" font-weight="800">세컨비</text>
<text x="84" y="69" class="t" fill="#8D98B8" font-size="12">답변의 근거를 열어봤어요</text>
<rect x="333" y="46" width="16" height="16" rx="4" fill="rgba(114,242,199,0.18)"/>
<circle cx="341" cy="54" r="3" fill="#72F2C7"/>

<g opacity="0.55" transform="translate(20 118)">
  <rect x="0" y="0" width="330" height="134" rx="24" fill="rgba(13,21,48,0.94)" stroke="rgba(167,139,250,0.38)"/>
  <text x="20" y="40" class="t" fill="#E8ECF8" font-size="14">이 답변은 아래 조각들을</text>
  <text x="20" y="66" class="t" fill="#E8ECF8" font-size="14">참고해서 만들어졌어요.</text>
</g>
<rect x="0" y="314" width="390" height="530" rx="30" fill="rgba(13,21,48,0.98)" stroke="rgba(141,152,184,0.25)"/>
<rect x="166" y="328" width="58" height="5" rx="3" fill="rgba(141,152,184,0.45)"/>
<text x="24" y="372" class="t" fill="#E8ECF8" font-size="18" font-weight="900">참고한 조각들</text>
<text x="24" y="397" class="t" fill="#8D98B8" font-size="12">답변에 영향을 준 기록과 나의 모습이에요.</text>
<g transform="translate(24 424)">
  <rect x="0" y="0" width="342" height="82" rx="18" fill="rgba(22,33,62,0.86)" stroke="rgba(114,242,199,0.30)"/>
  <rect class="pixel" x="18" y="28" width="12" height="12" fill="#72F2C7"/>
  <text x="44" y="31" class="t" fill="#E8ECF8" font-size="13" font-weight="800">오늘의 조각</text>
  <text x="44" y="53" class="t" fill="#8D98B8" font-size="11">journal · 2026.05.29</text>
  <rect x="0" y="98" width="342" height="82" rx="18" fill="rgba(22,33,62,0.86)" stroke="rgba(167,139,250,0.30)"/>
  <rect class="pixel" x="18" y="126" width="12" height="12" fill="#A78BFA"/>
  <text x="44" y="129" class="t" fill="#E8ECF8" font-size="13" font-weight="800">만드는 나</text>
  <text x="44" y="151" class="t" fill="#8D98B8" font-size="11">persona · 최근 자주 보인 모습</text>
  <rect x="0" y="196" width="342" height="82" rx="18" fill="rgba(22,33,62,0.86)" stroke="rgba(255,209,102,0.28)"/>
  <rect class="pixel" x="18" y="224" width="12" height="12" fill="#FFD166"/>
  <text x="44" y="227" class="t" fill="#E8ECF8" font-size="13" font-weight="800">공상 작업실 초안</text>
  <text x="44" y="249" class="t" fill="#8D98B8" font-size="11">imagine · 저장된 아이디어</text>
</g>

</svg>