<svg xmlns="http://www.w3.org/2000/svg" width="432" height="64" viewBox="0 0 432 64" role="img" aria-labelledby="title desc" shape-rendering="crispEdges">
  <title>2ndB character sprite strip</title>
  <desc>Six SVG-friendly pixel robot characters.</desc>
  <g id="secondb" transform="translate(0,0)">

  
  
  <rect x="18" y="54" width="28" height="4" fill="#020513" opacity="0.55"/>
  <rect x="30" y="7" width="4" height="6" fill="#243056"/>
  <rect x="29" y="4" width="6" height="4" fill="#A78BFA"/>
  <rect x="10" y="27" width="6" height="12" fill="#243056"/>
  <rect x="48" y="27" width="6" height="12" fill="#243056"/>
  <rect x="12" y="30" width="2" height="6" fill="#A78BFA"/>
  <rect x="50" y="30" width="2" height="6" fill="#A78BFA"/>
  <rect x="16" y="14" width="32" height="30" fill="#16213E" rx="6" stroke="#243056" stroke-width="2"/>
  <rect x="20" y="18" width="24" height="16" fill="#0D1530" rx="3"/>
  <rect x="22" y="20" width="20" height="12" fill="#0B1028" rx="2" stroke="#A78BFA" stroke-width="1"/>
  <rect x="25" y="24" width="4" height="4" fill="#E8ECF8"/>
  <rect x="35" y="24" width="4" height="4" fill="#E8ECF8"/>
  <rect x="23" y="38" width="18" height="12" fill="#16213E" rx="3" stroke="#243056" stroke-width="2"/>
  <rect x="29" y="41" width="6" height="6" fill="#A78BFA"/>
  <rect x="31" y="43" width="2" height="2" fill="#E8ECF8" opacity="0.75"/>
  <rect x="12" y="40" width="7" height="5" fill="#243056"/>
  <rect x="45" y="40" width="7" height="5" fill="#243056"/>
  <rect x="22" y="50" width="7" height="5" fill="#243056"/>
  <rect x="35" y="50" width="7" height="5" fill="#243056"/>
  <rect x="21" y="12" width="5" height="2" fill="#72F2C7" opacity="0.9"/>
  <rect x="38" y="12" width="5" height="2" fill="#72F2C7" opacity="0.9"/>
  <rect x="48" y="17" width="3" height="3" fill="#FFD166"/>
  <rect x="14" y="16" width="2" height="2" fill="#A78BFA" opacity="0.8"/>
  <rect x="48" y="48" width="2" height="2" fill="#72F2C7" opacity="0.85"/>
  <rect x="9" y="51" width="2" height="2" fill="#FFD166" opacity="0.9"/>

</g>
<g id="momo" transform="translate(72,0)">

  
  
  <rect x="18" y="54" width="28" height="4" fill="#020513" opacity="0.55"/>
  <rect x="20" y="10" width="24" height="5" fill="#FFD166"/>
  <rect x="24" y="6" width="16" height="5" fill="#C58D35"/>
  <rect x="8" y="30" width="8" height="12" fill="#FFD166" opacity="0.9"/>
  <rect x="16" y="14" width="32" height="30" fill="#16213E" rx="6" stroke="#243056" stroke-width="2"/>
  <rect x="20" y="18" width="24" height="16" fill="#0D1530" rx="3"/>
  <rect x="22" y="20" width="20" height="12" fill="#0B1028" rx="2" stroke="#FFD166" stroke-width="1"/>
  <rect x="25" y="24" width="4" height="4" fill="#E8ECF8"/>
  <rect x="35" y="24" width="4" height="4" fill="#E8ECF8"/>
  <rect x="23" y="38" width="18" height="12" fill="#16213E" rx="3" stroke="#243056" stroke-width="2"/>
  <rect x="29" y="41" width="6" height="6" fill="#FFD166"/>
  <rect x="31" y="43" width="2" height="2" fill="#E8ECF8" opacity="0.75"/>
  <rect x="12" y="40" width="7" height="5" fill="#243056"/>
  <rect x="45" y="40" width="7" height="5" fill="#243056"/>
  <rect x="22" y="50" width="7" height="5" fill="#243056"/>
  <rect x="35" y="50" width="7" height="5" fill="#243056"/>
  <rect x="42" y="38" width="12" height="10" fill="#FFFBF2" stroke="#FFD166" stroke-width="1"/>
  <rect x="44" y="41" width="8" height="2" fill="#243056"/>
  <rect x="44" y="45" width="5" height="1" fill="#243056"/>
  <rect x="14" y="16" width="2" height="2" fill="#FFD166" opacity="0.8"/>
  <rect x="48" y="48" width="2" height="2" fill="#C58D35" opacity="0.85"/>
  <rect x="9" y="51" width="2" height="2" fill="#FFD166" opacity="0.9"/>

</g>
<g id="lulu" transform="translate(144,0)">

  
  
  <rect x="18" y="54" width="28" height="4" fill="#020513" opacity="0.55"/>
  <rect x="30" y="7" width="4" height="6" fill="#243056"/>
  <rect x="29" y="4" width="6" height="4" fill="#72F2C7"/>
  <rect x="8" y="25" width="8" height="8" fill="#243056"/>
  <rect x="48" y="25" width="8" height="8" fill="#243056"/>
  <line x1="8" y1="29" x2="3" y2="24" stroke="#72F2C7" stroke-width="2" stroke-linecap="square"/>
  <line x1="56" y1="29" x2="61" y2="24" stroke="#72F2C7" stroke-width="2" stroke-linecap="square"/>
  <rect x="16" y="14" width="32" height="30" fill="#16213E" rx="6" stroke="#243056" stroke-width="2"/>
  <rect x="20" y="18" width="24" height="16" fill="#0D1530" rx="3"/>
  <rect x="22" y="20" width="20" height="12" fill="#0B1028" rx="2" stroke="#72F2C7" stroke-width="1"/>
  <rect x="25" y="24" width="4" height="4" fill="#E8ECF8"/>
  <rect x="35" y="24" width="4" height="4" fill="#E8ECF8"/>
  <rect x="23" y="38" width="18" height="12" fill="#16213E" rx="3" stroke="#243056" stroke-width="2"/>
  <rect x="29" y="41" width="6" height="6" fill="#72F2C7"/>
  <rect x="31" y="43" width="2" height="2" fill="#E8ECF8" opacity="0.75"/>
  <rect x="12" y="40" width="7" height="5" fill="#243056"/>
  <rect x="45" y="40" width="7" height="5" fill="#243056"/>
  <rect x="22" y="50" width="7" height="5" fill="#243056"/>
  <rect x="35" y="50" width="7" height="5" fill="#243056"/>
  <line x1="52" y1="42" x2="58" y2="48" stroke="#72F2C7" stroke-width="2" stroke-linecap="square"/>
  <rect x="57" y="47" width="4" height="2" fill="#72F2C7"/>
  <rect x="57" y="50" width="4" height="2" fill="#72F2C7"/>
  <rect x="14" y="16" width="2" height="2" fill="#72F2C7" opacity="0.8"/>
  <rect x="48" y="48" width="2" height="2" fill="#4CC9F0" opacity="0.85"/>
  <rect x="9" y="51" width="2" height="2" fill="#FFD166" opacity="0.9"/>

</g>
<g id="archi" transform="translate(216,0)">

  
  
  <rect x="18" y="54" width="28" height="4" fill="#020513" opacity="0.55"/>
  <rect x="20" y="10" width="24" height="4" fill="#4CC9F0"/>
  <rect x="16" y="12" width="32" height="4" fill="#243056"/>
  <rect x="10" y="27" width="6" height="12" fill="#243056"/>
  <rect x="48" y="27" width="6" height="12" fill="#243056"/>
  <rect x="12" y="30" width="2" height="6" fill="#4CC9F0"/>
  <rect x="50" y="30" width="2" height="6" fill="#4CC9F0"/>
  <rect x="16" y="14" width="32" height="30" fill="#16213E" rx="6" stroke="#243056" stroke-width="2"/>
  <rect x="20" y="18" width="24" height="16" fill="#0D1530" rx="3"/>
  <rect x="22" y="20" width="20" height="12" fill="#0B1028" rx="2" stroke="#4CC9F0" stroke-width="1"/>
  <rect x="25" y="24" width="4" height="4" fill="#E8ECF8"/>
  <rect x="35" y="24" width="4" height="4" fill="#E8ECF8"/>
  <rect x="23" y="38" width="18" height="12" fill="#16213E" rx="3" stroke="#243056" stroke-width="2"/>
  <rect x="29" y="41" width="6" height="6" fill="#4CC9F0"/>
  <rect x="31" y="43" width="2" height="2" fill="#E8ECF8" opacity="0.75"/>
  <rect x="12" y="40" width="7" height="5" fill="#243056"/>
  <rect x="45" y="40" width="7" height="5" fill="#243056"/>
  <rect x="22" y="50" width="7" height="5" fill="#243056"/>
  <rect x="35" y="50" width="7" height="5" fill="#243056"/>
  <line x1="10" y1="49" x2="22" y2="39" stroke="#4CC9F0" stroke-width="2" stroke-linecap="square"/>
  <rect x="8" y="48" width="4" height="4" fill="#FFD166"/>
  <rect x="14" y="16" width="2" height="2" fill="#4CC9F0" opacity="0.8"/>
  <rect x="48" y="48" width="2" height="2" fill="#A78BFA" opacity="0.85"/>
  <rect x="9" y="51" width="2" height="2" fill="#FFD166" opacity="0.9"/>

</g>
<g id="vela" transform="translate(288,0)">

  
  
  <rect x="18" y="54" width="28" height="4" fill="#020513" opacity="0.55"/>
  <rect x="30" y="7" width="4" height="6" fill="#243056"/>
  <rect x="29" y="4" width="6" height="4" fill="#FF9FD6"/>
  <polygon points="13,25 6,29 13,33" fill="#FF9FD6" opacity="0.9"/>
  <polygon points="51,25 58,29 51,33" fill="#FF9FD6" opacity="0.9"/>
  <rect x="16" y="14" width="32" height="30" fill="#16213E" rx="6" stroke="#243056" stroke-width="2"/>
  <rect x="20" y="18" width="24" height="16" fill="#0D1530" rx="3"/>
  <rect x="22" y="20" width="20" height="12" fill="#0B1028" rx="2" stroke="#FF9FD6" stroke-width="1"/>
  <rect x="25" y="24" width="4" height="4" fill="#E8ECF8"/>
  <rect x="35" y="24" width="4" height="4" fill="#E8ECF8"/>
  <rect x="23" y="38" width="18" height="12" fill="#16213E" rx="3" stroke="#243056" stroke-width="2"/>
  <rect x="29" y="41" width="6" height="6" fill="#FF9FD6"/>
  <rect x="31" y="43" width="2" height="2" fill="#E8ECF8" opacity="0.75"/>
  <rect x="12" y="40" width="7" height="5" fill="#243056"/>
  <rect x="45" y="40" width="7" height="5" fill="#243056"/>
  <rect x="22" y="50" width="7" height="5" fill="#243056"/>
  <rect x="35" y="50" width="7" height="5" fill="#243056"/>
  <rect x="7" y="13" width="3" height="3" fill="#FF9FD6"/>
  <rect x="55" y="15" width="2" height="2" fill="#FFD166"/>
  <rect x="52" y="50" width="3" height="3" fill="#A78BFA"/>
  <rect x="14" y="16" width="2" height="2" fill="#FF9FD6" opacity="0.8"/>
  <rect x="48" y="48" width="2" height="2" fill="#A78BFA" opacity="0.85"/>
  <rect x="9" y="51" width="2" height="2" fill="#FFD166" opacity="0.9"/>

</g>
<g id="gadi" transform="translate(360,0)">

  
  
  <rect x="18" y="54" width="28" height="4" fill="#020513" opacity="0.55"/>
  <rect x="28" y="8" width="8" height="5" fill="#FF7A90"/>
  <rect x="31" y="5" width="2" height="3" fill="#FFD166"/>
  <rect x="48" y="30" width="8" height="14" fill="#243056"/>
  <polygon points="52,28 60,33 56,44 48,44 44,33" fill="#FF7A90" opacity="0.95"/>
  <rect x="16" y="14" width="32" height="30" fill="#16213E" rx="6" stroke="#243056" stroke-width="2"/>
  <rect x="20" y="18" width="24" height="16" fill="#0D1530" rx="3"/>
  <rect x="22" y="20" width="20" height="12" fill="#0B1028" rx="2" stroke="#FF7A90" stroke-width="1"/>
  <rect x="25" y="24" width="4" height="4" fill="#E8ECF8"/>
  <rect x="35" y="24" width="4" height="4" fill="#E8ECF8"/>
  <rect x="23" y="38" width="18" height="12" fill="#16213E" rx="3" stroke="#243056" stroke-width="2"/>
  <rect x="29" y="41" width="6" height="6" fill="#FF7A90"/>
  <rect x="31" y="43" width="2" height="2" fill="#E8ECF8" opacity="0.75"/>
  <rect x="12" y="40" width="7" height="5" fill="#243056"/>
  <rect x="45" y="40" width="7" height="5" fill="#243056"/>
  <rect x="22" y="50" width="7" height="5" fill="#243056"/>
  <rect x="35" y="50" width="7" height="5" fill="#243056"/>
  <rect x="50" y="35" width="4" height="4" fill="#FFD166"/>
  <rect x="52" y="31" width="2" height="10" fill="#E8ECF8" opacity="0.45"/>
  <rect x="14" y="16" width="2" height="2" fill="#FF7A90" opacity="0.8"/>
  <rect x="48" y="48" width="2" height="2" fill="#FFD166" opacity="0.85"/>
  <rect x="9" y="51" width="2" height="2" fill="#FFD166" opacity="0.9"/>

</g>
</svg>
