<svg xmlns="http://www.w3.org/2000/svg" width="390" height="844" viewBox="0 0 390 844" fill="none" shape-rendering="crispEdges">
  <defs>
    <filter id="softGlow" x="-60%" y="-60%" width="220%" height="220%"><feGaussianBlur stdDeviation="6" result="b"/><feMerge><feMergeNode in="b"/><feMergeNode in="SourceGraphic"/></feMerge></filter>
    <filter id="tinyGlow" x="-80%" y="-80%" width="260%" height="260%"><feGaussianBlur stdDeviation="2" result="b"/><feMerge><feMergeNode in="b"/><feMergeNode in="SourceGraphic"/></feMerge></filter>
    <radialGradient id="screenBg" cx="50%" cy="28%" r="86%"><stop offset="0" stop-color="#72F2C7" stop-opacity="0.10"/><stop offset="34%" stop-color="#A78BFA" stop-opacity="0.10"/><stop offset="74%" stop-color="#0D1530" stop-opacity="0.92"/><stop offset="100%" stop-color="#070A18"/></radialGradient>
    <radialGradient id="mintGlow" cx="50%" cy="50%" r="58%"><stop offset="0" stop-color="#72F2C7" stop-opacity="0.68"/><stop offset="100%" stop-color="#72F2C7" stop-opacity="0"/></radialGradient>
    <radialGradient id="violetGlow" cx="50%" cy="50%" r="58%"><stop offset="0" stop-color="#A78BFA" stop-opacity="0.64"/><stop offset="100%" stop-color="#A78BFA" stop-opacity="0"/></radialGradient>
    <radialGradient id="lampGlow" cx="50%" cy="50%" r="58%"><stop offset="0" stop-color="#FFD166" stop-opacity="0.72"/><stop offset="100%" stop-color="#FFD166" stop-opacity="0"/></radialGradient>
    <linearGradient id="panel" x1="0" y1="0" x2="1" y2="1"><stop offset="0" stop-color="#0D1530" stop-opacity="0.96"/><stop offset="1" stop-color="#16213E" stop-opacity="0.88"/></linearGradient>
    <linearGradient id="shardPanel" x1="0" y1="0" x2="1" y2="1"><stop offset="0" stop-color="#16213E" stop-opacity="0.94"/><stop offset="0.68" stop-color="#0D1530" stop-opacity="0.96"/><stop offset="1" stop-color="#72F2C7" stop-opacity="0.15"/></linearGradient>
    
  </defs><rect width="390" height="844" fill="url(#screenBg)"/><rect x="20" y="122" width="2" height="2" fill="#8D98B8" opacity="0.50"/><rect x="342" y="114" width="2" height="2" fill="#72F2C7" opacity="0.50"/><rect x="66" y="225" width="2" height="2" fill="#A78BFA" opacity="0.50"/><rect x="312" y="322" width="2" height="2" fill="#FFD166" opacity="0.50"/><rect x="52" y="516" width="2" height="2" fill="#72F2C7" opacity="0.50"/><rect x="352" y="635" width="2" height="2" fill="#8D98B8" opacity="0.50"/><rect x="96" y="760" width="2" height="2" fill="#FFD166" opacity="0.50"/><rect x="210" y="206" width="2" height="2" fill="#8D98B8" opacity="0.50"/><rect x="172" y="660" width="2" height="2" fill="#4CC9F0" opacity="0.50"/><rect x="32" y="407" width="2" height="2" fill="#FFD166" opacity="0.50"/><rect x="342" y="466" width="2" height="2" fill="#72F2C7" opacity="0.50"/><rect x="280" y="735" width="2" height="2" fill="#A78BFA" opacity="0.50"/>
  <rect x="16" y="50" width="44" height="44" rx="14" fill="#0D1530" stroke="#8D98B8" stroke-opacity="0.28"/>
  <path d="M42 62L32 72L42 82" stroke="#E8ECF8" stroke-width="3"/>
  <text x="78" y="72" text-anchor="start" font-family="Pretendard, system-ui, -apple-system, Segoe UI, sans-serif" font-size="22" font-weight="600" fill="#E8ECF8" shape-rendering="geometricPrecision">지식 창고</text>
  <text x="78" y="96" text-anchor="start" font-family="Pretendard, system-ui, -apple-system, Segoe UI, sans-serif" font-size="11" font-weight="500" fill="#8D98B8" shape-rendering="geometricPrecision">저장된 조각을 다시 찾아요</text>
  <rect x="336" y="54" width="38" height="38" rx="13" fill="#0D1530" stroke="#72F2C7" stroke-opacity="0.32"/>
  <path d="M356 62L360 72L370 76L360 80L356 90L352 80L342 76L352 72Z" fill="#72F2C7" opacity="0.88"/>
  <g transform="translate(20 188)"><rect x="0" y="0" width="350" height="220" rx="30" fill="url(#shardPanel)" stroke="#8D98B8" stroke-opacity="0.20"/><g transform="translate(175 78) scale(0.62)">
      <circle cx="0" cy="3" r="42" fill="url(#lampGlow)" opacity="0.44"/>
      <rect x="-24" y="-14" width="48" height="42" rx="12" fill="#16213E" stroke="#FFD166" stroke-opacity="0.56"/>
      <rect x="-28" y="9" width="56" height="28" rx="8" fill="#243056" stroke="#FFD166" stroke-opacity="0.36"/>
      <rect x="-14" y="1" width="5" height="5" fill="#E8ECF8"/><rect x="9" y="1" width="5" height="5" fill="#E8ECF8"/>
      <rect x="-9" y="17" width="18" height="4" fill="#FFD166"/>
      <rect x="-17" y="-27" width="34" height="14" rx="4" fill="#FFD166" fill-opacity="0.20" stroke="#FFD166" stroke-opacity="0.44"/>
      <rect x="-10" y="-23" width="20" height="3" fill="#FFD166"/>
    </g><text x="175" y="144" text-anchor="middle" font-family="Pretendard, system-ui, -apple-system, Segoe UI, sans-serif" font-size="18" font-weight="600" fill="#E8ECF8" shape-rendering="geometricPrecision">아직 창고가 조용해요</text><text x="175" y="171" text-anchor="middle" font-family="Pretendard, system-ui, -apple-system, Segoe UI, sans-serif" font-size="12" font-weight="500" fill="#8D98B8" shape-rendering="geometricPrecision">오늘의 조각이나 링크를 저장하면</text><text x="175" y="191" text-anchor="middle" font-family="Pretendard, system-ui, -apple-system, Segoe UI, sans-serif" font-size="12" font-weight="500" fill="#8D98B8" shape-rendering="geometricPrecision">여기서 다시 찾아볼 수 있어요.</text></g>
  <g transform="translate(20 446)"><rect x="0" y="0" width="350" height="64" rx="22" fill="#FFD166" fill-opacity="0.15" stroke="#FFD166" stroke-opacity="0.38"/><text x="175" y="39" text-anchor="middle" font-family="Pretendard, system-ui, -apple-system, Segoe UI, sans-serif" font-size="15" font-weight="600" fill="#E8ECF8" shape-rendering="geometricPrecision">오늘의 조각 남기기</text></g>
  <g transform="translate(20 530)"><rect x="0" y="0" width="350" height="64" rx="22" fill="#72F2C7" fill-opacity="0.13" stroke="#72F2C7" stroke-opacity="0.34"/><text x="175" y="39" text-anchor="middle" font-family="Pretendard, system-ui, -apple-system, Segoe UI, sans-serif" font-size="15" font-weight="600" fill="#E8ECF8" shape-rendering="geometricPrecision">조각 담기</text></g>
</svg>