<svg xmlns="http://www.w3.org/2000/svg" width="390" height="844" viewBox="0 0 390 844" fill="none" shape-rendering="crispEdges" >

  <defs>
    <filter id="glow" x="-60%" y="-60%" width="220%" height="220%"><feGaussianBlur stdDeviation="6" result="b"/><feMerge><feMergeNode in="b"/><feMergeNode in="SourceGraphic"/></feMerge></filter>
    <filter id="smallGlow" x="-80%" y="-80%" width="260%" height="260%"><feGaussianBlur stdDeviation="2" result="b"/><feMerge><feMergeNode in="b"/><feMergeNode in="SourceGraphic"/></feMerge></filter>
    <radialGradient id="bg" cx="50%" cy="30%" r="78%"><stop offset="0" stop-color="#A78BFA" stop-opacity="0.17"/><stop offset="45%" stop-color="#0D1530" stop-opacity="0.92"/><stop offset="100%" stop-color="#070A18"/></radialGradient>
  </defs>
<rect width="390" height="844" fill="url(#bg)"/><rect x="20" y="128" width="2" height="2" fill="#8D98B8" opacity="0.48"/><rect x="332" y="120" width="2" height="2" fill="#72F2C7" opacity="0.48"/><rect x="74" y="230" width="2" height="2" fill="#A78BFA" opacity="0.48"/><rect x="320" y="330" width="2" height="2" fill="#FFD166" opacity="0.48"/><rect x="44" y="592" width="2" height="2" fill="#72F2C7" opacity="0.48"/><rect x="355" y="642" width="2" height="2" fill="#8D98B8" opacity="0.48"/><rect x="116" y="760" width="2" height="2" fill="#FFD166" opacity="0.48"/><rect x="244" y="204" width="2" height="2" fill="#8D98B8" opacity="0.48"/><rect x="182" y="618" width="2" height="2" fill="#FF9FD6" opacity="0.48"/>

  <rect x="16" y="50" width="44" height="44" rx="14" fill="#0D1530" stroke="#8D98B8" stroke-opacity="0.28"/>
  <path d="M42 62L32 72L42 82" stroke="#E8ECF8" stroke-width="3"/>
  <text x="78" y="72" text-anchor="start" font-family="NanumGothic, Noto Sans CJK KR, DejaVu Sans, sans-serif" font-size="22" font-weight="600" fill="#E8ECF8" shape-rendering="geometricPrecision">중심 밝기</text>
  <text x="78" y="96" text-anchor="start" font-family="NanumGothic, Noto Sans CJK KR, DejaVu Sans, sans-serif" font-size="11" font-weight="500" fill="#8D98B8" shape-rendering="geometricPrecision">사용 빈도와 조각 연결에 따라 자연스럽게 변해요.</text>
  <rect x="20" y="132" width="350" height="88" rx="22" fill="#0D1530" fill-opacity="0.78" stroke="#FFD166" stroke-opacity="0.2"/>
  <text x="42" y="164" text-anchor="start" font-family="NanumGothic, Noto Sans CJK KR, DejaVu Sans, sans-serif" font-size="13" font-weight="600" fill="#8D98B8" shape-rendering="geometricPrecision">현재 단계</text><text x="42" y="194" text-anchor="start" font-family="NanumGothic, Noto Sans CJK KR, DejaVu Sans, sans-serif" font-size="28" font-weight="600" fill="#FFD166" shape-rendering="geometricPrecision">일출</text>
  <rect x="142" y="172" width="188" height="10" rx="5" fill="#243056"/><rect x="142" y="172" width="112" height="10" rx="5" fill="#FFD166"/>
  <rect x="20" y="250" width="350" height="380" rx="24" fill="#0D1530" fill-opacity="0.78" stroke="#8D98B8" stroke-opacity="0.18"/>
  <text x="40" y="286" text-anchor="start" font-family="NanumGothic, Noto Sans CJK KR, DejaVu Sans, sans-serif" font-size="15" font-weight="600" fill="#E8ECF8" shape-rendering="geometricPrecision">단계 흐름</text>
  <path d="M70 340V560" stroke="#243056" stroke-width="3"/>
  <rect x="56" y="326" width="28" height="28" rx="10" fill="#16213E" stroke="#8D98B8"/><text x="102" y="346" font-size="13" fill="#8D98B8" font-family="Pretendard, system-ui">새벽 전</text>
  <rect x="56" y="386" width="28" height="28" rx="10" fill="#16213E" stroke="#4CC9F0"/><text x="102" y="406" font-size="13" fill="#E8ECF8" font-family="Pretendard, system-ui">새벽</text>
  <rect x="54" y="446" width="32" height="32" rx="11" fill="#FFD166" fill-opacity="0.18" stroke="#FFD166" filter="url(#smallGlow)"/><text x="102" y="467" font-size="13" fill="#FFD166" font-family="Pretendard, system-ui" font-weight="700">일출 · 현재</text>
  <rect x="56" y="510" width="28" height="28" rx="10" fill="#16213E" stroke="#72F2C7"/><text x="102" y="530" font-size="13" fill="#8D98B8" font-family="Pretendard, system-ui">낮의 정원</text>
  <rect x="20" y="660" width="350" height="86" rx="22" fill="#0D1530" stroke="#72F2C7" stroke-opacity="0.24"/>
  <text x="40" y="694" text-anchor="start" font-family="NanumGothic, Noto Sans CJK KR, DejaVu Sans, sans-serif" font-size="14" font-weight="600" fill="#E8ECF8" shape-rendering="geometricPrecision">다음 단계까지</text>
  <text x="40" y="720" text-anchor="start" font-family="NanumGothic, Noto Sans CJK KR, DejaVu Sans, sans-serif" font-size="12" font-weight="500" fill="#8D98B8" shape-rendering="geometricPrecision">기록 3개 또는 연결 2개가 더 필요해요.</text>
</svg>