<svg xmlns="http://www.w3.org/2000/svg" viewBox="0 0 128 128" shape-rendering="crispEdges" role="img" aria-label="secondb_app_icon_candidate_b">
  <title>secondb_app_icon_candidate_b</title>
  <defs><filter id="glow" x="-60%" y="-60%" width="220%" height="220%"><feGaussianBlur stdDeviation="5" result="b"/><feMerge><feMergeNode in="b"/><feMergeNode in="SourceGraphic"/></feMerge></filter></defs>
  <rect x="8" y="8" width="112" height="112" fill="#070A18" rx="28"/>
  <rect x="14" y="14" width="100" height="100" fill="#0D1530" rx="24"/>
  <circle cx="64" cy="64" r="44" fill="#72F2C7" opacity="0.16"/>
  <circle cx="64" cy="64" r="28" fill="#A78BFA" opacity="0.1"/>
  <line x1="24" y1="78" x2="104" y2="44" stroke="#243056" stroke-width="3" stroke-linecap="square"/>
  <line x1="30" y1="36" x2="98" y2="94" stroke="#243056" stroke-width="3" stroke-linecap="square"/>
  <rect x="22" y="74" width="7" height="7" fill="#FFD166"/>
  <rect x="100" y="40" width="7" height="7" fill="#72F2C7"/>
  <rect x="27" y="33" width="6" height="6" fill="#C4B5FD"/>
  <rect x="95" y="91" width="6" height="6" fill="#4CC9F0"/>
  <g transform="translate(17 18) scale(1.47)"><rect x="31" y="10" width="2" height="8" fill="#243056"/>
<rect x="29" y="6" width="6" height="6" fill="#0D1530"/>
<rect x="31" y="8" width="2" height="2" fill="#72F2C7"/>
<rect x="27" y="4" width="2" height="2" fill="#72F2C7" opacity="0.74"/>
<rect x="35" y="4" width="2" height="2" fill="#72F2C7" opacity="0.74"/>
<rect x="22" y="16" width="20" height="4" fill="#0D1530"/>
<rect x="18" y="20" width="28" height="4" fill="#0D1530"/>
<rect x="16" y="24" width="32" height="22" fill="#0D1530"/>
<rect x="18" y="46" width="28" height="4" fill="#0D1530"/>
<rect x="22" y="50" width="20" height="4" fill="#0D1530"/>
<rect x="22" y="20" width="20" height="4" fill="#C4B5FD"/>
<rect x="20" y="24" width="24" height="4" fill="#A78BFA"/>
<rect x="18" y="28" width="28" height="16" fill="#A78BFA"/>
<rect x="20" y="44" width="24" height="4" fill="#5B4BB7"/>
<rect x="24" y="48" width="16" height="2" fill="#5B4BB7"/>
<rect x="22" y="27" width="20" height="12" fill="#16213E"/>
<rect x="24" y="29" width="16" height="8" fill="#0D1530"/>
<rect x="24" y="32" width="2" height="2" fill="#E8ECF8"/>
<rect x="26" y="30" width="2" height="2" fill="#E8ECF8"/>
<rect x="28" y="32" width="2" height="2" fill="#E8ECF8"/>
<rect x="34" y="32" width="2" height="2" fill="#E8ECF8"/>
<rect x="36" y="30" width="2" height="2" fill="#E8ECF8"/>
<rect x="38" y="32" width="2" height="2" fill="#E8ECF8"/>
<rect x="29" y="40" width="6" height="5" fill="#0D1530"/>
<rect x="31" y="41" width="2" height="2" fill="#FFD166"/>
<rect x="30" y="43" width="4" height="1" fill="#FFD166" opacity="0.8"/>
<rect x="12" y="33" width="4" height="10" fill="#0D1530"/>
<rect x="48" y="33" width="4" height="10" fill="#0D1530"/>
<rect x="13" y="34" width="2" height="7" fill="#5B4BB7"/>
<rect x="49" y="34" width="2" height="7" fill="#5B4BB7"/>
<rect x="24" y="53" width="5" height="4" fill="#0D1530"/>
<rect x="35" y="53" width="5" height="4" fill="#0D1530"/>
<rect x="25" y="53" width="3" height="2" fill="#5B4BB7"/>
<rect x="36" y="53" width="3" height="2" fill="#5B4BB7"/></g>
  <rect x="87" y="22" width="14" height="14" fill="#FFD166"/>
  <rect x="91" y="26" width="6" height="6" fill="#E8ECF8"/>
</svg>
