<svg xmlns="http://www.w3.org/2000/svg" width="390" height="844" viewBox="0 0 390 844" fill="none" shape-rendering="crispEdges" >

    <defs>
      <filter id="glow" x="-60%" y="-60%" width="220%" height="220%"><feGaussianBlur stdDeviation="5" result="b"/><feMerge><feMergeNode in="b"/><feMergeNode in="SourceGraphic"/></feMerge></filter>
      <filter id="smallGlow" x="-80%" y="-80%" width="260%" height="260%"><feGaussianBlur stdDeviation="2" result="b"/><feMerge><feMergeNode in="b"/><feMergeNode in="SourceGraphic"/></feMerge></filter>
      <radialGradient id="bg" cx="50%" cy="35%" r="75%"><stop offset="0" stop-color="#A78BFA" stop-opacity="0.18"/><stop offset="45%" stop-color="#0D1530" stop-opacity="0.85"/><stop offset="100%" stop-color="#070A18"/></radialGradient>
    </defs>
<rect width="390" height="844" fill="url(#bg)"/><rect x="22" y="122" width="2" height="2" fill="#8D98B8" opacity="0.5"/><rect x="333" y="128" width="2" height="2" fill="#72F2C7" opacity="0.5"/><rect x="74" y="222" width="2" height="2" fill="#A78BFA" opacity="0.5"/><rect x="324" y="346" width="2" height="2" fill="#FFD166" opacity="0.5"/><rect x="43" y="593" width="2" height="2" fill="#72F2C7" opacity="0.5"/><rect x="357" y="646" width="2" height="2" fill="#8D98B8" opacity="0.5"/><rect x="122" y="738" width="2" height="2" fill="#FFD166" opacity="0.5"/><rect x="246" y="202" width="2" height="2" fill="#8D98B8" opacity="0.5"/><rect x="183" y="610" width="2" height="2" fill="#FF9FD6" opacity="0.5"/>
  <rect x="16" y="50" width="44" height="44" rx="14" fill="#0D1530" stroke="#8D98B8" stroke-opacity="0.28"/>
  <path d="M42 62L32 72L42 82" stroke="#E8ECF8" stroke-width="3"/>
  <text x="78" y="78" text-anchor="start" font-family="NanumSquareRound, Noto Sans CJK KR, Noto Sans CJK, DejaVu Sans, sans-serif" font-size="22" font-weight="600" fill="#E8ECF8" shape-rendering="geometricPrecision">공상 작업실</text>
  <rect x="28" y="128" width="334" height="150" rx="28" fill="#0D1530" fill-opacity="0.78" stroke="#FF9FD6" stroke-opacity="0.34"/>
  <circle cx="310" cy="170" r="34" fill="#FF9FD6" opacity="0.16" filter="url(#glow)"/>
  <rect x="292" y="146" width="36" height="44" rx="10" fill="#FF9FD6" stroke="#070A18" stroke-width="3"/>
  <rect x="301" y="162" width="5" height="5" fill="#E8ECF8"/><rect x="315" y="162" width="5" height="5" fill="#E8ECF8"/><rect x="306" y="176" width="10" height="4" fill="#72F2C7"/>
  <text x="50" y="164" text-anchor="start" font-family="NanumSquareRound, Noto Sans CJK KR, Noto Sans CJK, DejaVu Sans, sans-serif" font-size="15" font-weight="600" fill="#E8ECF8" shape-rendering="geometricPrecision">아직 말이 안 되어도 좋아요.</text>
  <text x="50" y="192" text-anchor="start" font-family="NanumSquareRound, Noto Sans CJK KR, Noto Sans CJK, DejaVu Sans, sans-serif" font-size="12" font-weight="500" fill="#8D98B8" shape-rendering="geometricPrecision">떠오른 장면을 하나 던져주세요.</text>
  <rect x="28" y="306" width="334" height="128" rx="22" fill="#0D1530" stroke="#8D98B8" stroke-opacity="0.24"/>
  <text x="50" y="342" text-anchor="start" font-family="NanumSquareRound, Noto Sans CJK KR, Noto Sans CJK, DejaVu Sans, sans-serif" font-size="13" font-weight="600" fill="#E8ECF8" shape-rendering="geometricPrecision">생각 입력</text>
  <text x="50" y="374" text-anchor="start" font-family="NanumSquareRound, Noto Sans CJK KR, Noto Sans CJK, DejaVu Sans, sans-serif" font-size="12" font-weight="500" fill="#8D98B8" shape-rendering="geometricPrecision">예: 내 앱을 밤빛 마을처럼 만들고 싶어</text>
  <rect x="28" y="456" width="334" height="52" rx="18" fill="#FF9FD6" fill-opacity="0.18" stroke="#FF9FD6" stroke-opacity="0.42"/>
  <text x="195" y="490" text-anchor="middle" font-family="NanumSquareRound, Noto Sans CJK KR, Noto Sans CJK, DejaVu Sans, sans-serif" font-size="15" font-weight="600" fill="#E8ECF8" shape-rendering="geometricPrecision">상상하기 ✦</text>
  <rect x="28" y="540" width="334" height="210" rx="26" fill="#0D1530" stroke="#A78BFA" stroke-opacity="0.28"/>
  <text x="50" y="578" text-anchor="start" font-family="NanumSquareRound, Noto Sans CJK KR, Noto Sans CJK, DejaVu Sans, sans-serif" font-size="14" font-weight="600" fill="#E8ECF8" shape-rendering="geometricPrecision">생성된 장면 카드</text>
  <rect x="50" y="604" width="86" height="86" rx="18" fill="#16213E" stroke="#72F2C7" stroke-opacity="0.3"/>
  <path d="M74 650L94 620L118 650V674H74Z" fill="#0D1530" stroke="#FF9FD6" stroke-opacity="0.45"/>
  <text x="154" y="622" text-anchor="start" font-family="NanumSquareRound, Noto Sans CJK KR, Noto Sans CJK, DejaVu Sans, sans-serif" font-size="15" font-weight="600" fill="#FFD166" shape-rendering="geometricPrecision">밤빛 그래프 마을</text>
  <text x="154" y="650" text-anchor="start" font-family="NanumSquareRound, Noto Sans CJK KR, Noto Sans CJK, DejaVu Sans, sans-serif" font-size="12" font-weight="500" fill="#8D98B8" shape-rendering="geometricPrecision">조각들이 길이 되고,</text>
  <text x="154" y="672" text-anchor="start" font-family="NanumSquareRound, Noto Sans CJK KR, Noto Sans CJK, DejaVu Sans, sans-serif" font-size="12" font-weight="500" fill="#8D98B8" shape-rendering="geometricPrecision">세컨비가 그 길을 따라가요.</text>
</svg>