<svg xmlns="http://www.w3.org/2000/svg" width="390" height="844" viewBox="0 0 390 844" role="img" aria-label="settings_home mobile placeholder mockup">
  <defs>
    <radialGradient id="g" cx="50%" cy="28%" r="60%">
      <stop offset="0%" stop-color="#4CC9F0" stop-opacity="0.28"/>
      <stop offset="55%" stop-color="#0D1530" stop-opacity="0.94"/>
      <stop offset="100%" stop-color="#070A18"/>
    </radialGradient>
    <filter id="glow"><feGaussianBlur stdDeviation="4" result="b"/><feMerge><feMergeNode in="b"/><feMergeNode in="SourceGraphic"/></feMerge></filter>
  </defs>
  <rect width="390" height="844" fill="url(#g)"/>
  <rect x="16" y="28" width="358" height="64" rx="18" fill="#0D1530" stroke="#4CC9F0" stroke-opacity="0.4"/>
  <text x="32" y="56" fill="#E8ECF8" font-family="Arial, sans-serif" font-size="18" font-weight="700">Settings Home</text>
  <text x="32" y="78" fill="#8D98B8" font-family="Arial, sans-serif" font-size="12">2ndB_settings_profile_data_ui_pack_v2</text>
  <rect x="24" y="122" width="342" height="188" rx="22" fill="#16213E" stroke="#4CC9F0" stroke-opacity="0.45"/>
  <circle cx="196" cy="216" r="44" fill="#070A18" stroke="#4CC9F0" stroke-width="3" filter="url(#glow)"/>
  <circle cx="196" cy="216" r="12" fill="#FFD166"/>
  <path d="M196 216 L108 374 M196 216 L282 374 M196 216 L196 420" stroke="#72F2C7" stroke-width="2" stroke-opacity="0.8"/>
  <rect x="54" y="346" width="108" height="70" rx="18" fill="#16213E" stroke="#72F2C7" stroke-opacity="0.36"/>
  <rect x="228" y="346" width="108" height="70" rx="18" fill="#16213E" stroke="#A78BFA" stroke-opacity="0.36"/>
  <rect x="126" y="454" width="140" height="70" rx="18" fill="#16213E" stroke="#FFD166" stroke-opacity="0.36"/>
  <rect x="24" y="560" width="342" height="156" rx="24" fill="#0D1530" stroke="#243056"/>
  <text x="44" y="594" fill="#E8ECF8" font-family="Arial, sans-serif" font-size="16" font-weight="700">settings_home</text>
  <text x="44" y="622" fill="#8D98B8" font-family="Arial, sans-serif" font-size="12">A-to-Z placeholder route skeleton</text>
  <rect x="44" y="650" width="136" height="36" rx="14" fill="#4CC9F0" fill-opacity="0.22" stroke="#4CC9F0" stroke-opacity="0.58"/>
  <text x="62" y="673" fill="#E8ECF8" font-family="Arial, sans-serif" font-size="12">Primary CTA</text>
  <rect x="194" y="650" width="130" height="36" rx="14" fill="#16213E" stroke="#8D98B8" stroke-opacity="0.35"/>
  <text x="212" y="673" fill="#8D98B8" font-family="Arial, sans-serif" font-size="12">Secondary</text>
  <rect x="304" y="754" width="56" height="56" rx="20" fill="#16213E" stroke="#A78BFA"/>
  <circle cx="332" cy="782" r="15" fill="#A78BFA" opacity="0.82"/>
  <circle cx="326" cy="778" r="2" fill="#E8ECF8"/><circle cx="338" cy="778" r="2" fill="#E8ECF8"/>
</svg>