<svg xmlns="http://www.w3.org/2000/svg" viewBox="0 0 384 64" width="384" height="64" shape-rendering="crispEdges" role="img" aria-label="Gadi sprite sheet">
  <title>Gadi sprite sheet</title>
  <desc>States: idle guard alert soft_stop clear scan</desc>
  <g transform="translate(0,0)">
  <rect x="18" y="55" width="28" height="4" fill="#0D1530" opacity="0.42"/>
  <rect x="29" y="8" width="6" height="6" fill="#0D1530"/>
  <rect x="31" y="6" width="2" height="2" fill="#FF7A90"/>
  <rect x="21" y="17" width="22" height="4" fill="#070A18"/>
  <rect x="17" y="21" width="30" height="4" fill="#070A18"/>
  <rect x="15" y="25" width="34" height="20" fill="#070A18"/>
  <rect x="17" y="45" width="30" height="4" fill="#070A18"/>
  <rect x="21" y="49" width="22" height="5" fill="#070A18"/>
  <rect x="22" y="18" width="20" height="4" fill="#FF9AA8"/>
  <rect x="19" y="22" width="26" height="4" fill="#FF7A90"/>
  <rect x="17" y="26" width="30" height="16" fill="#FF7A90"/>
  <rect x="19" y="42" width="26" height="6" fill="#A83D51"/>
  <rect x="24" y="48" width="16" height="5" fill="#A83D51"/>
  <rect x="21" y="24" width="22" height="18" fill="#16213E"/>
  <rect x="23" y="26" width="18" height="14" fill="#0D1530"/>
  <rect x="17" y="29" width="2" height="12" fill="#FF9AA8"/>
  <rect x="45" y="29" width="2" height="12" fill="#FF9AA8"/>
  <rect x="28" y="49" width="8" height="2" fill="#FF9AA8"/>
  <rect x="25" y="31" width="3" height="4" fill="#E8ECF8"/>
  <rect x="36" y="31" width="3" height="4" fill="#E8ECF8"/>
  <rect x="26" y="32" width="1" height="1" fill="#72F2C7"/>
  <rect x="37" y="32" width="1" height="1" fill="#72F2C7"/>
  <rect x="30" y="40" width="4" height="4" fill="#0D1530"/>
  <rect x="31" y="41" width="2" height="2" fill="#FF7A90"/>
  <rect x="11" y="34" width="5" height="10" fill="#070A18"/>
  <rect x="48" y="34" width="5" height="10" fill="#070A18"/>
  <rect x="12" y="35" width="3" height="7" fill="#A83D51"/>
  <rect x="49" y="35" width="3" height="7" fill="#A83D51"/>
  <rect x="24" y="52" width="5" height="5" fill="#070A18"/>
  <rect x="35" y="52" width="5" height="5" fill="#070A18"/>
  <rect x="25" y="52" width="3" height="2" fill="#A83D51"/>
  <rect x="36" y="52" width="3" height="2" fill="#A83D51"/>
</g>
<g transform="translate(64,0)">
  <rect x="18" y="55" width="28" height="4" fill="#0D1530" opacity="0.42"/>
  <rect x="29" y="8" width="6" height="6" fill="#0D1530"/>
  <rect x="31" y="6" width="2" height="2" fill="#FF7A90"/>
  <rect x="21" y="17" width="22" height="4" fill="#070A18"/>
  <rect x="17" y="21" width="30" height="4" fill="#070A18"/>
  <rect x="15" y="25" width="34" height="20" fill="#070A18"/>
  <rect x="17" y="45" width="30" height="4" fill="#070A18"/>
  <rect x="21" y="49" width="22" height="5" fill="#070A18"/>
  <rect x="22" y="18" width="20" height="4" fill="#FF9AA8"/>
  <rect x="19" y="22" width="26" height="4" fill="#FF7A90"/>
  <rect x="17" y="26" width="30" height="16" fill="#FF7A90"/>
  <rect x="19" y="42" width="26" height="6" fill="#A83D51"/>
  <rect x="24" y="48" width="16" height="5" fill="#A83D51"/>
  <rect x="21" y="24" width="22" height="18" fill="#16213E"/>
  <rect x="23" y="26" width="18" height="14" fill="#0D1530"/>
  <rect x="17" y="29" width="2" height="12" fill="#FF9AA8"/>
  <rect x="45" y="29" width="2" height="12" fill="#FF9AA8"/>
  <rect x="28" y="49" width="8" height="2" fill="#FF9AA8"/>
  <rect x="25" y="31" width="3" height="4" fill="#E8ECF8"/>
  <rect x="36" y="31" width="3" height="4" fill="#E8ECF8"/>
  <rect x="26" y="32" width="1" height="1" fill="#72F2C7"/>
  <rect x="37" y="32" width="1" height="1" fill="#72F2C7"/>
  <rect x="30" y="40" width="4" height="4" fill="#0D1530"/>
  <rect x="31" y="41" width="2" height="2" fill="#FF7A90"/>
  <rect x="11" y="30" width="5" height="10" fill="#070A18"/>
  <rect x="48" y="30" width="5" height="10" fill="#070A18"/>
  <rect x="12" y="31" width="3" height="7" fill="#A83D51"/>
  <rect x="49" y="31" width="3" height="7" fill="#A83D51"/>
  <rect x="24" y="52" width="5" height="5" fill="#070A18"/>
  <rect x="35" y="52" width="5" height="5" fill="#070A18"/>
  <rect x="25" y="52" width="3" height="2" fill="#A83D51"/>
  <rect x="36" y="52" width="3" height="2" fill="#A83D51"/>
  <rect x="7" y="29" width="10" height="18" fill="#0D1530"/>
  <rect x="9" y="31" width="6" height="14" fill="#FF7A90"/>
  <rect x="10" y="33" width="4" height="8" fill="#0D1530"/>
</g>
<g transform="translate(128,0)">
  <rect x="18" y="55" width="28" height="4" fill="#0D1530" opacity="0.42"/>
  <rect x="29" y="8" width="6" height="6" fill="#0D1530"/>
  <rect x="31" y="6" width="2" height="2" fill="#FF7A90"/>
  <rect x="21" y="17" width="22" height="4" fill="#070A18"/>
  <rect x="17" y="21" width="30" height="4" fill="#070A18"/>
  <rect x="15" y="25" width="34" height="20" fill="#070A18"/>
  <rect x="17" y="45" width="30" height="4" fill="#070A18"/>
  <rect x="21" y="49" width="22" height="5" fill="#070A18"/>
  <rect x="22" y="18" width="20" height="4" fill="#FF9AA8"/>
  <rect x="19" y="22" width="26" height="4" fill="#FF7A90"/>
  <rect x="17" y="26" width="30" height="16" fill="#FF7A90"/>
  <rect x="19" y="42" width="26" height="6" fill="#A83D51"/>
  <rect x="24" y="48" width="16" height="5" fill="#A83D51"/>
  <rect x="21" y="24" width="22" height="18" fill="#16213E"/>
  <rect x="23" y="26" width="18" height="14" fill="#0D1530"/>
  <rect x="17" y="29" width="2" height="12" fill="#FF9AA8"/>
  <rect x="45" y="29" width="2" height="12" fill="#FF9AA8"/>
  <rect x="28" y="49" width="8" height="2" fill="#FF9AA8"/>
  <rect x="24" y="31" width="4" height="4" fill="#E8ECF8"/>
  <rect x="36" y="31" width="4" height="4" fill="#E8ECF8"/>
  <rect x="26" y="32" width="2" height="2" fill="#FF7A90"/>
  <rect x="38" y="32" width="2" height="2" fill="#FF7A90"/>
  <rect x="30" y="39" width="4" height="4" fill="#0D1530"/>
  <rect x="11" y="34" width="5" height="10" fill="#070A18"/>
  <rect x="48" y="28" width="5" height="10" fill="#070A18"/>
  <rect x="12" y="35" width="3" height="7" fill="#A83D51"/>
  <rect x="49" y="29" width="3" height="7" fill="#A83D51"/>
  <rect x="24" y="52" width="5" height="5" fill="#070A18"/>
  <rect x="35" y="52" width="5" height="5" fill="#070A18"/>
  <rect x="25" y="52" width="3" height="2" fill="#A83D51"/>
  <rect x="36" y="52" width="3" height="2" fill="#A83D51"/>
  <rect x="7" y="29" width="10" height="18" fill="#0D1530"/>
  <rect x="9" y="31" width="6" height="14" fill="#FF7A90"/>
  <rect x="10" y="33" width="4" height="8" fill="#0D1530"/>
  <rect x="46" y="12" width="12" height="4" fill="#FF7A90"/>
  <rect x="50" y="16" width="4" height="12" fill="#FF7A90"/>
  <rect x="50" y="30" width="4" height="4" fill="#FF7A90"/>
</g>
<g transform="translate(192,0)">
  <rect x="18" y="55" width="28" height="4" fill="#0D1530" opacity="0.42"/>
  <rect x="29" y="8" width="6" height="6" fill="#0D1530"/>
  <rect x="31" y="6" width="2" height="2" fill="#FF7A90"/>
  <rect x="21" y="17" width="22" height="4" fill="#070A18"/>
  <rect x="17" y="21" width="30" height="4" fill="#070A18"/>
  <rect x="15" y="25" width="34" height="20" fill="#070A18"/>
  <rect x="17" y="45" width="30" height="4" fill="#070A18"/>
  <rect x="21" y="49" width="22" height="5" fill="#070A18"/>
  <rect x="22" y="18" width="20" height="4" fill="#FF9AA8"/>
  <rect x="19" y="22" width="26" height="4" fill="#FF7A90"/>
  <rect x="17" y="26" width="30" height="16" fill="#FF7A90"/>
  <rect x="19" y="42" width="26" height="6" fill="#A83D51"/>
  <rect x="24" y="48" width="16" height="5" fill="#A83D51"/>
  <rect x="21" y="24" width="22" height="18" fill="#16213E"/>
  <rect x="23" y="26" width="18" height="14" fill="#0D1530"/>
  <rect x="17" y="29" width="2" height="12" fill="#FF9AA8"/>
  <rect x="45" y="29" width="2" height="12" fill="#FF9AA8"/>
  <rect x="28" y="49" width="8" height="2" fill="#FF9AA8"/>
  <rect x="25" y="31" width="3" height="4" fill="#E8ECF8"/>
  <rect x="36" y="31" width="3" height="4" fill="#E8ECF8"/>
  <rect x="26" y="32" width="1" height="1" fill="#72F2C7"/>
  <rect x="37" y="32" width="1" height="1" fill="#72F2C7"/>
  <rect x="30" y="40" width="4" height="4" fill="#0D1530"/>
  <rect x="31" y="41" width="2" height="2" fill="#FF7A90"/>
  <rect x="11" y="30" width="5" height="10" fill="#070A18"/>
  <rect x="48" y="30" width="5" height="10" fill="#070A18"/>
  <rect x="12" y="31" width="3" height="7" fill="#A83D51"/>
  <rect x="49" y="31" width="3" height="7" fill="#A83D51"/>
  <rect x="24" y="52" width="5" height="5" fill="#070A18"/>
  <rect x="35" y="52" width="5" height="5" fill="#070A18"/>
  <rect x="25" y="52" width="3" height="2" fill="#A83D51"/>
  <rect x="36" y="52" width="3" height="2" fill="#A83D51"/>
  <rect x="7" y="29" width="10" height="18" fill="#0D1530"/>
  <rect x="9" y="31" width="6" height="14" fill="#FF7A90"/>
  <rect x="10" y="33" width="4" height="8" fill="#0D1530"/>
  <rect x="46" y="24" width="10" height="4" fill="#FF7A90" opacity="0.8"/>
  <rect x="48" y="28" width="6" height="4" fill="#FF7A90" opacity="0.5"/>
</g>
<g transform="translate(256,0)">
  <rect x="18" y="55" width="28" height="4" fill="#0D1530" opacity="0.42"/>
  <rect x="29" y="8" width="6" height="6" fill="#0D1530"/>
  <rect x="31" y="6" width="2" height="2" fill="#FF7A90"/>
  <rect x="21" y="17" width="22" height="4" fill="#070A18"/>
  <rect x="17" y="21" width="30" height="4" fill="#070A18"/>
  <rect x="15" y="25" width="34" height="20" fill="#070A18"/>
  <rect x="17" y="45" width="30" height="4" fill="#070A18"/>
  <rect x="21" y="49" width="22" height="5" fill="#070A18"/>
  <rect x="22" y="18" width="20" height="4" fill="#FF9AA8"/>
  <rect x="19" y="22" width="26" height="4" fill="#FF7A90"/>
  <rect x="17" y="26" width="30" height="16" fill="#FF7A90"/>
  <rect x="19" y="42" width="26" height="6" fill="#A83D51"/>
  <rect x="24" y="48" width="16" height="5" fill="#A83D51"/>
  <rect x="21" y="24" width="22" height="18" fill="#16213E"/>
  <rect x="23" y="26" width="18" height="14" fill="#0D1530"/>
  <rect x="17" y="29" width="2" height="12" fill="#FF9AA8"/>
  <rect x="45" y="29" width="2" height="12" fill="#FF9AA8"/>
  <rect x="28" y="49" width="8" height="2" fill="#FF9AA8"/>
  <rect x="25" y="31" width="3" height="3" fill="#E8ECF8"/>
  <rect x="36" y="31" width="3" height="3" fill="#E8ECF8"/>
  <rect x="29" y="39" width="6" height="2" fill="#0D1530"/>
  <rect x="31" y="40" width="2" height="1" fill="#FF9AA8"/>
  <rect x="11" y="34" width="5" height="10" fill="#070A18"/>
  <rect x="48" y="34" width="5" height="10" fill="#070A18"/>
  <rect x="12" y="35" width="3" height="7" fill="#A83D51"/>
  <rect x="49" y="35" width="3" height="7" fill="#A83D51"/>
  <rect x="24" y="52" width="5" height="5" fill="#070A18"/>
  <rect x="35" y="52" width="5" height="5" fill="#070A18"/>
  <rect x="25" y="52" width="3" height="2" fill="#A83D51"/>
  <rect x="36" y="52" width="3" height="2" fill="#A83D51"/>
  <rect x="48" y="22" width="3" height="10" fill="#72F2C7"/>
  <rect x="51" y="29" width="7" height="3" fill="#72F2C7"/>
</g>
<g transform="translate(320,0)">
  <rect x="18" y="55" width="28" height="4" fill="#0D1530" opacity="0.42"/>
  <rect x="29" y="8" width="6" height="6" fill="#0D1530"/>
  <rect x="31" y="6" width="2" height="2" fill="#FF7A90"/>
  <rect x="21" y="17" width="22" height="4" fill="#070A18"/>
  <rect x="17" y="21" width="30" height="4" fill="#070A18"/>
  <rect x="15" y="25" width="34" height="20" fill="#070A18"/>
  <rect x="17" y="45" width="30" height="4" fill="#070A18"/>
  <rect x="21" y="49" width="22" height="5" fill="#070A18"/>
  <rect x="22" y="18" width="20" height="4" fill="#FF9AA8"/>
  <rect x="19" y="22" width="26" height="4" fill="#FF7A90"/>
  <rect x="17" y="26" width="30" height="16" fill="#FF7A90"/>
  <rect x="19" y="42" width="26" height="6" fill="#A83D51"/>
  <rect x="24" y="48" width="16" height="5" fill="#A83D51"/>
  <rect x="21" y="24" width="22" height="18" fill="#16213E"/>
  <rect x="23" y="26" width="18" height="14" fill="#0D1530"/>
  <rect x="17" y="29" width="2" height="12" fill="#FF9AA8"/>
  <rect x="45" y="29" width="2" height="12" fill="#FF9AA8"/>
  <rect x="28" y="49" width="8" height="2" fill="#FF9AA8"/>
  <rect x="25" y="31" width="3" height="4" fill="#E8ECF8"/>
  <rect x="36" y="31" width="3" height="4" fill="#E8ECF8"/>
  <rect x="26" y="32" width="1" height="1" fill="#FF7A90"/>
  <rect x="37" y="32" width="1" height="1" fill="#FF7A90"/>
  <rect x="30" y="40" width="4" height="2" fill="#0D1530"/>
  <rect x="11" y="34" width="5" height="10" fill="#070A18"/>
  <rect x="48" y="34" width="5" height="10" fill="#070A18"/>
  <rect x="12" y="35" width="3" height="7" fill="#A83D51"/>
  <rect x="49" y="35" width="3" height="7" fill="#A83D51"/>
  <rect x="24" y="52" width="5" height="5" fill="#070A18"/>
  <rect x="35" y="52" width="5" height="5" fill="#070A18"/>
  <rect x="25" y="52" width="3" height="2" fill="#A83D51"/>
  <rect x="36" y="52" width="3" height="2" fill="#A83D51"/>
  <rect x="8" y="18" width="48" height="1" fill="#FF7A90" opacity="0.35"/>
  <rect x="12" y="22" width="40" height="1" fill="#FF7A90" opacity="0.25"/>
  <rect x="16" y="26" width="32" height="1" fill="#FF7A90" opacity="0.18"/>
</g>
</svg>
