<svg xmlns="http://www.w3.org/2000/svg" width="390" height="844" viewBox="0 0 390 844" fill="none" shape-rendering="crispEdges" >

  <defs>
    <filter id="glow" x="-60%" y="-60%" width="220%" height="220%"><feGaussianBlur stdDeviation="6" result="b"/><feMerge><feMergeNode in="b"/><feMergeNode in="SourceGraphic"/></feMerge></filter>
    <filter id="smallGlow" x="-80%" y="-80%" width="260%" height="260%"><feGaussianBlur stdDeviation="2" result="b"/><feMerge><feMergeNode in="b"/><feMergeNode in="SourceGraphic"/></feMerge></filter>
    <radialGradient id="bg" cx="50%" cy="30%" r="78%"><stop offset="0" stop-color="#A78BFA" stop-opacity="0.17"/><stop offset="45%" stop-color="#0D1530" stop-opacity="0.92"/><stop offset="100%" stop-color="#070A18"/></radialGradient>
  </defs>
<rect width="390" height="844" fill="url(#bg)"/><rect x="20" y="128" width="2" height="2" fill="#8D98B8" opacity="0.48"/><rect x="332" y="120" width="2" height="2" fill="#72F2C7" opacity="0.48"/><rect x="74" y="230" width="2" height="2" fill="#A78BFA" opacity="0.48"/><rect x="320" y="330" width="2" height="2" fill="#FFD166" opacity="0.48"/><rect x="44" y="592" width="2" height="2" fill="#72F2C7" opacity="0.48"/><rect x="355" y="642" width="2" height="2" fill="#8D98B8" opacity="0.48"/><rect x="116" y="760" width="2" height="2" fill="#FFD166" opacity="0.48"/><rect x="244" y="204" width="2" height="2" fill="#8D98B8" opacity="0.48"/><rect x="182" y="618" width="2" height="2" fill="#FF9FD6" opacity="0.48"/>

  <rect x="16" y="50" width="44" height="44" rx="14" fill="#0D1530" stroke="#8D98B8" stroke-opacity="0.28"/>
  <path d="M42 62L32 72L42 82" stroke="#E8ECF8" stroke-width="3"/>
  <text x="78" y="72" text-anchor="start" font-family="NanumGothic, Noto Sans CJK KR, DejaVu Sans, sans-serif" font-size="22" font-weight="600" fill="#E8ECF8" shape-rendering="geometricPrecision">밝아진 동네</text>
  <text x="78" y="96" text-anchor="start" font-family="NanumGothic, Noto Sans CJK KR, DejaVu Sans, sans-serif" font-size="11" font-weight="500" fill="#8D98B8" shape-rendering="geometricPrecision">영역별 연결 강도를 쉽게 살펴봐요.</text>
  <rect x="20" y="128" width="350" height="110" rx="22" fill="#0D1530" fill-opacity="0.78" stroke="#72F2C7" stroke-opacity="0.28"/>
  <text x="40" y="164" text-anchor="start" font-family="NanumGothic, Noto Sans CJK KR, DejaVu Sans, sans-serif" font-size="18" font-weight="600" fill="#E8ECF8" shape-rendering="geometricPrecision">지식 동네</text>
  <text x="40" y="190" text-anchor="start" font-family="NanumGothic, Noto Sans CJK KR, DejaVu Sans, sans-serif" font-size="12" font-weight="600" fill="#FFD166" shape-rendering="geometricPrecision">최근 조각 18개 · 공상 작업실과 가까움</text>
  <rect x="40" y="208" width="268" height="8" rx="4" fill="#243056"/><rect x="40" y="208" width="206" height="8" rx="4" fill="#72F2C7"/>
  <rect x="20" y="262" width="350" height="98" rx="22" fill="#0D1530" fill-opacity="0.78" stroke="#8D98B8" stroke-opacity="0.18"/>
  <text x="40" y="296" text-anchor="start" font-family="NanumGothic, Noto Sans CJK KR, DejaVu Sans, sans-serif" font-size="14" font-weight="600" fill="#E8ECF8" shape-rendering="geometricPrecision">최근 연결 이유</text>
  <text x="40" y="324" text-anchor="start" font-family="NanumGothic, Noto Sans CJK KR, DejaVu Sans, sans-serif" font-size="12" font-weight="500" fill="#8D98B8" shape-rendering="geometricPrecision">저장한 링크와 메모가 “만드는 나” 카드와 자주 이어졌어요.</text>
  <rect x="20" y="384" width="350" height="210" rx="24" fill="#0D1530" fill-opacity="0.78" stroke="#8D98B8" stroke-opacity="0.18"/>
  <text x="40" y="418" text-anchor="start" font-family="NanumGothic, Noto Sans CJK KR, DejaVu Sans, sans-serif" font-size="14" font-weight="600" fill="#E8ECF8" shape-rendering="geometricPrecision">연결된 나의 모습</text>
  <rect x="40" y="446" width="310" height="44" rx="16" fill="#16213E" stroke="#A78BFA" stroke-opacity="0.28"/><text x="62" y="474" text-anchor="start" font-family="NanumGothic, Noto Sans CJK KR, DejaVu Sans, sans-serif" font-size="13" font-weight="600" fill="#E8ECF8" shape-rendering="geometricPrecision">만드는 나</text><text x="292" y="474" text-anchor="middle" font-family="NanumGothic, Noto Sans CJK KR, DejaVu Sans, sans-serif" font-size="12" font-weight="600" fill="#FFD166" shape-rendering="geometricPrecision">12 조각</text>
  <rect x="40" y="504" width="310" height="44" rx="16" fill="#16213E" stroke="#72F2C7" stroke-opacity="0.28"/><text x="62" y="532" text-anchor="start" font-family="NanumGothic, Noto Sans CJK KR, DejaVu Sans, sans-serif" font-size="13" font-weight="600" fill="#E8ECF8" shape-rendering="geometricPrecision">정리하는 나</text><text x="292" y="532" text-anchor="middle" font-family="NanumGothic, Noto Sans CJK KR, DejaVu Sans, sans-serif" font-size="12" font-weight="600" fill="#72F2C7" shape-rendering="geometricPrecision">8 조각</text>
  <rect x="20" y="618" width="350" height="124" rx="24" fill="#0D1530" fill-opacity="0.78" stroke="#FFD166" stroke-opacity="0.2"/>
  <text x="40" y="652" text-anchor="start" font-family="NanumGothic, Noto Sans CJK KR, DejaVu Sans, sans-serif" font-size="14" font-weight="600" fill="#E8ECF8" shape-rendering="geometricPrecision">이 동네에서 온 조각</text>
  <path d="M56 676L65 686L60 698L46 693L49 681Z" fill="#16213E" stroke="#FFD166" stroke-width="2"/><rect x="54" y="684" width="4" height="4" fill="#FFD166" filter="url(#tinyGlow)"/><text x="82" y="690" text-anchor="start" font-family="NanumGothic, Noto Sans CJK KR, DejaVu Sans, sans-serif" font-size="12" font-weight="600" fill="#E8ECF8" shape-rendering="geometricPrecision">앱 디자인 메모</text>
  <path d="M56 708L65 718L60 730L46 725L49 713Z" fill="#16213E" stroke="#72F2C7" stroke-width="2"/><rect x="54" y="716" width="4" height="4" fill="#72F2C7" filter="url(#tinyGlow)"/><text x="82" y="722" text-anchor="start" font-family="NanumGothic, Noto Sans CJK KR, DejaVu Sans, sans-serif" font-size="12" font-weight="600" fill="#E8ECF8" shape-rendering="geometricPrecision">AI 친구 캐릭터 아이디어</text>
</svg>