<svg xmlns="http://www.w3.org/2000/svg" width="390" height="844" viewBox="0 0 390 844" fill="none" shape-rendering="crispEdges" >

  <defs>
    <filter id="glow" x="-60%" y="-60%" width="220%" height="220%"><feGaussianBlur stdDeviation="6" result="b"/><feMerge><feMergeNode in="b"/><feMergeNode in="SourceGraphic"/></feMerge></filter>
    <filter id="smallGlow" x="-80%" y="-80%" width="260%" height="260%"><feGaussianBlur stdDeviation="2" result="b"/><feMerge><feMergeNode in="b"/><feMergeNode in="SourceGraphic"/></feMerge></filter>
    <radialGradient id="bg" cx="50%" cy="30%" r="78%"><stop offset="0" stop-color="#A78BFA" stop-opacity="0.17"/><stop offset="45%" stop-color="#0D1530" stop-opacity="0.92"/><stop offset="100%" stop-color="#070A18"/></radialGradient>
  </defs>
<rect width="390" height="844" fill="url(#bg)"/><rect x="20" y="128" width="2" height="2" fill="#8D98B8" opacity="0.48"/><rect x="332" y="120" width="2" height="2" fill="#72F2C7" opacity="0.48"/><rect x="74" y="230" width="2" height="2" fill="#A78BFA" opacity="0.48"/><rect x="320" y="330" width="2" height="2" fill="#FFD166" opacity="0.48"/><rect x="44" y="592" width="2" height="2" fill="#72F2C7" opacity="0.48"/><rect x="355" y="642" width="2" height="2" fill="#8D98B8" opacity="0.48"/><rect x="116" y="760" width="2" height="2" fill="#FFD166" opacity="0.48"/><rect x="244" y="204" width="2" height="2" fill="#8D98B8" opacity="0.48"/><rect x="182" y="618" width="2" height="2" fill="#FF9FD6" opacity="0.48"/>

  <rect x="16" y="50" width="44" height="44" rx="14" fill="#0D1530" stroke="#8D98B8" stroke-opacity="0.28"/>
  <path d="M42 62L32 72L42 82" stroke="#E8ECF8" stroke-width="3"/>
  <text x="78" y="72" text-anchor="start" font-family="NanumGothic, Noto Sans CJK KR, DejaVu Sans, sans-serif" font-size="22" font-weight="600" fill="#E8ECF8" shape-rendering="geometricPrecision">만드는 나</text>
  <text x="78" y="96" text-anchor="start" font-family="NanumGothic, Noto Sans CJK KR, DejaVu Sans, sans-serif" font-size="11" font-weight="500" fill="#8D98B8" shape-rendering="geometricPrecision">이 모습이 어떤 방식으로 움직이는지 봐요.</text>
  <rect x="20" y="128" width="350" height="128" rx="24" fill="#0D1530" fill-opacity="0.78" stroke="#A78BFA" stroke-opacity="0.28"/>
  <rect x="40" y="156" width="58" height="58" rx="18" fill="#16213E" stroke="#A78BFA" stroke-opacity="0.5"/>
  <rect x="57" y="174" width="7" height="6" fill="#E8ECF8"/><rect x="75" y="174" width="7" height="6" fill="#E8ECF8"/><rect x="61" y="192" width="16" height="4" fill="#72F2C7"/>
  <text x="116" y="166" text-anchor="start" font-family="NanumGothic, Noto Sans CJK KR, DejaVu Sans, sans-serif" font-size="20" font-weight="600" fill="#E8ECF8" shape-rendering="geometricPrecision">만드는 나</text>
  <text x="116" y="194" text-anchor="start" font-family="NanumGothic, Noto Sans CJK KR, DejaVu Sans, sans-serif" font-size="12" font-weight="500" fill="#8D98B8" shape-rendering="geometricPrecision">조각을 구조로 바꾸는 모습</text>
  <text x="116" y="220" text-anchor="start" font-family="NanumGothic, Noto Sans CJK KR, DejaVu Sans, sans-serif" font-size="12" font-weight="700" fill="#FFD166" shape-rendering="geometricPrecision">연결된 조각 23개</text>
  <rect x="20" y="282" width="350" height="310" rx="24" fill="#0D1530" fill-opacity="0.78" stroke="#8D98B8" stroke-opacity="0.18"/>
  <text x="40" y="316" text-anchor="start" font-family="NanumGothic, Noto Sans CJK KR, DejaVu Sans, sans-serif" font-size="14" font-weight="600" fill="#E8ECF8" shape-rendering="geometricPrecision">5필드 카드</text>
  <rect x="40" y="342" width="310" height="38" rx="14" fill="#16213E"/><text x="58" y="366" font-size="12" fill="#72F2C7" font-weight="700" font-family="Pretendard, system-ui">who</text><text x="120" y="366" text-anchor="start" font-family="NanumGothic, Noto Sans CJK KR, DejaVu Sans, sans-serif" font-size="12" font-weight="500" fill="#E8ECF8" shape-rendering="geometricPrecision">복잡한 걸 구조로 바꾸는 사람</text>
  <rect x="40" y="392" width="310" height="38" rx="14" fill="#16213E"/><text x="58" y="416" font-size="12" fill="#72F2C7" font-weight="700" font-family="Pretendard, system-ui">for whom</text><text x="150" y="416" text-anchor="start" font-family="NanumGothic, Noto Sans CJK KR, DejaVu Sans, sans-serif" font-size="12" font-weight="500" fill="#E8ECF8" shape-rendering="geometricPrecision">나와 팀이 다시 쓸 수 있게</text>
  <rect x="40" y="442" width="310" height="38" rx="14" fill="#16213E"/><text x="58" y="466" font-size="12" fill="#72F2C7" font-weight="700" font-family="Pretendard, system-ui">goal</text><text x="120" y="466" text-anchor="start" font-family="NanumGothic, Noto Sans CJK KR, DejaVu Sans, sans-serif" font-size="12" font-weight="500" fill="#E8ECF8" shape-rendering="geometricPrecision">다음 구현으로 떨어뜨리기</text>
  <rect x="40" y="492" width="310" height="38" rx="14" fill="#16213E"/><text x="58" y="516" font-size="12" fill="#72F2C7" font-weight="700" font-family="Pretendard, system-ui">do</text><text x="120" y="516" text-anchor="start" font-family="NanumGothic, Noto Sans CJK KR, DejaVu Sans, sans-serif" font-size="12" font-weight="500" fill="#E8ECF8" shape-rendering="geometricPrecision">분해하고 이름 붙이고 연결하기</text>
  <rect x="40" y="542" width="310" height="38" rx="14" fill="#16213E"/><text x="58" y="566" font-size="12" fill="#72F2C7" font-weight="700" font-family="Pretendard, system-ui">fuel</text><text x="120" y="566" text-anchor="start" font-family="NanumGothic, Noto Sans CJK KR, DejaVu Sans, sans-serif" font-size="12" font-weight="500" fill="#E8ECF8" shape-rendering="geometricPrecision">귀여움과 완성도</text>
  <rect x="20" y="618" width="350" height="96" rx="22" fill="#0D1530" fill-opacity="0.78" stroke="#A78BFA" stroke-opacity="0.2"/>
  <text x="40" y="652" text-anchor="start" font-family="NanumGothic, Noto Sans CJK KR, DejaVu Sans, sans-serif" font-size="14" font-weight="600" fill="#E8ECF8" shape-rendering="geometricPrecision">이 모습으로 세컨비에게 묻기</text>
  <text x="40" y="678" text-anchor="start" font-family="NanumGothic, Noto Sans CJK KR, DejaVu Sans, sans-serif" font-size="12" font-weight="500" fill="#8D98B8" shape-rendering="geometricPrecision">이 카드와 연결된 조각을 먼저 참고해요.</text>
</svg>