<svg xmlns="http://www.w3.org/2000/svg" width="390" height="844" viewBox="0 0 390 844" fill="none" shape-rendering="crispEdges" >

  <defs>
    <filter id="glow" x="-60%" y="-60%" width="220%" height="220%"><feGaussianBlur stdDeviation="6" result="b"/><feMerge><feMergeNode in="b"/><feMergeNode in="SourceGraphic"/></feMerge></filter>
    <filter id="smallGlow" x="-80%" y="-80%" width="260%" height="260%"><feGaussianBlur stdDeviation="2" result="b"/><feMerge><feMergeNode in="b"/><feMergeNode in="SourceGraphic"/></feMerge></filter>
    <radialGradient id="bg" cx="50%" cy="30%" r="78%"><stop offset="0" stop-color="#A78BFA" stop-opacity="0.17"/><stop offset="45%" stop-color="#0D1530" stop-opacity="0.92"/><stop offset="100%" stop-color="#070A18"/></radialGradient>
  </defs>
<rect width="390" height="844" fill="url(#bg)"/><rect x="20" y="128" width="2" height="2" fill="#8D98B8" opacity="0.48"/><rect x="332" y="120" width="2" height="2" fill="#72F2C7" opacity="0.48"/><rect x="74" y="230" width="2" height="2" fill="#A78BFA" opacity="0.48"/><rect x="320" y="330" width="2" height="2" fill="#FFD166" opacity="0.48"/><rect x="44" y="592" width="2" height="2" fill="#72F2C7" opacity="0.48"/><rect x="355" y="642" width="2" height="2" fill="#8D98B8" opacity="0.48"/><rect x="116" y="760" width="2" height="2" fill="#FFD166" opacity="0.48"/><rect x="244" y="204" width="2" height="2" fill="#8D98B8" opacity="0.48"/><rect x="182" y="618" width="2" height="2" fill="#FF9FD6" opacity="0.48"/>

  <rect x="16" y="50" width="44" height="44" rx="14" fill="#0D1530" stroke="#8D98B8" stroke-opacity="0.28"/>
  <path d="M42 62L32 72L42 82" stroke="#E8ECF8" stroke-width="3"/>
  <text x="78" y="72" text-anchor="start" font-family="NanumGothic, Noto Sans CJK KR, DejaVu Sans, sans-serif" font-size="22" font-weight="600" fill="#E8ECF8" shape-rendering="geometricPrecision">나의 중심</text>
  <text x="78" y="96" text-anchor="start" font-family="NanumGothic, Noto Sans CJK KR, DejaVu Sans, sans-serif" font-size="11" font-weight="500" fill="#8D98B8" shape-rendering="geometricPrecision">요즘 자주 이어지는 조각들을 살펴봐요.</text>
  <rect x="36" y="130" width="318" height="218" rx="28" fill="#0D1530" fill-opacity="0.78" stroke="#A78BFA" stroke-opacity="0.28"/>
  <circle cx="195" cy="236" r="82" fill="#A78BFA" opacity="0.11" filter="url(#glow)"/>
  <path d="M195 236 C130 182 110 286 76 214M195 236 C260 176 280 288 320 210M195 236 C154 302 238 318 195 336" stroke="#243056" stroke-width="3"/>
  <path d="M195 236 C260 176 280 288 320 210" stroke="#72F2C7" stroke-width="3" filter="url(#smallGlow)"/>
  <g transform="translate(195 236) scale(0.76)">
      <circle cx="0" cy="0" r="48" fill="url(#coreGlow)" opacity="0.8"/>
      <rect x="-32" y="22" width="64" height="10" fill="#243056" opacity="0.95"/>
      <rect x="-24" y="10" width="48" height="14" fill="#16213E" stroke="#A78BFA" stroke-opacity="0.45"/>
      <rect x="-17" y="-12" width="34" height="22" fill="#16213E" stroke="#72F2C7" stroke-opacity="0.45"/>
      <rect x="-7" y="-30" width="14" height="18" fill="#A78BFA" filter="url(#tinyGlow)"/>
      <rect x="-2" y="-44" width="4" height="12" fill="#FFD166" filter="url(#tinyGlow)"/>
      <rect x="-11" y="-4" width="5" height="5" fill="#E8ECF8" opacity="0.9"/>
      <rect x="6" y="-4" width="5" height="5" fill="#E8ECF8" opacity="0.9"/>
      <rect x="-5" y="8" width="10" height="4" fill="#72F2C7"/>
    </g><path d="M76 204L85 214L80 226L66 221L69 209Z" fill="#16213E" stroke="#FFD166" stroke-width="2"/><rect x="74" y="212" width="4" height="4" fill="#FFD166" filter="url(#tinyGlow)"/><path d="M320 200L329 210L324 222L310 217L313 205Z" fill="#16213E" stroke="#72F2C7" stroke-width="2"/><rect x="318" y="208" width="4" height="4" fill="#72F2C7" filter="url(#tinyGlow)"/><path d="M195 326L204 336L199 348L185 343L188 331Z" fill="#16213E" stroke="#FF9FD6" stroke-width="2"/><rect x="193" y="334" width="4" height="4" fill="#FF9FD6" filter="url(#tinyGlow)"/>
  <rect x="20" y="376" width="350" height="112" rx="22" fill="#0D1530" fill-opacity="0.78" stroke="#72F2C7" stroke-opacity="0.24"/>
  <text x="40" y="410" text-anchor="start" font-family="NanumGothic, Noto Sans CJK KR, DejaVu Sans, sans-serif" font-size="14" font-weight="600" fill="#E8ECF8" shape-rendering="geometricPrecision">요즘 가장 밝은 연결</text>
  <text x="40" y="438" text-anchor="start" font-family="NanumGothic, Noto Sans CJK KR, DejaVu Sans, sans-serif" font-size="13" font-weight="700" fill="#FFD166" shape-rendering="geometricPrecision">공상 작업실 · 지식 창고 · 만드는 나</text>
  <text x="40" y="464" text-anchor="start" font-family="NanumGothic, Noto Sans CJK KR, DejaVu Sans, sans-serif" font-size="12" font-weight="500" fill="#8D98B8" shape-rendering="geometricPrecision">최근 기록들이 아이디어 구체화 쪽으로 이어졌어요.</text>
  <rect x="20" y="512" width="350" height="122" rx="22" fill="#0D1530" fill-opacity="0.78" stroke="#8D98B8" stroke-opacity="0.2"/>
  <text x="40" y="546" text-anchor="start" font-family="NanumGothic, Noto Sans CJK KR, DejaVu Sans, sans-serif" font-size="14" font-weight="600" fill="#E8ECF8" shape-rendering="geometricPrecision">자주 보이는 나의 모습</text>
  <rect x="40" y="568" width="96" height="38" rx="14" fill="#A78BFA" opacity="0.18" stroke="#A78BFA" stroke-opacity="0.4"/><text x="88" y="592" text-anchor="middle" font-family="NanumGothic, Noto Sans CJK KR, DejaVu Sans, sans-serif" font-size="12" font-weight="600" fill="#E8ECF8" shape-rendering="geometricPrecision">만드는 나</text>
  <rect x="146" y="568" width="96" height="38" rx="14" fill="#72F2C7" opacity="0.13" stroke="#72F2C7" stroke-opacity="0.38"/><text x="194" y="592" text-anchor="middle" font-family="NanumGothic, Noto Sans CJK KR, DejaVu Sans, sans-serif" font-size="12" font-weight="600" fill="#E8ECF8" shape-rendering="geometricPrecision">정리하는 나</text>
  <rect x="252" y="568" width="88" height="38" rx="14" fill="#4CC9F0" opacity="0.14" stroke="#4CC9F0" stroke-opacity="0.38"/><text x="296" y="592" text-anchor="middle" font-family="NanumGothic, Noto Sans CJK KR, DejaVu Sans, sans-serif" font-size="12" font-weight="600" fill="#E8ECF8" shape-rendering="geometricPrecision">배우는 나</text>
  <rect x="20" y="658" width="350" height="78" rx="22" fill="#0D1530" fill-opacity="0.78" stroke="#A78BFA" stroke-opacity="0.26"/>
  <text x="40" y="690" text-anchor="start" font-family="NanumGothic, Noto Sans CJK KR, DejaVu Sans, sans-serif" font-size="14" font-weight="600" fill="#E8ECF8" shape-rendering="geometricPrecision">세컨비에게 이 중심으로 묻기</text>
  <text x="40" y="716" text-anchor="start" font-family="NanumGothic, Noto Sans CJK KR, DejaVu Sans, sans-serif" font-size="12" font-weight="500" fill="#8D98B8" shape-rendering="geometricPrecision">내 조각을 먼저 참고해서 답해요.</text>
  <path d="M330 690L340 697L330 704" stroke="#72F2C7" stroke-width="3"/>
  <text x="195" y="818" text-anchor="middle" font-family="NanumGothic, Noto Sans CJK KR, DejaVu Sans, sans-serif" font-size="10" font-weight="500" fill="#8D98B8" shape-rendering="geometricPrecision">Core Overview / 390×844</text>
</svg>