<svg xmlns="http://www.w3.org/2000/svg" viewBox="0 0 64 64" shape-rendering="crispEdges" role="img" aria-label="SecondB happy">
  <title>SecondB happy</title>
  <rect x="20" y="54" width="24" height="4" fill="#0D1530" opacity="0.38"/>
  <rect x="31" y="10" width="2" height="8" fill="#243056"/>
  <rect x="29" y="6" width="6" height="6" fill="#0D1530"/>
  <rect x="31" y="8" width="2" height="2" fill="#72F2C7"/>
  <rect x="27" y="4" width="2" height="2" fill="#72F2C7" opacity="0.74"/>
  <rect x="35" y="4" width="2" height="2" fill="#72F2C7" opacity="0.74"/>
  <rect x="22" y="16" width="20" height="4" fill="#0D1530"/>
  <rect x="18" y="20" width="28" height="4" fill="#0D1530"/>
  <rect x="16" y="24" width="32" height="22" fill="#0D1530"/>
  <rect x="18" y="46" width="28" height="4" fill="#0D1530"/>
  <rect x="22" y="50" width="20" height="4" fill="#0D1530"/>
  <rect x="22" y="20" width="20" height="4" fill="#C4B5FD"/>
  <rect x="20" y="24" width="24" height="4" fill="#A78BFA"/>
  <rect x="18" y="28" width="28" height="16" fill="#A78BFA"/>
  <rect x="20" y="44" width="24" height="4" fill="#5B4BB7"/>
  <rect x="24" y="48" width="16" height="2" fill="#5B4BB7"/>
  <rect x="22" y="27" width="20" height="12" fill="#16213E"/>
  <rect x="24" y="29" width="16" height="8" fill="#0D1530"/>
  <rect x="24" y="32" width="2" height="2" fill="#E8ECF8"/>
  <rect x="26" y="30" width="2" height="2" fill="#E8ECF8"/>
  <rect x="28" y="32" width="2" height="2" fill="#E8ECF8"/>
  <rect x="34" y="32" width="2" height="2" fill="#E8ECF8"/>
  <rect x="36" y="30" width="2" height="2" fill="#E8ECF8"/>
  <rect x="38" y="32" width="2" height="2" fill="#E8ECF8"/>
  <rect x="29" y="40" width="6" height="5" fill="#0D1530"/>
  <rect x="31" y="41" width="2" height="2" fill="#FFD166"/>
  <rect x="30" y="43" width="4" height="1" fill="#FFD166" opacity="0.8"/>
  <rect x="29" y="36" width="6" height="1" fill="#E8ECF8"/>
  <rect x="28" y="35" width="1" height="1" fill="#E8ECF8"/>
  <rect x="35" y="35" width="1" height="1" fill="#E8ECF8"/>
  <rect x="12" y="33" width="4" height="10" fill="#0D1530"/>
  <rect x="48" y="33" width="4" height="10" fill="#0D1530"/>
  <rect x="13" y="34" width="2" height="7" fill="#5B4BB7"/>
  <rect x="49" y="34" width="2" height="7" fill="#5B4BB7"/>
  <rect x="24" y="53" width="5" height="4" fill="#0D1530"/>
  <rect x="35" y="53" width="5" height="4" fill="#0D1530"/>
  <rect x="25" y="53" width="3" height="2" fill="#5B4BB7"/>
  <rect x="36" y="53" width="3" height="2" fill="#5B4BB7"/>
  <rect x="9" y="12" width="2" height="2" fill="#FFD166"/>
  <rect x="11" y="10" width="2" height="2" fill="#FFD166"/>
  <rect x="13" y="12" width="2" height="2" fill="#FFD166"/>
  <rect x="11" y="14" width="2" height="2" fill="#FFD166"/>
  <rect x="49" y="47" width="2" height="2" fill="#72F2C7"/>
  <rect x="51" y="45" width="2" height="2" fill="#72F2C7"/>
  <rect x="53" y="47" width="2" height="2" fill="#72F2C7"/>
  <rect x="51" y="49" width="2" height="2" fill="#72F2C7"/>
</svg>
