<svg xmlns="http://www.w3.org/2000/svg" width="390" height="844" viewBox="0 0 390 844" fill="none" shape-rendering="crispEdges" >

    <defs>
      <filter id="glow" x="-60%" y="-60%" width="220%" height="220%"><feGaussianBlur stdDeviation="5" result="b"/><feMerge><feMergeNode in="b"/><feMergeNode in="SourceGraphic"/></feMerge></filter>
      <filter id="smallGlow" x="-80%" y="-80%" width="260%" height="260%"><feGaussianBlur stdDeviation="2" result="b"/><feMerge><feMergeNode in="b"/><feMergeNode in="SourceGraphic"/></feMerge></filter>
      <radialGradient id="bg" cx="50%" cy="35%" r="75%"><stop offset="0" stop-color="#A78BFA" stop-opacity="0.18"/><stop offset="45%" stop-color="#0D1530" stop-opacity="0.85"/><stop offset="100%" stop-color="#070A18"/></radialGradient>
    </defs>
<rect width="390" height="844" fill="url(#bg)"/><rect x="22" y="122" width="2" height="2" fill="#8D98B8" opacity="0.5"/><rect x="333" y="128" width="2" height="2" fill="#72F2C7" opacity="0.5"/><rect x="74" y="222" width="2" height="2" fill="#A78BFA" opacity="0.5"/><rect x="324" y="346" width="2" height="2" fill="#FFD166" opacity="0.5"/><rect x="43" y="593" width="2" height="2" fill="#72F2C7" opacity="0.5"/><rect x="357" y="646" width="2" height="2" fill="#8D98B8" opacity="0.5"/><rect x="122" y="738" width="2" height="2" fill="#FFD166" opacity="0.5"/><rect x="246" y="202" width="2" height="2" fill="#8D98B8" opacity="0.5"/><rect x="183" y="610" width="2" height="2" fill="#FF9FD6" opacity="0.5"/>
  <rect x="330" y="46" width="44" height="44" rx="14" fill="#0D1530" stroke="#8D98B8" stroke-opacity="0.28"/>
  <path d="M352 56V62M352 74V80M342 68H348M356 68H362" stroke="#8D98B8" stroke-width="3"/>
  <rect x="16" y="50" width="304" height="58" rx="18" fill="#0D1530" fill-opacity="0.86" stroke="#A78BFA" stroke-opacity="0.3"/>
  <text x="36" y="74" text-anchor="start" font-family="NanumSquareRound, Noto Sans CJK KR, Noto Sans CJK, DejaVu Sans, sans-serif" font-size="13" font-weight="600" fill="#E8ECF8" shape-rendering="geometricPrecision">오늘의 중심</text>
  <text x="36" y="96" text-anchor="start" font-family="NanumSquareRound, Noto Sans CJK KR, Noto Sans CJK, DejaVu Sans, sans-serif" font-size="11" font-weight="500" fill="#8D98B8" shape-rendering="geometricPrecision">기록들이 공상 작업실과 연결됐어요.</text>
  <path d="M195 412 C145.5 332, 145.5 326, 96 246" stroke="#243056" stroke-width="2" stroke-linecap="square" opacity="0.62"/><path d="M195 412 C244.5 332, 244.5 316, 294 236" stroke="#72F2C7" stroke-width="3" stroke-linecap="square" opacity="0.88" filter="url(#smallGlow)"/><path d="M195 412 C138.5 332, 138.5 640, 82 560" stroke="#243056" stroke-width="2" stroke-linecap="square" opacity="0.62"/><path d="M195 412 C250.0 332, 250.0 650, 305 570" stroke="#FFD166" stroke-width="3" stroke-linecap="square" opacity="0.88" filter="url(#smallGlow)"/>
  <rect x="154.0" y="371.0" width="82" height="82" rx="22" fill="#16213E" stroke="#72F2C7" stroke-width="3" filter="url(#glow)"/><rect x="179" y="394" width="32" height="36" rx="8" fill="#A78BFA" opacity="0.85"/><rect x="191" y="376" width="8" height="12" fill="#FFD166" filter="url(#smallGlow)"/><text x="195" y="471.0" text-anchor="middle" font-family="NanumSquareRound, Noto Sans CJK KR, Noto Sans CJK, DejaVu Sans, sans-serif" font-size="11" font-weight="600" fill="#E8ECF8" shape-rendering="geometricPrecision">나의 중심</text>
  <rect x="65.0" y="215.0" width="62" height="62" rx="18" fill="#16213E" stroke="#4CC9F0" stroke-width="2"/><path d="M78 256 L96 231 L114 256 V270 H78Z" fill="#0D1530" stroke="#4CC9F0" stroke-opacity="0.45"/><text x="96" y="295.0" text-anchor="middle" font-family="NanumSquareRound, Noto Sans CJK KR, Noto Sans CJK, DejaVu Sans, sans-serif" font-size="11" font-weight="600" fill="#E8ECF8" shape-rendering="geometricPrecision">기록</text>
  <rect x="263.0" y="205.0" width="62" height="62" rx="18" fill="#16213E" stroke="#72F2C7" stroke-width="2"/><path d="M276 246 L294 221 L312 246 V260 H276Z" fill="#0D1530" stroke="#72F2C7" stroke-opacity="0.45"/><text x="294" y="285.0" text-anchor="middle" font-family="NanumSquareRound, Noto Sans CJK KR, Noto Sans CJK, DejaVu Sans, sans-serif" font-size="11" font-weight="600" fill="#E8ECF8" shape-rendering="geometricPrecision">지식</text>
  <rect x="51.0" y="529.0" width="62" height="62" rx="18" fill="#16213E" stroke="#4CC9F0" stroke-width="2"/><path d="M64 570 L82 545 L100 570 V584 H64Z" fill="#0D1530" stroke="#4CC9F0" stroke-opacity="0.45"/><text x="82" y="609.0" text-anchor="middle" font-family="NanumSquareRound, Noto Sans CJK KR, Noto Sans CJK, DejaVu Sans, sans-serif" font-size="11" font-weight="600" fill="#E8ECF8" shape-rendering="geometricPrecision">관계</text>
  <rect x="274.0" y="539.0" width="62" height="62" rx="18" fill="#16213E" stroke="#4CC9F0" stroke-width="2"/><path d="M287 580 L305 555 L323 580 V594 H287Z" fill="#0D1530" stroke="#4CC9F0" stroke-opacity="0.45"/><text x="305" y="619.0" text-anchor="middle" font-family="NanumSquareRound, Noto Sans CJK KR, Noto Sans CJK, DejaVu Sans, sans-serif" font-size="11" font-weight="600" fill="#E8ECF8" shape-rendering="geometricPrecision">공상</text>
  <rect x="192.0" y="584.0" width="48" height="48" rx="14" fill="#0D1530" stroke="#A78BFA" stroke-opacity="0.72" stroke-width="2"/><rect x="204" y="599" width="7" height="6" fill="#E8ECF8"/><rect x="221" y="599" width="7" height="6" fill="#E8ECF8"/><rect x="208" y="616" width="16" height="4" fill="#72F2C7"/><text x="216" y="650.0" text-anchor="middle" font-family="NanumSquareRound, Noto Sans CJK KR, Noto Sans CJK, DejaVu Sans, sans-serif" font-size="11" font-weight="600" fill="#E8ECF8" shape-rendering="geometricPrecision">만드는 나</text>
  <path d="M138 584L148 596L142 610L126 604L129 591Z" fill="#16213E" stroke="#FFD166" stroke-width="2"/>
  <path d="M267 478L277 490L271 504L255 498L258 485Z" fill="#16213E" stroke="#FFD166" stroke-width="2"/>
  <g transform="translate(292,405) scale(0.9)">
      <rect x="-18" y="-20" width="36" height="40" rx="9" fill="#A78BFA" stroke="#070A18" stroke-width="3"/>
      <rect x="-9" y="-5" width="5" height="5" fill="#E8ECF8"/>
      <rect x="5" y="-5" width="5" height="5" fill="#E8ECF8"/>
      <rect x="-5" y="8" width="10" height="4" fill="#72F2C7"/>
      <rect x="-3" y="-32" width="6" height="10" fill="#FFD166" filter="url(#smallGlow)"/>
    </g>
  <rect x="306" y="746" width="66" height="66" rx="22" fill="#16213E" stroke="#72F2C7" stroke-opacity="0.44" filter="url(#smallGlow)"/>
  <g transform="translate(339,779) scale(0.72)">
      <rect x="-18" y="-20" width="36" height="40" rx="9" fill="#A78BFA" stroke="#070A18" stroke-width="3"/>
      <rect x="-9" y="-5" width="5" height="5" fill="#E8ECF8"/>
      <rect x="5" y="-5" width="5" height="5" fill="#E8ECF8"/>
      <rect x="-5" y="8" width="10" height="4" fill="#72F2C7"/>
      <rect x="-3" y="-32" width="6" height="10" fill="#FFD166" filter="url(#smallGlow)"/>
    </g>
  <rect x="18" y="742" width="72" height="72" rx="20" fill="#0D1530" fill-opacity="0.65" stroke="#8D98B8" stroke-opacity="0.22"/>
  <path d="M54 778L38 762M54 778L70 764M54 778L42 794M54 778L68 794" stroke="#243056" stroke-width="2"/><rect x="50" y="774" width="8" height="8" fill="#A78BFA"/>
  <text x="195" y="832" text-anchor="middle" font-family="NanumSquareRound, Noto Sans CJK KR, Noto Sans CJK, DejaVu Sans, sans-serif" font-size="10" font-weight="500" fill="#8D98B8" shape-rendering="geometricPrecision">Main Graph Mobile / 390×844</text>
</svg>