<svg xmlns="http://www.w3.org/2000/svg" width="390" height="844" viewBox="0 0 390 844" fill="none" shape-rendering="crispEdges" >

    <defs>
      <filter id="glow" x="-60%" y="-60%" width="220%" height="220%"><feGaussianBlur stdDeviation="5" result="b"/><feMerge><feMergeNode in="b"/><feMergeNode in="SourceGraphic"/></feMerge></filter>
      <filter id="smallGlow" x="-80%" y="-80%" width="260%" height="260%"><feGaussianBlur stdDeviation="2" result="b"/><feMerge><feMergeNode in="b"/><feMergeNode in="SourceGraphic"/></feMerge></filter>
      <radialGradient id="bg" cx="50%" cy="35%" r="75%"><stop offset="0" stop-color="#A78BFA" stop-opacity="0.18"/><stop offset="45%" stop-color="#0D1530" stop-opacity="0.85"/><stop offset="100%" stop-color="#070A18"/></radialGradient>
    </defs>
<rect width="390" height="844" fill="url(#bg)"/><rect x="22" y="122" width="2" height="2" fill="#8D98B8" opacity="0.5"/><rect x="333" y="128" width="2" height="2" fill="#72F2C7" opacity="0.5"/><rect x="74" y="222" width="2" height="2" fill="#A78BFA" opacity="0.5"/><rect x="324" y="346" width="2" height="2" fill="#FFD166" opacity="0.5"/><rect x="43" y="593" width="2" height="2" fill="#72F2C7" opacity="0.5"/><rect x="357" y="646" width="2" height="2" fill="#8D98B8" opacity="0.5"/><rect x="122" y="738" width="2" height="2" fill="#FFD166" opacity="0.5"/><rect x="246" y="202" width="2" height="2" fill="#8D98B8" opacity="0.5"/><rect x="183" y="610" width="2" height="2" fill="#FF9FD6" opacity="0.5"/>
  <rect x="16" y="50" width="358" height="58" rx="18" fill="#0D1530" fill-opacity="0.86" stroke="#72F2C7" stroke-opacity="0.28"/>
  <text x="36" y="74" text-anchor="start" font-family="NanumSquareRound, Noto Sans CJK KR, Noto Sans CJK, DejaVu Sans, sans-serif" font-size="13" font-weight="600" fill="#E8ECF8" shape-rendering="geometricPrecision">지식 동네 확대</text>
  <text x="36" y="96" text-anchor="start" font-family="NanumSquareRound, Noto Sans CJK KR, Noto Sans CJK, DejaVu Sans, sans-serif" font-size="11" font-weight="500" fill="#8D98B8" shape-rendering="geometricPrecision">작은 조각과 나의 모습까지 보여요.</text>
  <path d="M197 398 C151.5 318, 151.5 328, 106 248" stroke="#72F2C7" stroke-width="3" stroke-linecap="square" opacity="0.88" filter="url(#smallGlow)"/><path d="M197 398 C245.5 318, 245.5 332, 294 252" stroke="#72F2C7" stroke-width="3" stroke-linecap="square" opacity="0.88" filter="url(#smallGlow)"/><path d="M197 398 C154.5 318, 154.5 632, 112 552" stroke="#243056" stroke-width="2" stroke-linecap="square" opacity="0.62"/><path d="M197 398 C240.5 318, 240.5 640, 284 560" stroke="#243056" stroke-width="2" stroke-linecap="square" opacity="0.62"/>
  <rect x="166.0" y="367.0" width="62" height="62" rx="18" fill="#16213E" stroke="#72F2C7" stroke-width="2"/><path d="M179 408 L197 383 L215 408 V422 H179Z" fill="#0D1530" stroke="#72F2C7" stroke-opacity="0.45"/><text x="197" y="447.0" text-anchor="middle" font-family="NanumSquareRound, Noto Sans CJK KR, Noto Sans CJK, DejaVu Sans, sans-serif" font-size="11" font-weight="600" fill="#E8ECF8" shape-rendering="geometricPrecision">지식</text>
  <rect x="82.0" y="224.0" width="48" height="48" rx="14" fill="#0D1530" stroke="#A78BFA" stroke-opacity="0.72" stroke-width="2"/><rect x="94" y="239" width="7" height="6" fill="#E8ECF8"/><rect x="111" y="239" width="7" height="6" fill="#E8ECF8"/><rect x="98" y="256" width="16" height="4" fill="#72F2C7"/><text x="106" y="290.0" text-anchor="middle" font-family="NanumSquareRound, Noto Sans CJK KR, Noto Sans CJK, DejaVu Sans, sans-serif" font-size="11" font-weight="600" fill="#E8ECF8" shape-rendering="geometricPrecision">배우는 나</text>
  <rect x="270.0" y="228.0" width="48" height="48" rx="14" fill="#0D1530" stroke="#A78BFA" stroke-opacity="0.72" stroke-width="2"/><rect x="282" y="243" width="7" height="6" fill="#E8ECF8"/><rect x="299" y="243" width="7" height="6" fill="#E8ECF8"/><rect x="286" y="260" width="16" height="4" fill="#72F2C7"/><text x="294" y="294.0" text-anchor="middle" font-family="NanumSquareRound, Noto Sans CJK KR, Noto Sans CJK, DejaVu Sans, sans-serif" font-size="11" font-weight="600" fill="#E8ECF8" shape-rendering="geometricPrecision">정리하는 나</text>
  <rect x="88.0" y="528.0" width="48" height="48" rx="14" fill="#0D1530" stroke="#A78BFA" stroke-opacity="0.72" stroke-width="2"/><rect x="100" y="543" width="7" height="6" fill="#E8ECF8"/><rect x="117" y="543" width="7" height="6" fill="#E8ECF8"/><rect x="104" y="560" width="16" height="4" fill="#72F2C7"/><text x="112" y="594.0" text-anchor="middle" font-family="NanumSquareRound, Noto Sans CJK KR, Noto Sans CJK, DejaVu Sans, sans-serif" font-size="11" font-weight="600" fill="#E8ECF8" shape-rendering="geometricPrecision">설명하는 나</text>
  <rect x="260.0" y="536.0" width="48" height="48" rx="14" fill="#0D1530" stroke="#A78BFA" stroke-opacity="0.72" stroke-width="2"/><rect x="272" y="551" width="7" height="6" fill="#E8ECF8"/><rect x="289" y="551" width="7" height="6" fill="#E8ECF8"/><rect x="276" y="568" width="16" height="4" fill="#72F2C7"/><text x="284" y="602.0" text-anchor="middle" font-family="NanumSquareRound, Noto Sans CJK KR, Noto Sans CJK, DejaVu Sans, sans-serif" font-size="11" font-weight="600" fill="#E8ECF8" shape-rendering="geometricPrecision">만드는 나</text>
  <path d="M68 180L78 192L72 206L56 200L59 187Z" fill="#16213E" stroke="#FFD166" stroke-width="2"/><path d="M148 208L158 220L152 234L136 228L139 215Z" fill="#16213E" stroke="#FFD166" stroke-width="2"/><path d="M335 198L345 210L339 224L323 218L326 205Z" fill="#16213E" stroke="#FFD166" stroke-width="2"/><path d="M250 172L260 184L254 198L238 192L241 179Z" fill="#16213E" stroke="#FFD166" stroke-width="2"/><path d="M326 606L336 618L330 632L314 626L317 613Z" fill="#16213E" stroke="#FFD166" stroke-width="2"/><path d="M72 606L82 618L76 632L60 626L63 613Z" fill="#16213E" stroke="#FFD166" stroke-width="2"/>
  <rect x="308" y="744" width="64" height="64" rx="22" fill="#16213E" stroke="#72F2C7" stroke-opacity="0.44"/>
  <g transform="translate(340,777) scale(0.7)">
      <rect x="-18" y="-20" width="36" height="40" rx="9" fill="#A78BFA" stroke="#070A18" stroke-width="3"/>
      <rect x="-9" y="-5" width="5" height="5" fill="#E8ECF8"/>
      <rect x="5" y="-5" width="5" height="5" fill="#E8ECF8"/>
      <rect x="-5" y="8" width="10" height="4" fill="#72F2C7"/>
      <rect x="-3" y="-32" width="6" height="10" fill="#FFD166" filter="url(#smallGlow)"/>
    </g>
</svg>