<svg xmlns="http://www.w3.org/2000/svg" width="390" height="844" viewBox="0 0 390 844" fill="none" shape-rendering="crispEdges" >

    <defs>
      <filter id="glow" x="-60%" y="-60%" width="220%" height="220%"><feGaussianBlur stdDeviation="5" result="b"/><feMerge><feMergeNode in="b"/><feMergeNode in="SourceGraphic"/></feMerge></filter>
      <filter id="smallGlow" x="-80%" y="-80%" width="260%" height="260%"><feGaussianBlur stdDeviation="2" result="b"/><feMerge><feMergeNode in="b"/><feMergeNode in="SourceGraphic"/></feMerge></filter>
      <radialGradient id="bg" cx="50%" cy="35%" r="75%"><stop offset="0" stop-color="#A78BFA" stop-opacity="0.18"/><stop offset="45%" stop-color="#0D1530" stop-opacity="0.85"/><stop offset="100%" stop-color="#070A18"/></radialGradient>
    </defs>
<rect width="390" height="844" fill="url(#bg)"/><rect x="22" y="122" width="2" height="2" fill="#8D98B8" opacity="0.5"/><rect x="333" y="128" width="2" height="2" fill="#72F2C7" opacity="0.5"/><rect x="74" y="222" width="2" height="2" fill="#A78BFA" opacity="0.5"/><rect x="324" y="346" width="2" height="2" fill="#FFD166" opacity="0.5"/><rect x="43" y="593" width="2" height="2" fill="#72F2C7" opacity="0.5"/><rect x="357" y="646" width="2" height="2" fill="#8D98B8" opacity="0.5"/><rect x="122" y="738" width="2" height="2" fill="#FFD166" opacity="0.5"/><rect x="246" y="202" width="2" height="2" fill="#8D98B8" opacity="0.5"/><rect x="183" y="610" width="2" height="2" fill="#FF9FD6" opacity="0.5"/>
  <rect x="16" y="50" width="44" height="44" rx="14" fill="#0D1530" stroke="#8D98B8" stroke-opacity="0.28"/>
  <path d="M42 62L32 72L42 82" stroke="#E8ECF8" stroke-width="3"/>
  <text x="78" y="78" text-anchor="start" font-family="NanumSquareRound, Noto Sans CJK KR, Noto Sans CJK, DejaVu Sans, sans-serif" font-size="22" font-weight="600" fill="#E8ECF8" shape-rendering="geometricPrecision">나의 중심</text>
  <rect x="36" y="128" width="318" height="220" rx="28" fill="#0D1530" fill-opacity="0.74" stroke="#A78BFA" stroke-opacity="0.28"/>
  <circle cx="195" cy="230" r="82" fill="#A78BFA" opacity="0.12" filter="url(#glow)"/>
  <path d="M195 230 C159.5 150, 159.5 260, 124 180" stroke="#72F2C7" stroke-width="3" stroke-linecap="square" opacity="0.88" filter="url(#smallGlow)"/><path d="M195 230 C230.5 150, 230.5 260, 266 180" stroke="#72F2C7" stroke-width="3" stroke-linecap="square" opacity="0.88" filter="url(#smallGlow)"/><path d="M195 230 C157.5 150, 157.5 364, 120 284" stroke="#243056" stroke-width="2" stroke-linecap="square" opacity="0.62"/><path d="M195 230 C232.5 150, 232.5 366, 270 286" stroke="#FFD166" stroke-width="3" stroke-linecap="square" opacity="0.88" filter="url(#smallGlow)"/>
  <rect x="154.0" y="189.0" width="82" height="82" rx="22" fill="#16213E" stroke="#72F2C7" stroke-width="3" filter="url(#glow)"/><rect x="179" y="212" width="32" height="36" rx="8" fill="#A78BFA" opacity="0.85"/><rect x="191" y="194" width="8" height="12" fill="#FFD166" filter="url(#smallGlow)"/><path d="M124 168L134 180L128 194L112 188L115 175Z" fill="#16213E" stroke="#FFD166" stroke-width="2"/><path d="M266 168L276 180L270 194L254 188L257 175Z" fill="#16213E" stroke="#FFD166" stroke-width="2"/><path d="M120 272L130 284L124 298L108 292L111 279Z" fill="#16213E" stroke="#FFD166" stroke-width="2"/><path d="M270 274L280 286L274 300L258 294L261 281Z" fill="#16213E" stroke="#FFD166" stroke-width="2"/>
  <rect x="20" y="376" width="350" height="112" rx="22" fill="#0D1530" stroke="#8D98B8" stroke-opacity="0.22"/>
  <text x="40" y="410" text-anchor="start" font-family="NanumSquareRound, Noto Sans CJK KR, Noto Sans CJK, DejaVu Sans, sans-serif" font-size="14" font-weight="600" fill="#E8ECF8" shape-rendering="geometricPrecision">요즘 가장 밝은 연결</text>
  <text x="40" y="438" text-anchor="start" font-family="NanumSquareRound, Noto Sans CJK KR, Noto Sans CJK, DejaVu Sans, sans-serif" font-size="13" font-weight="600" fill="#FFD166" shape-rendering="geometricPrecision">공상 작업실 · 지식 창고 · 만드는 나</text>
  <text x="40" y="464" text-anchor="start" font-family="NanumSquareRound, Noto Sans CJK KR, Noto Sans CJK, DejaVu Sans, sans-serif" font-size="12" font-weight="500" fill="#8D98B8" shape-rendering="geometricPrecision">최근 기록들이 아이디어 구체화 쪽으로 이어졌어요.</text>
  <rect x="20" y="512" width="350" height="128" rx="22" fill="#0D1530" stroke="#8D98B8" stroke-opacity="0.22"/>
  <text x="40" y="546" text-anchor="start" font-family="NanumSquareRound, Noto Sans CJK KR, Noto Sans CJK, DejaVu Sans, sans-serif" font-size="14" font-weight="600" fill="#E8ECF8" shape-rendering="geometricPrecision">자주 보이는 나의 모습</text>
  <rect x="40" y="568" width="96" height="38" rx="14" fill="#A78BFA" opacity="0.18" stroke="#A78BFA" stroke-opacity="0.4"/><text x="88" y="592" text-anchor="middle" font-family="NanumSquareRound, Noto Sans CJK KR, Noto Sans CJK, DejaVu Sans, sans-serif" font-size="12" font-weight="600" fill="#E8ECF8" shape-rendering="geometricPrecision">만드는 나</text>
  <rect x="146" y="568" width="96" height="38" rx="14" fill="#72F2C7" opacity="0.13" stroke="#72F2C7" stroke-opacity="0.38"/><text x="194" y="592" text-anchor="middle" font-family="NanumSquareRound, Noto Sans CJK KR, Noto Sans CJK, DejaVu Sans, sans-serif" font-size="12" font-weight="600" fill="#E8ECF8" shape-rendering="geometricPrecision">정리하는 나</text>
  <rect x="252" y="568" width="88" height="38" rx="14" fill="#4CC9F0" opacity="0.14" stroke="#4CC9F0" stroke-opacity="0.38"/><text x="296" y="592" text-anchor="middle" font-family="NanumSquareRound, Noto Sans CJK KR, Noto Sans CJK, DejaVu Sans, sans-serif" font-size="12" font-weight="600" fill="#E8ECF8" shape-rendering="geometricPrecision">배우는 나</text>
  <rect x="20" y="664" width="350" height="88" rx="22" fill="#0D1530" stroke="#A78BFA" stroke-opacity="0.28"/>
  <text x="40" y="696" text-anchor="start" font-family="NanumSquareRound, Noto Sans CJK KR, Noto Sans CJK, DejaVu Sans, sans-serif" font-size="14" font-weight="600" fill="#E8ECF8" shape-rendering="geometricPrecision">세컨비에게 이 중심으로 물어보기</text>
  <text x="40" y="724" text-anchor="start" font-family="NanumSquareRound, Noto Sans CJK KR, Noto Sans CJK, DejaVu Sans, sans-serif" font-size="12" font-weight="500" fill="#8D98B8" shape-rendering="geometricPrecision">내 기록과 연결된 답으로 돌아와요.</text>
</svg>