<svg xmlns="http://www.w3.org/2000/svg" width="390" height="844" viewBox="0 0 390 844" fill="none" shape-rendering="crispEdges" >

  <defs>
    <filter id="glow" x="-60%" y="-60%" width="220%" height="220%"><feGaussianBlur stdDeviation="6" result="b"/><feMerge><feMergeNode in="b"/><feMergeNode in="SourceGraphic"/></feMerge></filter>
    <filter id="smallGlow" x="-80%" y="-80%" width="260%" height="260%"><feGaussianBlur stdDeviation="2" result="b"/><feMerge><feMergeNode in="b"/><feMergeNode in="SourceGraphic"/></feMerge></filter>
    <radialGradient id="bg" cx="50%" cy="30%" r="78%"><stop offset="0" stop-color="#FF9FD6" stop-opacity="0.15"/><stop offset="34%" stop-color="#A78BFA" stop-opacity="0.10"/><stop offset="62%" stop-color="#0D1530" stop-opacity="0.88"/><stop offset="100%" stop-color="#070A18"/></radialGradient>
    <radialGradient id="dreamGlow" cx="50%" cy="50%" r="60%"><stop offset="0" stop-color="#FF9FD6" stop-opacity="0.72"/><stop offset="52%" stop-color="#A78BFA" stop-opacity="0.26"/><stop offset="100%" stop-color="#FF9FD6" stop-opacity="0"/></radialGradient>
  </defs>
<rect width="390" height="844" fill="url(#bg)"/><rect x="22" y="118" width="2" height="2" fill="#8D98B8" opacity="0.48"/><rect x="340" y="126" width="2" height="2" fill="#72F2C7" opacity="0.48"/><rect x="78" y="238" width="2" height="2" fill="#A78BFA" opacity="0.48"/><rect x="320" y="330" width="2" height="2" fill="#FFD166" opacity="0.48"/><rect x="42" y="592" width="2" height="2" fill="#72F2C7" opacity="0.48"/><rect x="355" y="642" width="2" height="2" fill="#8D98B8" opacity="0.48"/><rect x="116" y="760" width="2" height="2" fill="#FFD166" opacity="0.48"/><rect x="244" y="204" width="2" height="2" fill="#8D98B8" opacity="0.48"/><rect x="182" y="618" width="2" height="2" fill="#FF9FD6" opacity="0.48"/><rect x="32" y="410" width="2" height="2" fill="#FF9FD6" opacity="0.48"/><rect x="350" y="520" width="2" height="2" fill="#4CC9F0" opacity="0.48"/>

  <rect x="16" y="50" width="44" height="44" rx="14" fill="#0D1530" stroke="#8D98B8" stroke-opacity="0.28"/>
  <path d="M42 62L32 72L42 82" stroke="#E8ECF8" stroke-width="3"/>
  <text x="78" y="72" text-anchor="start" font-family="Pretendard, system-ui, -apple-system, Segoe UI, sans-serif" font-size="22" font-weight="600" fill="#E8ECF8" shape-rendering="geometricPrecision">공상 저장</text>
  <text x="78" y="96" text-anchor="start" font-family="Pretendard, system-ui, -apple-system, Segoe UI, sans-serif" font-size="11" font-weight="500" fill="#8D98B8" shape-rendering="geometricPrecision">공상 조각이 그래프에 이어졌어요.</text>
  <rect x="336" y="54" width="38" height="38" rx="13" fill="#0D1530" stroke="#FF9FD6" stroke-opacity="0.32"/>
  <path d="M355 62L359 72L369 76L359 80L355 90L351 80L341 76L351 72Z" fill="#FF9FD6" opacity="0.88"/>

  <rect x="20" y="142" width="350" height="126" rx="24" fill="#0D1530" fill-opacity="0.78" stroke="#FFD166" stroke-opacity="0.28"/>
  <g transform="translate(58 205) scale(1.1)"><path d="M0 -12L11 -1L5 13L-10 8L-7 -6Z" fill="#16213E" stroke="#FF9FD6" stroke-width="2"/><rect x="-2" y="-2" width="4" height="4" fill="#FF9FD6" filter="url(#tinyGlow)"/></g>
  <text x="92" y="192" text-anchor="start" font-family="Pretendard, system-ui, -apple-system, Segoe UI, sans-serif" font-size="13" font-weight="700" fill="#FF9FD6" shape-rendering="geometricPrecision">새 공상 조각</text>
  <text x="92" y="218" text-anchor="start" font-family="Pretendard, system-ui, -apple-system, Segoe UI, sans-serif" font-size="15" font-weight="600" fill="#E8ECF8" shape-rendering="geometricPrecision">밤빛 그래프 마을의 첫 장면</text>
  <text x="92" y="242" text-anchor="start" font-family="Pretendard, system-ui, -apple-system, Segoe UI, sans-serif" font-size="12" font-weight="500" fill="#8D98B8" shape-rendering="geometricPrecision">공상 작업실 → 나의 중심에 연결됨</text>
  <rect x="20" y="306" width="350" height="190" rx="26" fill="#0D1530" fill-opacity="0.78" stroke="#72F2C7" stroke-opacity="0.22"/>
  <path d="M82 400 C132 356 150 438 196 398 C240 356 258 438 308 398" stroke="#243056" stroke-width="4"/>
  <path d="M196 398 C240 356 258 438 308 398" stroke="#72F2C7" stroke-width="3" filter="url(#smallGlow)"/>
  <g transform="translate(82 400) scale(0.88)"><path d="M0 -12L11 -1L5 13L-10 8L-7 -6Z" fill="#16213E" stroke="#FF9FD6" stroke-width="2"/><rect x="-2" y="-2" width="4" height="4" fill="#FF9FD6" filter="url(#tinyGlow)"/></g><g transform="translate(196 398) scale(0.88)"><path d="M0 -12L11 -1L5 13L-10 8L-7 -6Z" fill="#16213E" stroke="#FFD166" stroke-width="2"/><rect x="-2" y="-2" width="4" height="4" fill="#FFD166" filter="url(#tinyGlow)"/></g><g transform="translate(308 398) scale(0.88)"><path d="M0 -12L11 -1L5 13L-10 8L-7 -6Z" fill="#16213E" stroke="#72F2C7" stroke-width="2"/><rect x="-2" y="-2" width="4" height="4" fill="#72F2C7" filter="url(#tinyGlow)"/></g>
  <text x="195" y="472" text-anchor="middle" font-family="Pretendard, system-ui, -apple-system, Segoe UI, sans-serif" font-size="13" font-weight="600" fill="#E8ECF8" shape-rendering="geometricPrecision">공상 조각이 그래프에 연결됐어요.</text>
  <rect x="20" y="530" width="350" height="96" rx="22" fill="#0D1530" fill-opacity="0.78" stroke="#A78BFA" stroke-opacity="0.2"/>
  <text x="40" y="564" text-anchor="start" font-family="Pretendard, system-ui, -apple-system, Segoe UI, sans-serif" font-size="14" font-weight="600" fill="#E8ECF8" shape-rendering="geometricPrecision">다음에 할 수 있는 일</text>
  <text x="40" y="592" text-anchor="start" font-family="Pretendard, system-ui, -apple-system, Segoe UI, sans-serif" font-size="12" font-weight="500" fill="#8D98B8" shape-rendering="geometricPrecision">나의 중심에서 이 조각을 살펴보거나 세컨비에게 물어볼 수 있어요.</text>
  <rect x="20" y="660" width="164" height="56" rx="20" fill="#72F2C7" fill-opacity="0.14" stroke="#72F2C7" stroke-opacity="0.32"/><text x="102" y="695" text-anchor="middle" font-family="Pretendard, system-ui, -apple-system, Segoe UI, sans-serif" font-size="14" font-weight="600" fill="#E8ECF8" shape-rendering="geometricPrecision">그래프로 보기</text>
  <rect x="206" y="660" width="164" height="56" rx="20" fill="#A78BFA" fill-opacity="0.16" stroke="#A78BFA" stroke-opacity="0.34"/><text x="288" y="695" text-anchor="middle" font-family="Pretendard, system-ui, -apple-system, Segoe UI, sans-serif" font-size="14" font-weight="600" fill="#E8ECF8" shape-rendering="geometricPrecision">세컨비에게 묻기</text>
</svg>