<svg xmlns="http://www.w3.org/2000/svg" width="390" height="844" viewBox="0 0 390 844" fill="none" shape-rendering="crispEdges" >

  <defs>
    <filter id="glow" x="-60%" y="-60%" width="220%" height="220%"><feGaussianBlur stdDeviation="6" result="b"/><feMerge><feMergeNode in="b"/><feMergeNode in="SourceGraphic"/></feMerge></filter>
    <filter id="smallGlow" x="-80%" y="-80%" width="260%" height="260%"><feGaussianBlur stdDeviation="2" result="b"/><feMerge><feMergeNode in="b"/><feMergeNode in="SourceGraphic"/></feMerge></filter>
    <radialGradient id="bg" cx="50%" cy="30%" r="78%"><stop offset="0" stop-color="#FF9FD6" stop-opacity="0.15"/><stop offset="34%" stop-color="#A78BFA" stop-opacity="0.10"/><stop offset="62%" stop-color="#0D1530" stop-opacity="0.88"/><stop offset="100%" stop-color="#070A18"/></radialGradient>
    <radialGradient id="dreamGlow" cx="50%" cy="50%" r="60%"><stop offset="0" stop-color="#FF9FD6" stop-opacity="0.72"/><stop offset="52%" stop-color="#A78BFA" stop-opacity="0.26"/><stop offset="100%" stop-color="#FF9FD6" stop-opacity="0"/></radialGradient>
  </defs>
<rect width="390" height="844" fill="url(#bg)"/><rect x="22" y="118" width="2" height="2" fill="#8D98B8" opacity="0.48"/><rect x="340" y="126" width="2" height="2" fill="#72F2C7" opacity="0.48"/><rect x="78" y="238" width="2" height="2" fill="#A78BFA" opacity="0.48"/><rect x="320" y="330" width="2" height="2" fill="#FFD166" opacity="0.48"/><rect x="42" y="592" width="2" height="2" fill="#72F2C7" opacity="0.48"/><rect x="355" y="642" width="2" height="2" fill="#8D98B8" opacity="0.48"/><rect x="116" y="760" width="2" height="2" fill="#FFD166" opacity="0.48"/><rect x="244" y="204" width="2" height="2" fill="#8D98B8" opacity="0.48"/><rect x="182" y="618" width="2" height="2" fill="#FF9FD6" opacity="0.48"/><rect x="32" y="410" width="2" height="2" fill="#FF9FD6" opacity="0.48"/><rect x="350" y="520" width="2" height="2" fill="#4CC9F0" opacity="0.48"/>

  <rect x="16" y="50" width="44" height="44" rx="14" fill="#0D1530" stroke="#8D98B8" stroke-opacity="0.28"/>
  <path d="M42 62L32 72L42 82" stroke="#E8ECF8" stroke-width="3"/>
  <text x="78" y="72" text-anchor="start" font-family="Pretendard, system-ui, -apple-system, Segoe UI, sans-serif" font-size="22" font-weight="600" fill="#E8ECF8" shape-rendering="geometricPrecision">공상 결과</text>
  <text x="78" y="96" text-anchor="start" font-family="Pretendard, system-ui, -apple-system, Segoe UI, sans-serif" font-size="11" font-weight="500" fill="#8D98B8" shape-rendering="geometricPrecision">장면으로 펼친 뒤 실행 가능한 크기로 접었어요.</text>
  <rect x="336" y="54" width="38" height="38" rx="13" fill="#0D1530" stroke="#FF9FD6" stroke-opacity="0.32"/>
  <path d="M355 62L359 72L369 76L359 80L355 90L351 80L341 76L351 72Z" fill="#FF9FD6" opacity="0.88"/>

  <rect x="20" y="126" width="350" height="56" rx="18" fill="#0D1530" fill-opacity="0.84" stroke="#8D98B8" stroke-opacity="0.18"/>
  <rect x="30" y="136" width="74" height="38" rx="14" fill="#FF9FD6" fill-opacity="0.18" stroke="#FF9FD6" stroke-opacity="0.34"/><text x="67" y="160" text-anchor="middle" font-family="Pretendard, system-ui, -apple-system, Segoe UI, sans-serif" font-size="12" font-weight="600" fill="#E8ECF8" shape-rendering="geometricPrecision">장면</text>
  <rect x="114" y="136" width="74" height="38" rx="14" fill="#16213E" stroke="#8D98B8" stroke-opacity="0.16"/><text x="151" y="160" text-anchor="middle" font-family="Pretendard, system-ui, -apple-system, Segoe UI, sans-serif" font-size="12" font-weight="600" fill="#8D98B8" shape-rendering="geometricPrecision">사물</text>
  <rect x="198" y="136" width="74" height="38" rx="14" fill="#16213E" stroke="#8D98B8" stroke-opacity="0.16"/><text x="235" y="160" text-anchor="middle" font-family="Pretendard, system-ui, -apple-system, Segoe UI, sans-serif" font-size="12" font-weight="600" fill="#8D98B8" shape-rendering="geometricPrecision">친구</text>
  <rect x="282" y="136" width="78" height="38" rx="14" fill="#16213E" stroke="#8D98B8" stroke-opacity="0.16"/><text x="321" y="160" text-anchor="middle" font-family="Pretendard, system-ui, -apple-system, Segoe UI, sans-serif" font-size="12" font-weight="600" fill="#8D98B8" shape-rendering="geometricPrecision">한 걸음</text>
  <rect x="20" y="204" width="350" height="188" rx="26" fill="#0D1530" fill-opacity="0.78" stroke="#FF9FD6" stroke-opacity="0.28"/>
  <rect x="42" y="232" width="84" height="94" rx="18" fill="#070A18" fill-opacity="0.34" stroke="#FF9FD6" stroke-opacity="0.26"/>
  <rect x="58" y="288" width="52" height="22" rx="8" fill="#16213E" stroke="#72F2C7" stroke-opacity="0.36"/>
  <rect x="73" y="262" width="22" height="28" rx="8" fill="#A78BFA"/>
  <rect x="80" y="272" width="4" height="4" fill="#E8ECF8"/><rect x="89" y="272" width="4" height="4" fill="#E8ECF8"/>
  <g transform="translate(122 246) scale(0.68)"><path d="M0 -12L11 -1L5 13L-10 8L-7 -6Z" fill="#16213E" stroke="#FFD166" stroke-width="2"/><rect x="-2" y="-2" width="4" height="4" fill="#FFD166" filter="url(#tinyGlow)"/></g>
  <text x="146" y="236" text-anchor="start" font-family="Pretendard, system-ui, -apple-system, Segoe UI, sans-serif" font-size="12" font-weight="700" fill="#FF9FD6" shape-rendering="geometricPrecision">장면 1</text>
  <text x="146" y="262" text-anchor="start" font-family="Pretendard, system-ui, -apple-system, Segoe UI, sans-serif" font-size="17" font-weight="600" fill="#E8ECF8" shape-rendering="geometricPrecision">첫 불빛</text>
  <text x="146" y="290" text-anchor="start" font-family="Pretendard, system-ui, -apple-system, Segoe UI, sans-serif" font-size="12" font-weight="500" fill="#8D98B8" shape-rendering="geometricPrecision">세컨비가 작은 조각을 들고</text>
  <text x="146" y="314" text-anchor="start" font-family="Pretendard, system-ui, -apple-system, Segoe UI, sans-serif" font-size="12" font-weight="500" fill="#8D98B8" shape-rendering="geometricPrecision">중심 길로 걸어가요.</text>
  <rect x="20" y="416" width="350" height="118" rx="24" fill="#0D1530" fill-opacity="0.78" stroke="#72F2C7" stroke-opacity="0.22"/>
  <text x="40" y="448" text-anchor="start" font-family="Pretendard, system-ui, -apple-system, Segoe UI, sans-serif" font-size="13" font-weight="700" fill="#72F2C7" shape-rendering="geometricPrecision">필요한 사물</text>
  <text x="40" y="474" text-anchor="start" font-family="Pretendard, system-ui, -apple-system, Segoe UI, sans-serif" font-size="16" font-weight="600" fill="#E8ECF8" shape-rendering="geometricPrecision">생각 조각 램프</text>
  <text x="40" y="500" text-anchor="start" font-family="Pretendard, system-ui, -apple-system, Segoe UI, sans-serif" font-size="12" font-weight="500" fill="#8D98B8" shape-rendering="geometricPrecision">기록이 연결될 때마다 작은 등불처럼 켜져요.</text>
  <rect x="20" y="558" width="350" height="118" rx="24" fill="#0D1530" fill-opacity="0.78" stroke="#72F2C7" stroke-opacity="0.34"/>
  <text x="40" y="590" text-anchor="start" font-family="Pretendard, system-ui, -apple-system, Segoe UI, sans-serif" font-size="13" font-weight="700" fill="#72F2C7" shape-rendering="geometricPrecision">다음 한 걸음</text>
  <text x="40" y="616" text-anchor="start" font-family="Pretendard, system-ui, -apple-system, Segoe UI, sans-serif" font-size="15" font-weight="600" fill="#E8ECF8" shape-rendering="geometricPrecision">3초 저장 애니메이션 초안 만들기</text>
  <text x="40" y="642" text-anchor="start" font-family="Pretendard, system-ui, -apple-system, Segoe UI, sans-serif" font-size="12" font-weight="500" fill="#8D98B8" shape-rendering="geometricPrecision">오늘 바로 만들 수 있는 크기로 접었어요.</text>
  <rect x="20" y="704" width="350" height="58" rx="22" fill="#FFD166" fill-opacity="0.14" stroke="#FFD166" stroke-opacity="0.42"/>
  <text x="195" y="740" text-anchor="middle" font-family="Pretendard, system-ui, -apple-system, Segoe UI, sans-serif" font-size="15" font-weight="700" fill="#E8ECF8" shape-rendering="geometricPrecision">마을에 공상 조각으로 저장</text>
</svg>