<svg xmlns="http://www.w3.org/2000/svg" viewBox="0 0 64 64" shape-rendering="crispEdges" role="img" aria-label="secondb_fab_chat_ready">
  <title>secondb_fab_chat_ready</title>
  <defs><filter id="softGlow" x="-40%" y="-40%" width="180%" height="180%"><feGaussianBlur stdDeviation="2" result="b"/><feMerge><feMergeNode in="b"/><feMergeNode in="SourceGraphic"/></feMerge></filter></defs>
  <rect x="2" y="2" width="60" height="60" fill="#16213E" rx="18"/>
  <rect x="3" y="3" width="58" height="58" rx="17" fill="none" stroke="#72F2C7" stroke-opacity="0.42" stroke-width="1"/>
  <circle cx="32" cy="34" r="24" fill="#72F2C7" opacity="0.14"/>
  <rect x="31" y="10" width="2" height="8" fill="#243056"/>
  <rect x="29" y="6" width="6" height="6" fill="#0D1530"/>
  <rect x="31" y="8" width="2" height="2" fill="#72F2C7"/>
  <rect x="27" y="4" width="2" height="2" fill="#72F2C7" opacity="0.74"/>
  <rect x="35" y="4" width="2" height="2" fill="#72F2C7" opacity="0.74"/>
  <rect x="22" y="16" width="20" height="4" fill="#0D1530"/>
  <rect x="18" y="20" width="28" height="4" fill="#0D1530"/>
  <rect x="16" y="24" width="32" height="22" fill="#0D1530"/>
  <rect x="18" y="46" width="28" height="4" fill="#0D1530"/>
  <rect x="22" y="50" width="20" height="4" fill="#0D1530"/>
  <rect x="22" y="20" width="20" height="4" fill="#C4B5FD"/>
  <rect x="20" y="24" width="24" height="4" fill="#A78BFA"/>
  <rect x="18" y="28" width="28" height="16" fill="#A78BFA"/>
  <rect x="20" y="44" width="24" height="4" fill="#5B4BB7"/>
  <rect x="24" y="48" width="16" height="2" fill="#5B4BB7"/>
  <rect x="22" y="27" width="20" height="12" fill="#16213E"/>
  <rect x="24" y="29" width="16" height="8" fill="#0D1530"/>
  <rect x="25" y="31" width="4" height="4" fill="#72F2C7"/>
  <rect x="35" y="31" width="4" height="4" fill="#72F2C7"/>
  <rect x="30" y="40" width="4" height="4" fill="#0D1530"/>
  <rect x="31" y="41" width="2" height="2" fill="#72F2C7"/>
  <rect x="12" y="33" width="4" height="10" fill="#0D1530"/>
  <rect x="48" y="31" width="4" height="8" fill="#0D1530"/>
  <rect x="13" y="34" width="2" height="7" fill="#5B4BB7"/>
  <rect x="49" y="32" width="2" height="5" fill="#C4B5FD"/>
  <rect x="24" y="53" width="5" height="4" fill="#0D1530"/>
  <rect x="35" y="53" width="5" height="4" fill="#0D1530"/>
  <rect x="25" y="53" width="3" height="2" fill="#5B4BB7"/>
  <rect x="36" y="53" width="3" height="2" fill="#5B4BB7"/>
</svg>
