<svg xmlns="http://www.w3.org/2000/svg" width="96" height="96" viewBox="0 0 96 96" fill="none" shape-rendering="crispEdges" role="img" aria-label="Narrative Core">
  <title>Narrative Core</title>
  <desc>Cosmic Pixel Graph Village v3 soulcore asset with named token fills.</desc>
  <defs>
  <style><![CDATA[
    .space950{fill:#070A18}.space900{fill:#0D1530}.space800{fill:#16213E}.space700{fill:#243056}
    .signalBlue{fill:#4CC9F0}.signalMint{fill:#72F2C7}.soulViolet{fill:#A78BFA}.pixelLamp{fill:#FFD166}
    .moonWhite{fill:#E8ECF8}.mistGray{fill:#8D98B8}.dreamPink{fill:#FF9FD6}
    .strokeSpace700{stroke:#243056}.strokeSignalBlue{stroke:#4CC9F0}.strokeSignalMint{stroke:#72F2C7}
    .strokeSoulViolet{stroke:#A78BFA}.strokePixelLamp{stroke:#FFD166}.strokeMoonWhite{stroke:#E8ECF8}.strokeDreamPink{stroke:#FF9FD6}
  ]]></style>
  <filter id="softGlow" x="-50%" y="-50%" width="200%" height="200%"><feGaussianBlur stdDeviation="5" result="blur"/><feMerge><feMergeNode in="blur"/><feMergeNode in="SourceGraphic"/></feMerge></filter>
  <filter id="tinyGlow" x="-70%" y="-70%" width="240%" height="240%"><feGaussianBlur stdDeviation="2" result="blur"/><feMerge><feMergeNode in="blur"/><feMergeNode in="SourceGraphic"/></feMerge></filter>
  <radialGradient id="violetCore" cx="50%" cy="50%" r="50%"><stop offset="0%" stop-color="#A78BFA" stop-opacity="0.95"/><stop offset="60%" stop-color="#A78BFA" stop-opacity="0.18"/><stop offset="100%" stop-color="#A78BFA" stop-opacity="0"/></radialGradient>
  <radialGradient id="mintGlow" cx="50%" cy="50%" r="50%"><stop offset="0%" stop-color="#72F2C7" stop-opacity="0.9"/><stop offset="100%" stop-color="#72F2C7" stop-opacity="0"/></radialGradient>
  <linearGradient id="nodeSurface" x1="0" y1="0" x2="1" y2="1"><stop offset="0" stop-color="#16213E"/><stop offset="1" stop-color="#0D1530"/></linearGradient>
</defs>
  <circle cx="48" cy="48" r="42" class="moonWhite" opacity="0.16"/>
  <path d="M48 14 L74 30 L74 64 L48 82 L22 64 L22 30 Z" fill="url(#nodeSurface)" class="strokeMoonWhite" stroke-width="2" stroke-opacity="0.65"/>
  <path d="M48 14 L48 82 M22 30 L74 64 M74 30 L22 64" class="strokeMoonWhite" stroke-width="2" opacity="0.35"/>
  <rect x="43" y="43" width="10" height="10" class="moonWhite" filter="url(#tinyGlow)"/>
  <rect x="35" y="58" width="8" height="8" class="space700"/>
  <rect x="58" y="34" width="6" height="6" class="mistGray" opacity="0.7"/>
  <rect x="10" y="46" width="4" height="4" class="moonWhite"/><rect x="82" y="46" width="4" height="4" class="moonWhite"/>
</svg>
