<svg xmlns="http://www.w3.org/2000/svg" width="128" height="128" viewBox="0 0 128 128" fill="none" shape-rendering="crispEdges" role="img" aria-label="Soul Core hero node">
  <title>Soul Core hero node</title>
  <desc>Cosmic Pixel Graph Village v3 soulcore asset with named token fills.</desc>
  <defs>
  <style><![CDATA[
    .space950{fill:#070A18}.space900{fill:#0D1530}.space800{fill:#16213E}.space700{fill:#243056}
    .signalBlue{fill:#4CC9F0}.signalMint{fill:#72F2C7}.soulViolet{fill:#A78BFA}.pixelLamp{fill:#FFD166}
    .moonWhite{fill:#E8ECF8}.mistGray{fill:#8D98B8}.dreamPink{fill:#FF9FD6}
    .strokeSpace700{stroke:#243056}.strokeSignalBlue{stroke:#4CC9F0}.strokeSignalMint{stroke:#72F2C7}
    .strokeSoulViolet{stroke:#A78BFA}.strokePixelLamp{stroke:#FFD166}.strokeMoonWhite{stroke:#E8ECF8}.strokeDreamPink{stroke:#FF9FD6}
  ]]></style>
  <filter id="softGlow" x="-50%" y="-50%" width="200%" height="200%"><feGaussianBlur stdDeviation="5" result="blur"/><feMerge><feMergeNode in="blur"/><feMergeNode in="SourceGraphic"/></feMerge></filter>
  <filter id="tinyGlow" x="-70%" y="-70%" width="240%" height="240%"><feGaussianBlur stdDeviation="2" result="blur"/><feMerge><feMergeNode in="blur"/><feMergeNode in="SourceGraphic"/></feMerge></filter>
  <radialGradient id="violetCore" cx="50%" cy="50%" r="50%"><stop offset="0%" stop-color="#A78BFA" stop-opacity="0.95"/><stop offset="60%" stop-color="#A78BFA" stop-opacity="0.18"/><stop offset="100%" stop-color="#A78BFA" stop-opacity="0"/></radialGradient>
  <radialGradient id="mintGlow" cx="50%" cy="50%" r="50%"><stop offset="0%" stop-color="#72F2C7" stop-opacity="0.9"/><stop offset="100%" stop-color="#72F2C7" stop-opacity="0"/></radialGradient>
  <linearGradient id="nodeSurface" x1="0" y1="0" x2="1" y2="1"><stop offset="0" stop-color="#16213E"/><stop offset="1" stop-color="#0D1530"/></linearGradient>
</defs>
  <circle cx="64" cy="64" r="58" fill="url(#violetCore)" opacity="0.82"/>
  <rect x="24" y="84" width="80" height="10" class="space700" opacity="0.95"/>
  <rect x="32" y="72" width="64" height="12" fill="url(#nodeSurface)" class="strokeSoulViolet" stroke-width="2" stroke-opacity="0.58"/>
  <rect x="42" y="52" width="44" height="20" class="space800"/>
  <rect x="48" y="42" width="32" height="10" class="space900"/>
  <rect x="56" y="24" width="16" height="18" class="soulViolet" opacity="0.92" filter="url(#tinyGlow)"/>
  <rect x="62" y="12" width="4" height="12" class="pixelLamp" filter="url(#tinyGlow)"/>
  <rect x="54" y="58" width="8" height="8" class="signalMint" opacity="0.75"/>
  <rect x="70" y="58" width="8" height="8" class="signalMint" opacity="0.75"/>
  <path d="M22 62H10M106 62H118M64 104V120M64 8V16" class="strokeSignalMint" stroke-width="3" stroke-linecap="square" opacity="0.45"/>
  <rect x="8" y="60" width="5" height="5" class="signalMint"/><rect x="115" y="60" width="5" height="5" class="signalMint"/><rect x="62" y="116" width="5" height="5" class="pixelLamp"/>
  <rect x="60" y="45" width="8" height="8" class="moonWhite" opacity="0.9"/>
</svg>
