<svg xmlns="http://www.w3.org/2000/svg" width="390" height="844" viewBox="0 0 390 844" fill="none" shape-rendering="crispEdges" >
  <defs>
    <filter id="softGlow" x="-60%" y="-60%" width="220%" height="220%"><feGaussianBlur stdDeviation="7" result="b"/><feMerge><feMergeNode in="b"/><feMergeNode in="SourceGraphic"/></feMerge></filter>
    <filter id="tinyGlow" x="-80%" y="-80%" width="260%" height="260%"><feGaussianBlur stdDeviation="2" result="b"/><feMerge><feMergeNode in="b"/><feMergeNode in="SourceGraphic"/></feMerge></filter>
    <radialGradient id="bg" cx="50%" cy="28%" r="78%"><stop offset="0" stop-color="#72F2C7" stop-opacity="0.10"/><stop offset="35%" stop-color="#A78BFA" stop-opacity="0.08"/><stop offset="65%" stop-color="#0D1530" stop-opacity="0.86"/><stop offset="100%" stop-color="#070A18"/></radialGradient>
    <radialGradient id="lampGlow" cx="50%" cy="50%" r="60%"><stop offset="0" stop-color="#FFD166" stop-opacity="0.74"/><stop offset="50%" stop-color="#FFD166" stop-opacity="0.22"/><stop offset="100%" stop-color="#FFD166" stop-opacity="0"/></radialGradient>
    <radialGradient id="mintGlow" cx="50%" cy="50%" r="60%"><stop offset="0" stop-color="#72F2C7" stop-opacity="0.74"/><stop offset="100%" stop-color="#72F2C7" stop-opacity="0"/></radialGradient>
    <linearGradient id="panel" x1="0" y1="0" x2="1" y2="1"><stop offset="0" stop-color="#0D1530" stop-opacity="0.96"/><stop offset="1" stop-color="#16213E" stop-opacity="0.90"/></linearGradient>
    <linearGradient id="entryPanel" x1="0" y1="0" x2="1" y2="1"><stop offset="0" stop-color="#16213E" stop-opacity="0.92"/><stop offset="0.55" stop-color="#0D1530" stop-opacity="0.98"/><stop offset="1" stop-color="#72F2C7" stop-opacity="0.11"/></linearGradient>
  </defs>
  <rect width="390" height="844" fill="url(#bg)"/><rect x="26" y="142" width="2" height="2" fill="#8D98B8" opacity="0.45"/><rect x="342" y="118" width="2" height="2" fill="#72F2C7" opacity="0.45"/><rect x="52" y="284" width="2" height="2" fill="#FFD166" opacity="0.45"/><rect x="320" y="356" width="2" height="2" fill="#A78BFA" opacity="0.45"/><rect x="38" y="566" width="2" height="2" fill="#72F2C7" opacity="0.45"/><rect x="360" y="616" width="2" height="2" fill="#8D98B8" opacity="0.45"/><rect x="112" y="780" width="2" height="2" fill="#FFD166" opacity="0.45"/><rect x="242" y="210" width="2" height="2" fill="#8D98B8" opacity="0.45"/><rect x="184" y="640" width="2" height="2" fill="#FF9FD6" opacity="0.45"/><rect x="24" y="438" width="2" height="2" fill="#FF9FD6" opacity="0.45"/><rect x="354" y="514" width="2" height="2" fill="#4CC9F0" opacity="0.45"/>
  
  <rect x="16" y="50" width="44" height="44" rx="14" fill="#0D1530" stroke="#8D98B8" stroke-opacity="0.28"/>
  <path d="M42 62L32 72L42 82" stroke="#E8ECF8" stroke-width="3"/>
  <text x="78" y="72" text-anchor="start" font-family="Pretendard, system-ui, -apple-system, Segoe UI, sans-serif" font-size="22" font-weight="600" fill="#E8ECF8" shape-rendering="geometricPrecision">오늘의 조각</text>
  <text x="78" y="96" text-anchor="start" font-family="Pretendard, system-ui, -apple-system, Segoe UI, sans-serif" font-size="11" font-weight="500" fill="#8D98B8" shape-rendering="geometricPrecision">조각이 마을에 들어가는 중이에요.</text>
  <rect x="336" y="54" width="38" height="38" rx="13" fill="#0D1530" stroke="#FFD166" stroke-opacity="0.32"/>
  <path d="M346 62H364V86H346Z" stroke="#FFD166" stroke-width="3"/><path d="M352 70H360M352 78H360" stroke="#FFD166" stroke-width="2"/>

  <g transform="translate(20 132)">
  <defs>
    <filter id="softGlow" x="-60%" y="-60%" width="220%" height="220%"><feGaussianBlur stdDeviation="7" result="b"/><feMerge><feMergeNode in="b"/><feMergeNode in="SourceGraphic"/></feMerge></filter>
    <filter id="tinyGlow" x="-80%" y="-80%" width="260%" height="260%"><feGaussianBlur stdDeviation="2" result="b"/><feMerge><feMergeNode in="b"/><feMergeNode in="SourceGraphic"/></feMerge></filter>
    <radialGradient id="bg" cx="50%" cy="28%" r="78%"><stop offset="0" stop-color="#72F2C7" stop-opacity="0.10"/><stop offset="35%" stop-color="#A78BFA" stop-opacity="0.08"/><stop offset="65%" stop-color="#0D1530" stop-opacity="0.86"/><stop offset="100%" stop-color="#070A18"/></radialGradient>
    <radialGradient id="lampGlow" cx="50%" cy="50%" r="60%"><stop offset="0" stop-color="#FFD166" stop-opacity="0.74"/><stop offset="50%" stop-color="#FFD166" stop-opacity="0.22"/><stop offset="100%" stop-color="#FFD166" stop-opacity="0"/></radialGradient>
    <radialGradient id="mintGlow" cx="50%" cy="50%" r="60%"><stop offset="0" stop-color="#72F2C7" stop-opacity="0.74"/><stop offset="100%" stop-color="#72F2C7" stop-opacity="0"/></radialGradient>
    <linearGradient id="panel" x1="0" y1="0" x2="1" y2="1"><stop offset="0" stop-color="#0D1530" stop-opacity="0.96"/><stop offset="1" stop-color="#16213E" stop-opacity="0.90"/></linearGradient>
    <linearGradient id="entryPanel" x1="0" y1="0" x2="1" y2="1"><stop offset="0" stop-color="#16213E" stop-opacity="0.92"/><stop offset="0.55" stop-color="#0D1530" stop-opacity="0.98"/><stop offset="1" stop-color="#72F2C7" stop-opacity="0.11"/></linearGradient>
  </defs>
  <rect x="1" y="1" width="348" height="140" rx="24" fill="#0D1530" fill-opacity="0.84" stroke="#8D98B8" stroke-opacity="0.22"/>
  <g transform="translate(42 46) scale(0.82)"><path d="M0 -13L12 -2L6 13L-10 8L-7 -7Z" fill="#16213E" stroke="#FFD166" stroke-width="2"/><rect x="-2" y="-2" width="4" height="4" fill="#FFD166" filter="url(#tinyGlow)"/></g>
  <text x="76" y="36" text-anchor="start" font-family="Pretendard, system-ui, -apple-system, Segoe UI, sans-serif" font-size="12" font-weight="700" fill="#FFD166" shape-rendering="geometricPrecision">오늘의 조각</text>
  <text x="76" y="62" text-anchor="start" font-family="Pretendard, system-ui, -apple-system, Segoe UI, sans-serif" font-size="15" font-weight="600" fill="#E8ECF8" shape-rendering="geometricPrecision">복잡한 것을 보기 쉽게 만들고 싶다</text>
  <text x="76" y="88" text-anchor="start" font-family="Pretendard, system-ui, -apple-system, Segoe UI, sans-serif" font-size="12" font-weight="500" fill="#8D98B8" shape-rendering="geometricPrecision">방금 저장됨 · 기록 보관소와 연결 대기</text>
  <path d="M30 114H318" stroke="#243056" stroke-width="1" opacity="0.8"/>
  <rect x="30" y="124" width="78" height="2" fill="#72F2C7" opacity="0.65"/><rect x="122" y="124" width="48" height="2" fill="#A78BFA" opacity="0.45"/><rect x="184" y="124" width="92" height="2" fill="#FFD166" opacity="0.45"/>
</g>
  <g transform="translate(20 304)">
  <defs>
    <filter id="softGlow" x="-60%" y="-60%" width="220%" height="220%"><feGaussianBlur stdDeviation="7" result="b"/><feMerge><feMergeNode in="b"/><feMergeNode in="SourceGraphic"/></feMerge></filter>
    <filter id="tinyGlow" x="-80%" y="-80%" width="260%" height="260%"><feGaussianBlur stdDeviation="2" result="b"/><feMerge><feMergeNode in="b"/><feMergeNode in="SourceGraphic"/></feMerge></filter>
    <radialGradient id="bg" cx="50%" cy="28%" r="78%"><stop offset="0" stop-color="#72F2C7" stop-opacity="0.10"/><stop offset="35%" stop-color="#A78BFA" stop-opacity="0.08"/><stop offset="65%" stop-color="#0D1530" stop-opacity="0.86"/><stop offset="100%" stop-color="#070A18"/></radialGradient>
    <radialGradient id="lampGlow" cx="50%" cy="50%" r="60%"><stop offset="0" stop-color="#FFD166" stop-opacity="0.74"/><stop offset="50%" stop-color="#FFD166" stop-opacity="0.22"/><stop offset="100%" stop-color="#FFD166" stop-opacity="0"/></radialGradient>
    <radialGradient id="mintGlow" cx="50%" cy="50%" r="60%"><stop offset="0" stop-color="#72F2C7" stop-opacity="0.74"/><stop offset="100%" stop-color="#72F2C7" stop-opacity="0"/></radialGradient>
    <linearGradient id="panel" x1="0" y1="0" x2="1" y2="1"><stop offset="0" stop-color="#0D1530" stop-opacity="0.96"/><stop offset="1" stop-color="#16213E" stop-opacity="0.90"/></linearGradient>
    <linearGradient id="entryPanel" x1="0" y1="0" x2="1" y2="1"><stop offset="0" stop-color="#16213E" stop-opacity="0.92"/><stop offset="0.55" stop-color="#0D1530" stop-opacity="0.98"/><stop offset="1" stop-color="#72F2C7" stop-opacity="0.11"/></linearGradient>
  </defs>
  <rect x="1" y="1" width="348" height="168" rx="28" fill="url(#entryPanel)" stroke="#72F2C7" stroke-opacity="0.26"/>
  <g transform="translate(68 84) scale(0.72)">
      <circle cx="0" cy="0" r="36" fill="url(#mintGlow)" opacity="0.42"/>
      <rect x="-23" y="-12" width="46" height="40" rx="12" fill="#16213E" stroke="#72F2C7" stroke-opacity="0.64"/>
      <rect x="-13" y="-27" width="26" height="16" rx="4" fill="#72F2C7" fill-opacity="0.60"/>
      <rect x="-5" y="-40" width="10" height="13" fill="#72F2C7"/>
      <rect x="-12" y="2" width="5" height="5" fill="#E8ECF8"/><rect x="7" y="2" width="5" height="5" fill="#E8ECF8"/>
      <path d="M-31 11H-42V24H-31" stroke="#72F2C7" stroke-width="4"/><path d="M31 11H42V24H31" stroke="#72F2C7" stroke-width="4"/>
      <rect x="-7" y="16" width="14" height="4" fill="#72F2C7"/>
    </g>
  <text x="132" y="56" text-anchor="start" font-family="Pretendard, system-ui, -apple-system, Segoe UI, sans-serif" font-size="16" font-weight="600" fill="#E8ECF8" shape-rendering="geometricPrecision">루루가 조각을 가져가는 중</text>
  <text x="132" y="82" text-anchor="start" font-family="Pretendard, system-ui, -apple-system, Segoe UI, sans-serif" font-size="12" font-weight="500" fill="#8D98B8" shape-rendering="geometricPrecision">저장한 내용이 그래프 길 위로 이동해요.</text>
  <path d="M132 112C178 84 220 138 286 100" stroke="#243056" stroke-width="4" stroke-dasharray="6 7" opacity="0.9"/>
  <path d="M132 112C178 84 220 138 286 100" stroke="#72F2C7" stroke-width="2" stroke-dasharray="6 7" opacity="0.9" filter="url(#tinyGlow)"/>
  <g transform="translate(286 100) scale(0.76)"><path d="M0 -13L12 -2L6 13L-10 8L-7 -7Z" fill="#16213E" stroke="#FFD166" stroke-width="2"/><rect x="-2" y="-2" width="4" height="4" fill="#FFD166" filter="url(#tinyGlow)"/></g>
</g>
  <g transform="translate(20 504)">
  <defs>
    <filter id="softGlow" x="-60%" y="-60%" width="220%" height="220%"><feGaussianBlur stdDeviation="7" result="b"/><feMerge><feMergeNode in="b"/><feMergeNode in="SourceGraphic"/></feMerge></filter>
    <filter id="tinyGlow" x="-80%" y="-80%" width="260%" height="260%"><feGaussianBlur stdDeviation="2" result="b"/><feMerge><feMergeNode in="b"/><feMergeNode in="SourceGraphic"/></feMerge></filter>
    <radialGradient id="bg" cx="50%" cy="28%" r="78%"><stop offset="0" stop-color="#72F2C7" stop-opacity="0.10"/><stop offset="35%" stop-color="#A78BFA" stop-opacity="0.08"/><stop offset="65%" stop-color="#0D1530" stop-opacity="0.86"/><stop offset="100%" stop-color="#070A18"/></radialGradient>
    <radialGradient id="lampGlow" cx="50%" cy="50%" r="60%"><stop offset="0" stop-color="#FFD166" stop-opacity="0.74"/><stop offset="50%" stop-color="#FFD166" stop-opacity="0.22"/><stop offset="100%" stop-color="#FFD166" stop-opacity="0"/></radialGradient>
    <radialGradient id="mintGlow" cx="50%" cy="50%" r="60%"><stop offset="0" stop-color="#72F2C7" stop-opacity="0.74"/><stop offset="100%" stop-color="#72F2C7" stop-opacity="0"/></radialGradient>
    <linearGradient id="panel" x1="0" y1="0" x2="1" y2="1"><stop offset="0" stop-color="#0D1530" stop-opacity="0.96"/><stop offset="1" stop-color="#16213E" stop-opacity="0.90"/></linearGradient>
    <linearGradient id="entryPanel" x1="0" y1="0" x2="1" y2="1"><stop offset="0" stop-color="#16213E" stop-opacity="0.92"/><stop offset="0.55" stop-color="#0D1530" stop-opacity="0.98"/><stop offset="1" stop-color="#72F2C7" stop-opacity="0.11"/></linearGradient>
  </defs>
  <rect x="1" y="1" width="348" height="154" rx="28" fill="#0D1530" fill-opacity="0.86" stroke="#FFD166" stroke-opacity="0.30"/>
  <g transform="translate(62 78) scale(0.7)">
      <circle cx="0" cy="0" r="36" fill="url(#lampGlow)" opacity="0.36"/>
      <rect x="-23" y="-12" width="46" height="42" rx="13" fill="#16213E" stroke="#FFD166" stroke-opacity="0.64"/>
      <rect x="-15" y="-27" width="30" height="16" rx="4" fill="#FFD166" fill-opacity="0.68"/>
      <rect x="-36" y="2" width="14" height="24" rx="4" fill="#243056" stroke="#FFD166" stroke-opacity="0.44"/>
      <rect x="-12" y="2" width="5" height="5" fill="#E8ECF8"/><rect x="7" y="2" width="5" height="5" fill="#E8ECF8"/>
      <rect x="-9" y="17" width="18" height="4" fill="#FFD166"/>
      <rect x="-16" y="32" width="8" height="7" fill="#243056"/><rect x="8" y="32" width="8" height="7" fill="#243056"/>
    </g>
  <text x="124" y="54" text-anchor="start" font-family="Pretendard, system-ui, -apple-system, Segoe UI, sans-serif" font-size="17" font-weight="600" fill="#E8ECF8" shape-rendering="geometricPrecision">조각을 잘 보관했어요</text>
  <text x="124" y="82" text-anchor="start" font-family="Pretendard, system-ui, -apple-system, Segoe UI, sans-serif" font-size="12" font-weight="500" fill="#8D98B8" shape-rendering="geometricPrecision">모모가 기록 보관소에 넣어둘게요.</text>
  <rect x="124" y="104" width="100" height="28" rx="12" fill="#FFD166" fill-opacity="0.15" stroke="#FFD166" stroke-opacity="0.30"/><text x="174" y="123" text-anchor="middle" font-family="Pretendard, system-ui, -apple-system, Segoe UI, sans-serif" font-size="11" font-weight="700" fill="#E8ECF8" shape-rendering="geometricPrecision">그래프 보기</text>
  <rect x="236" y="104" width="84" height="28" rx="12" fill="#16213E" stroke="#8D98B8" stroke-opacity="0.24"/><text x="278" y="123" text-anchor="middle" font-family="Pretendard, system-ui, -apple-system, Segoe UI, sans-serif" font-size="11" font-weight="700" fill="#8D98B8" shape-rendering="geometricPrecision">하나 더</text>
</g>
  <g transform="translate(20 692)">
  <defs>
    <filter id="softGlow" x="-60%" y="-60%" width="220%" height="220%"><feGaussianBlur stdDeviation="7" result="b"/><feMerge><feMergeNode in="b"/><feMergeNode in="SourceGraphic"/></feMerge></filter>
    <filter id="tinyGlow" x="-80%" y="-80%" width="260%" height="260%"><feGaussianBlur stdDeviation="2" result="b"/><feMerge><feMergeNode in="b"/><feMergeNode in="SourceGraphic"/></feMerge></filter>
    <radialGradient id="bg" cx="50%" cy="28%" r="78%"><stop offset="0" stop-color="#72F2C7" stop-opacity="0.10"/><stop offset="35%" stop-color="#A78BFA" stop-opacity="0.08"/><stop offset="65%" stop-color="#0D1530" stop-opacity="0.86"/><stop offset="100%" stop-color="#070A18"/></radialGradient>
    <radialGradient id="lampGlow" cx="50%" cy="50%" r="60%"><stop offset="0" stop-color="#FFD166" stop-opacity="0.74"/><stop offset="50%" stop-color="#FFD166" stop-opacity="0.22"/><stop offset="100%" stop-color="#FFD166" stop-opacity="0"/></radialGradient>
    <radialGradient id="mintGlow" cx="50%" cy="50%" r="60%"><stop offset="0" stop-color="#72F2C7" stop-opacity="0.74"/><stop offset="100%" stop-color="#72F2C7" stop-opacity="0"/></radialGradient>
    <linearGradient id="panel" x1="0" y1="0" x2="1" y2="1"><stop offset="0" stop-color="#0D1530" stop-opacity="0.96"/><stop offset="1" stop-color="#16213E" stop-opacity="0.90"/></linearGradient>
    <linearGradient id="entryPanel" x1="0" y1="0" x2="1" y2="1"><stop offset="0" stop-color="#16213E" stop-opacity="0.92"/><stop offset="0.55" stop-color="#0D1530" stop-opacity="0.98"/><stop offset="1" stop-color="#72F2C7" stop-opacity="0.11"/></linearGradient>
  </defs>
  <rect x="1" y="1" width="348" height="116" rx="24" fill="#0D1530" fill-opacity="0.82" stroke="#72F2C7" stroke-opacity="0.26"/>
  <circle cx="48" cy="58" r="20" fill="#16213E" stroke="#A78BFA" stroke-width="2"/>
  <circle cx="128" cy="58" r="14" fill="#16213E" stroke="#72F2C7" stroke-width="2"/>
  <circle cx="208" cy="58" r="14" fill="#16213E" stroke="#FFD166" stroke-width="2"/>
  <path d="M68 58H114M142 58H194" stroke="#72F2C7" stroke-width="3" filter="url(#tinyGlow)"/>
  <text x="236" y="50" text-anchor="start" font-family="Pretendard, system-ui, -apple-system, Segoe UI, sans-serif" font-size="14" font-weight="600" fill="#E8ECF8" shape-rendering="geometricPrecision">그래프에 연결됨</text>
  <text x="236" y="74" text-anchor="start" font-family="Pretendard, system-ui, -apple-system, Segoe UI, sans-serif" font-size="11" font-weight="500" fill="#8D98B8" shape-rendering="geometricPrecision">기록 보관소 · 나의 중심</text>
</g>
  <rect x="128" y="816" width="134" height="4" rx="2" fill="#8D98B8" opacity="0.35"/>
</svg>