<svg xmlns="http://www.w3.org/2000/svg" width="350" height="150" viewBox="0 0 350 150" fill="none" shape-rendering="crispEdges" >

  <defs>
    <filter id="softGlow" x="-60%" y="-60%" width="220%" height="220%">
      <feGaussianBlur stdDeviation="6" result="blur"/>
      <feMerge><feMergeNode in="blur"/><feMergeNode in="SourceGraphic"/></feMerge>
    </filter>
    <filter id="tinyGlow" x="-80%" y="-80%" width="260%" height="260%">
      <feGaussianBlur stdDeviation="2" result="blur"/>
      <feMerge><feMergeNode in="blur"/><feMergeNode in="SourceGraphic"/></feMerge>
    </filter>
    <radialGradient id="dreamGlow" cx="50%" cy="50%" r="58%">
      <stop offset="0%" stop-color="#FF9FD6" stop-opacity="0.76"/>
      <stop offset="45%" stop-color="#A78BFA" stop-opacity="0.28"/>
      <stop offset="100%" stop-color="#FF9FD6" stop-opacity="0"/>
    </radialGradient>
    <radialGradient id="mintGlow" cx="50%" cy="50%" r="52%">
      <stop offset="0%" stop-color="#72F2C7" stop-opacity="0.74"/>
      <stop offset="100%" stop-color="#72F2C7" stop-opacity="0"/>
    </radialGradient>
    <linearGradient id="panel" x1="0" y1="0" x2="1" y2="1">
      <stop offset="0" stop-color="#0D1530" stop-opacity="0.96"/>
      <stop offset="1" stop-color="#16213E" stop-opacity="0.92"/>
    </linearGradient>
    <linearGradient id="dreamPanel" x1="0" y1="0" x2="1" y2="1">
      <stop offset="0" stop-color="#16213E" stop-opacity="0.90"/>
      <stop offset="0.55" stop-color="#0D1530" stop-opacity="0.96"/>
      <stop offset="1" stop-color="#A78BFA" stop-opacity="0.18"/>
    </linearGradient>
  </defs>

  <rect x="1" y="1" width="348" height="148" rx="26" fill="#0D1530" fill-opacity="0.78" stroke="#8D98B8" stroke-opacity="0.18"/>
  <g transform="translate(64 74) scale(1.1)"><path d="M0 -12L11 -1L5 13L-10 8L-7 -6Z" fill="#16213E" stroke="#FF9FD6" stroke-width="2"/><rect x="-2" y="-2" width="4" height="4" fill="#FF9FD6" filter="url(#tinyGlow)"/></g>
  <path d="M92 74H148M142 68L148 74L142 80" stroke="#72F2C7" stroke-width="3"/>
  <rect x="162" y="48" width="54" height="54" rx="17" fill="#16213E" stroke="#FFD166" stroke-opacity="0.42"/>
  <rect x="180" y="62" width="18" height="20" rx="5" fill="#A78BFA"/><rect x="185" y="70" width="3" height="3" fill="#E8ECF8"/><rect x="192" y="70" width="3" height="3" fill="#E8ECF8"/>
  <path d="M222 74H278M272 68L278 74L272 80" stroke="#72F2C7" stroke-width="3"/>
  <circle cx="304" cy="74" r="20" fill="#16213E" stroke="#72F2C7" stroke-opacity="0.42"/><circle cx="304" cy="74" r="5" fill="#72F2C7"/>
  <text x="175" y="124" text-anchor="middle" font-family="Pretendard, system-ui, -apple-system, Segoe UI, sans-serif" font-size="13" font-weight="600" fill="#E8ECF8" shape-rendering="geometricPrecision">공상 → 세컨비 → 그래프 연결</text>
</svg>