<svg xmlns="http://www.w3.org/2000/svg" width="260" height="260" viewBox="0 0 260 260" fill="none" shape-rendering="crispEdges" >

  <defs>
    <filter id="softGlow" x="-60%" y="-60%" width="220%" height="220%">
      <feGaussianBlur stdDeviation="6" result="blur"/>
      <feMerge><feMergeNode in="blur"/><feMergeNode in="SourceGraphic"/></feMerge>
    </filter>
    <filter id="tinyGlow" x="-80%" y="-80%" width="260%" height="260%">
      <feGaussianBlur stdDeviation="2" result="blur"/>
      <feMerge><feMergeNode in="blur"/><feMergeNode in="SourceGraphic"/></feMerge>
    </filter>
    <radialGradient id="dreamGlow" cx="50%" cy="50%" r="58%">
      <stop offset="0%" stop-color="#FF9FD6" stop-opacity="0.76"/>
      <stop offset="45%" stop-color="#A78BFA" stop-opacity="0.28"/>
      <stop offset="100%" stop-color="#FF9FD6" stop-opacity="0"/>
    </radialGradient>
    <radialGradient id="mintGlow" cx="50%" cy="50%" r="52%">
      <stop offset="0%" stop-color="#72F2C7" stop-opacity="0.74"/>
      <stop offset="100%" stop-color="#72F2C7" stop-opacity="0"/>
    </radialGradient>
    <linearGradient id="panel" x1="0" y1="0" x2="1" y2="1">
      <stop offset="0" stop-color="#0D1530" stop-opacity="0.96"/>
      <stop offset="1" stop-color="#16213E" stop-opacity="0.92"/>
    </linearGradient>
    <linearGradient id="dreamPanel" x1="0" y1="0" x2="1" y2="1">
      <stop offset="0" stop-color="#16213E" stop-opacity="0.90"/>
      <stop offset="0.55" stop-color="#0D1530" stop-opacity="0.96"/>
      <stop offset="1" stop-color="#A78BFA" stop-opacity="0.18"/>
    </linearGradient>
  </defs>

  <circle cx="130" cy="130" r="104" fill="url(#dreamGlow)" opacity="0.24"/>
  <circle cx="130" cy="130" r="92" stroke="#243056" stroke-width="3"/>
  <circle cx="130" cy="130" r="64" stroke="#FF9FD6" stroke-opacity="0.32" stroke-width="2" stroke-dasharray="8 8"/>
  <g transform="translate(130 132) scale(0.62)">
      <circle cx="0" cy="2" r="48" fill="url(#dreamGlow)" opacity="0.72"/>
      <rect x="-26" y="-12" width="52" height="44" rx="14" fill="#16213E" stroke="#FF9FD6" stroke-opacity="0.58"/>
      <rect x="-18" y="-26" width="36" height="16" rx="6" fill="#A78BFA" stroke="#FF9FD6" stroke-opacity="0.44"/>
      <rect x="-4" y="-42" width="8" height="16" fill="#FF9FD6" filter="url(#tinyGlow)"/>
      <rect x="-2" y="-54" width="4" height="10" fill="#FFD166" filter="url(#tinyGlow)"/>
      <rect x="-14" y="2" width="5" height="5" fill="#E8ECF8"/>
      <rect x="9" y="2" width="5" height="5" fill="#E8ECF8"/>
      <rect x="-8" y="18" width="16" height="4" fill="#72F2C7"/>
      <path d="M-32 8L-48 -2L-38 26Z" fill="#A78BFA" opacity="0.62" stroke="#FF9FD6" stroke-opacity="0.44"/>
      <path d="M32 8L48 -2L38 26Z" fill="#A78BFA" opacity="0.62" stroke="#FF9FD6" stroke-opacity="0.44"/>
      <rect x="-18" y="34" width="10" height="8" fill="#243056"/>
      <rect x="8" y="34" width="10" height="8" fill="#243056"/>
    </g>
  <g transform="translate(42 82) scale(0.92)"><path d="M0 -12L11 -1L5 13L-10 8L-7 -6Z" fill="#16213E" stroke="#FFD166" stroke-width="2"/><rect x="-2" y="-2" width="4" height="4" fill="#FFD166" filter="url(#tinyGlow)"/></g><g transform="translate(218 82) scale(0.92)"><path d="M0 -12L11 -1L5 13L-10 8L-7 -6Z" fill="#16213E" stroke="#72F2C7" stroke-width="2"/><rect x="-2" y="-2" width="4" height="4" fill="#72F2C7" filter="url(#tinyGlow)"/></g><g transform="translate(78 212) scale(0.92)"><path d="M0 -12L11 -1L5 13L-10 8L-7 -6Z" fill="#16213E" stroke="#FF9FD6" stroke-width="2"/><rect x="-2" y="-2" width="4" height="4" fill="#FF9FD6" filter="url(#tinyGlow)"/></g><g transform="translate(202 210) scale(0.92)"><path d="M0 -12L11 -1L5 13L-10 8L-7 -6Z" fill="#16213E" stroke="#4CC9F0" stroke-width="2"/><rect x="-2" y="-2" width="4" height="4" fill="#4CC9F0" filter="url(#tinyGlow)"/></g>
</svg>