<svg xmlns="http://www.w3.org/2000/svg" width="64" height="64" viewBox="0 0 64 64" role="img" aria-labelledby="title desc" shape-rendering="crispEdges">
  <title>모모 - 기록 관리자</title>
  <desc>2ndB Cosmic Pixel Graph Village character asset: 모모, 기록 관리자.</desc>
  <rect x="18" y="54" width="28" height="4" fill="#020513" opacity="0.55"/>
  <rect x="20" y="10" width="24" height="5" fill="#FFD166"/>
  <rect x="24" y="6" width="16" height="5" fill="#C58D35"/>
  <rect x="8" y="30" width="8" height="12" fill="#FFD166" opacity="0.9"/>
  <rect x="16" y="14" width="32" height="30" fill="#16213E" rx="6" stroke="#243056" stroke-width="2"/>
  <rect x="20" y="18" width="24" height="16" fill="#0D1530" rx="3"/>
  <rect x="22" y="20" width="20" height="12" fill="#0B1028" rx="2" stroke="#FFD166" stroke-width="1"/>
  <rect x="25" y="24" width="4" height="4" fill="#E8ECF8"/>
  <rect x="35" y="24" width="4" height="4" fill="#E8ECF8"/>
  <rect x="23" y="38" width="18" height="12" fill="#16213E" rx="3" stroke="#243056" stroke-width="2"/>
  <rect x="29" y="41" width="6" height="6" fill="#FFD166"/>
  <rect x="31" y="43" width="2" height="2" fill="#E8ECF8" opacity="0.75"/>
  <rect x="12" y="40" width="7" height="5" fill="#243056"/>
  <rect x="45" y="40" width="7" height="5" fill="#243056"/>
  <rect x="22" y="50" width="7" height="5" fill="#243056"/>
  <rect x="35" y="50" width="7" height="5" fill="#243056"/>
  <rect x="42" y="38" width="12" height="10" fill="#FFFBF2" stroke="#FFD166" stroke-width="1"/>
  <rect x="44" y="41" width="8" height="2" fill="#243056"/>
  <rect x="44" y="45" width="5" height="1" fill="#243056"/>
  <rect x="14" y="16" width="2" height="2" fill="#FFD166" opacity="0.8"/>
  <rect x="48" y="48" width="2" height="2" fill="#C58D35" opacity="0.85"/>
  <rect x="9" y="51" width="2" height="2" fill="#FFD166" opacity="0.9"/>
</svg>
