<svg xmlns="http://www.w3.org/2000/svg" viewBox="0 0 64 64" shape-rendering="crispEdges" role="img" aria-label="Vela dream">
  <title>Vela dream</title>
  <desc>벨라 공상 확장자 pixel sprite state: dream.</desc>
    <rect x="18" y="55" width="28" height="4" fill="#0D1530" opacity="0.42"/>
  <rect x="31" y="9" width="2" height="7" fill="#243056"/>
  <rect x="29" y="5" width="6" height="6" fill="#A78BFA"/>
  <rect x="31" y="3" width="2" height="2" fill="#FF9FD6"/>
  <rect x="27" y="7" width="2" height="2" fill="#FF9FD6"/>
  <rect x="21" y="17" width="22" height="4" fill="#070A18"/>
  <rect x="17" y="21" width="30" height="4" fill="#070A18"/>
  <rect x="15" y="25" width="34" height="20" fill="#070A18"/>
  <rect x="17" y="45" width="30" height="4" fill="#070A18"/>
  <rect x="21" y="49" width="22" height="5" fill="#070A18"/>
  <rect x="22" y="17" width="20" height="4" fill="#A78BFA"/>
  <rect x="20" y="21" width="24" height="4" fill="#FF9FD6"/>
  <rect x="18" y="25" width="28" height="19" fill="#FF9FD6"/>
  <rect x="20" y="44" width="24" height="4" fill="#D66CB1"/>
  <rect x="24" y="48" width="16" height="4" fill="#D66CB1"/>
  <rect x="22" y="27" width="20" height="11" fill="#16213E"/>
  <rect x="24" y="29" width="16" height="7" fill="#0D1530"/>
  <rect x="25" y="31" width="3" height="4" fill="#E8ECF8"/>
  <rect x="36" y="31" width="3" height="4" fill="#E8ECF8"/>
  <rect x="26" y="32" width="1" height="1" fill="#72F2C7"/>
  <rect x="37" y="32" width="1" height="1" fill="#72F2C7"/>
  <rect x="30" y="40" width="4" height="4" fill="#0D1530"/>
  <rect x="31" y="41" width="2" height="2" fill="#FF9FD6"/>
  <rect x="11" y="34" width="5" height="10" fill="#070A18"/>
  <rect x="48" y="34" width="5" height="10" fill="#070A18"/>
  <rect x="12" y="35" width="3" height="7" fill="#D66CB1"/>
  <rect x="49" y="35" width="3" height="7" fill="#D66CB1"/>
  <rect x="24" y="52" width="5" height="5" fill="#070A18"/>
  <rect x="35" y="52" width="5" height="5" fill="#070A18"/>
  <rect x="25" y="52" width="3" height="2" fill="#D66CB1"/>
  <rect x="36" y="52" width="3" height="2" fill="#D66CB1"/>
  <polygon points="17,34 8,48 17,48" fill="#A78BFA" opacity="0.55"/>
  <polygon points="47,34 56,48 47,48" fill="#A78BFA" opacity="0.55"/>
  <rect x="8" y="12" width="2" height="6" fill="#FF9FD6"/>
  <rect x="6" y="14" width="6" height="2" fill="#FF9FD6"/>
  <rect x="54" y="16" width="2" height="6" fill="#A78BFA"/>
  <rect x="52" y="18" width="6" height="2" fill="#A78BFA"/>
  <rect x="47" y="8" width="2" height="4" fill="#FFD166"/>
  <rect x="45" y="10" width="6" height="2" fill="#FFD166"/>
  <rect x="12" y="20" width="4" height="4" fill="#A78BFA" opacity="0.65"/>
  <rect x="48" y="28" width="5" height="5" fill="#FF9FD6" opacity="0.55"/>
  <rect x="7" y="31" width="3" height="3" fill="#FFD166" opacity="0.65"/>
</svg>
