<svg xmlns="http://www.w3.org/2000/svg" width="390" height="844" viewBox="0 0 390 844" fill="none" shape-rendering="crispEdges" >

  <defs>
    <filter id="glow" x="-60%" y="-60%" width="220%" height="220%"><feGaussianBlur stdDeviation="6" result="b"/><feMerge><feMergeNode in="b"/><feMergeNode in="SourceGraphic"/></feMerge></filter>
    <filter id="smallGlow" x="-80%" y="-80%" width="260%" height="260%"><feGaussianBlur stdDeviation="2" result="b"/><feMerge><feMergeNode in="b"/><feMergeNode in="SourceGraphic"/></feMerge></filter>
    <radialGradient id="bg" cx="50%" cy="30%" r="78%"><stop offset="0" stop-color="#A78BFA" stop-opacity="0.17"/><stop offset="45%" stop-color="#0D1530" stop-opacity="0.92"/><stop offset="100%" stop-color="#070A18"/></radialGradient>
  </defs>
<rect width="390" height="844" fill="url(#bg)"/><rect x="20" y="128" width="2" height="2" fill="#8D98B8" opacity="0.48"/><rect x="332" y="120" width="2" height="2" fill="#72F2C7" opacity="0.48"/><rect x="74" y="230" width="2" height="2" fill="#A78BFA" opacity="0.48"/><rect x="320" y="330" width="2" height="2" fill="#FFD166" opacity="0.48"/><rect x="44" y="592" width="2" height="2" fill="#72F2C7" opacity="0.48"/><rect x="355" y="642" width="2" height="2" fill="#8D98B8" opacity="0.48"/><rect x="116" y="760" width="2" height="2" fill="#FFD166" opacity="0.48"/><rect x="244" y="204" width="2" height="2" fill="#8D98B8" opacity="0.48"/><rect x="182" y="618" width="2" height="2" fill="#FF9FD6" opacity="0.48"/>

  <rect x="16" y="50" width="44" height="44" rx="14" fill="#0D1530" stroke="#8D98B8" stroke-opacity="0.28"/>
  <path d="M42 62L32 72L42 82" stroke="#E8ECF8" stroke-width="3"/>
  <text x="78" y="72" text-anchor="start" font-family="NanumGothic, Noto Sans CJK KR, DejaVu Sans, sans-serif" font-size="22" font-weight="600" fill="#E8ECF8" shape-rendering="geometricPrecision">나의 중심</text>
  <text x="78" y="96" text-anchor="start" font-family="NanumGothic, Noto Sans CJK KR, DejaVu Sans, sans-serif" font-size="11" font-weight="500" fill="#8D98B8" shape-rendering="geometricPrecision">이 해석을 만든 조각들을 볼 수 있어요.</text>
  <rect x="36" y="130" width="318" height="220" rx="28" fill="#0D1530" fill-opacity="0.78" stroke="#A78BFA" stroke-opacity="0.24"/>
  <g transform="translate(195 236) scale(0.8)">
      <circle cx="0" cy="0" r="48" fill="url(#coreGlow)" opacity="0.8"/>
      <rect x="-32" y="22" width="64" height="10" fill="#243056" opacity="0.95"/>
      <rect x="-24" y="10" width="48" height="14" fill="#16213E" stroke="#A78BFA" stroke-opacity="0.45"/>
      <rect x="-17" y="-12" width="34" height="22" fill="#16213E" stroke="#72F2C7" stroke-opacity="0.45"/>
      <rect x="-7" y="-30" width="14" height="18" fill="#A78BFA" filter="url(#tinyGlow)"/>
      <rect x="-2" y="-44" width="4" height="12" fill="#FFD166" filter="url(#tinyGlow)"/>
      <rect x="-11" y="-4" width="5" height="5" fill="#E8ECF8" opacity="0.9"/>
      <rect x="6" y="-4" width="5" height="5" fill="#E8ECF8" opacity="0.9"/>
      <rect x="-5" y="8" width="10" height="4" fill="#72F2C7"/>
    </g>
  <rect x="0" y="0" width="390" height="844" fill="#000" opacity="0.28"/>
  <rect x="12" y="446" width="366" height="374" rx="28" fill="#0D1530" fill-opacity="0.98" stroke="#72F2C7" stroke-opacity="0.28"/>
  <rect x="160" y="462" width="70" height="4" rx="2" fill="#8D98B8" opacity="0.45"/>
  <text x="32" y="500" text-anchor="start" font-family="NanumGothic, Noto Sans CJK KR, DejaVu Sans, sans-serif" font-size="18" font-weight="600" fill="#E8ECF8" shape-rendering="geometricPrecision">이걸 만든 조각들</text>
  <text x="32" y="526" text-anchor="start" font-family="NanumGothic, Noto Sans CJK KR, DejaVu Sans, sans-serif" font-size="12" font-weight="500" fill="#8D98B8" shape-rendering="geometricPrecision">세컨비와 나의 중심이 참고한 기록이에요.</text>
  <rect x="32" y="556" width="326" height="72" rx="18" fill="#16213E" stroke="#FFD166" stroke-opacity="0.22"/><path d="M56 582L65 592L60 604L46 599L49 587Z" fill="#16213E" stroke="#FFD166" stroke-width="2"/><rect x="54" y="590" width="4" height="4" fill="#FFD166" filter="url(#tinyGlow)"/><text x="86" y="584" text-anchor="start" font-family="NanumGothic, Noto Sans CJK KR, DejaVu Sans, sans-serif" font-size="12" font-weight="700" fill="#FFD166" shape-rendering="geometricPrecision">오늘의 조각</text><text x="86" y="608" text-anchor="start" font-family="NanumGothic, Noto Sans CJK KR, DejaVu Sans, sans-serif" font-size="12" font-weight="500" fill="#E8ECF8" shape-rendering="geometricPrecision">밤빛 그래프 마을 아이디어</text>
  <rect x="32" y="642" width="326" height="72" rx="18" fill="#16213E" stroke="#72F2C7" stroke-opacity="0.22"/><path d="M56 668L65 678L60 690L46 685L49 673Z" fill="#16213E" stroke="#72F2C7" stroke-width="2"/><rect x="54" y="676" width="4" height="4" fill="#72F2C7" filter="url(#tinyGlow)"/><text x="86" y="670" text-anchor="start" font-family="NanumGothic, Noto Sans CJK KR, DejaVu Sans, sans-serif" font-size="12" font-weight="700" fill="#72F2C7" shape-rendering="geometricPrecision">지식 창고</text><text x="86" y="694" text-anchor="start" font-family="NanumGothic, Noto Sans CJK KR, DejaVu Sans, sans-serif" font-size="12" font-weight="500" fill="#E8ECF8" shape-rendering="geometricPrecision">Obsidian graph 메모</text>
  <rect x="32" y="728" width="326" height="52" rx="18" fill="#A78BFA" fill-opacity="0.16" stroke="#A78BFA" stroke-opacity="0.3"/><text x="195" y="762" text-anchor="middle" font-family="NanumGothic, Noto Sans CJK KR, DejaVu Sans, sans-serif" font-size="14" font-weight="600" fill="#E8ECF8" shape-rendering="geometricPrecision">이 조각들로 다시 묻기</text>
</svg>