<svg xmlns="http://www.w3.org/2000/svg" width="240" height="240" viewBox="0 0 240 240" fill="none" shape-rendering="crispEdges" >

  <defs>
    <filter id="softGlow" x="-60%" y="-60%" width="220%" height="220%">
      <feGaussianBlur stdDeviation="6" result="blur"/>
      <feMerge><feMergeNode in="blur"/><feMergeNode in="SourceGraphic"/></feMerge>
    </filter>
    <filter id="tinyGlow" x="-80%" y="-80%" width="260%" height="260%">
      <feGaussianBlur stdDeviation="2" result="blur"/>
      <feMerge><feMergeNode in="blur"/><feMergeNode in="SourceGraphic"/></feMerge>
    </filter>
    <radialGradient id="coreGlow" cx="50%" cy="50%" r="55%">
      <stop offset="0%" stop-color="#A78BFA" stop-opacity="0.9"/>
      <stop offset="58%" stop-color="#A78BFA" stop-opacity="0.18"/>
      <stop offset="100%" stop-color="#A78BFA" stop-opacity="0"/>
    </radialGradient>
    <radialGradient id="mintGlow" cx="50%" cy="50%" r="50%">
      <stop offset="0%" stop-color="#72F2C7" stop-opacity="0.7"/>
      <stop offset="100%" stop-color="#72F2C7" stop-opacity="0"/>
    </radialGradient>
    <linearGradient id="panel" x1="0" y1="0" x2="1" y2="1">
      <stop offset="0" stop-color="#0D1530" stop-opacity="0.96"/>
      <stop offset="1" stop-color="#16213E" stop-opacity="0.92"/>
    </linearGradient>
    <linearGradient id="card" x1="0" y1="0" x2="1" y2="1">
      <stop offset="0" stop-color="#16213E" stop-opacity="0.82"/>
      <stop offset="1" stop-color="#0D1530" stop-opacity="0.94"/>
    </linearGradient>
  </defs>

  <rect width="240" height="240" fill="transparent"/>
  <circle cx="120" cy="120" r="98" fill="url(#coreGlow)" opacity="0.74"/>
  <circle cx="120" cy="120" r="82" stroke="#A78BFA" stroke-opacity="0.42" stroke-width="2" stroke-dasharray="8 8"/>
  <circle cx="120" cy="120" r="52" stroke="#72F2C7" stroke-opacity="0.25" stroke-width="2"/>
  <path d="M120 120 C70 82 54 154 28 112M120 120 C174 72 184 162 212 112M120 120 C100 176 158 194 120 218M120 120 C94 76 142 64 120 22" stroke="#243056" stroke-width="4" stroke-linecap="square"/>
  <path d="M120 120 C174 72 184 162 212 112" stroke="#72F2C7" stroke-width="3" stroke-linecap="square" filter="url(#tinyGlow)"/>
  <g transform="translate(120 120) scale(1.05)">
      <circle cx="0" cy="0" r="48" fill="url(#coreGlow)" opacity="0.8"/>
      <rect x="-32" y="22" width="64" height="10" fill="#243056" opacity="0.95"/>
      <rect x="-24" y="10" width="48" height="14" fill="#16213E" stroke="#A78BFA" stroke-opacity="0.45"/>
      <rect x="-17" y="-12" width="34" height="22" fill="#16213E" stroke="#72F2C7" stroke-opacity="0.45"/>
      <rect x="-7" y="-30" width="14" height="18" fill="#A78BFA" filter="url(#tinyGlow)"/>
      <rect x="-2" y="-44" width="4" height="12" fill="#FFD166" filter="url(#tinyGlow)"/>
      <rect x="-11" y="-4" width="5" height="5" fill="#E8ECF8" opacity="0.9"/>
      <rect x="6" y="-4" width="5" height="5" fill="#E8ECF8" opacity="0.9"/>
      <rect x="-5" y="8" width="10" height="4" fill="#72F2C7"/>
    </g>
  <path d="M28 102L37 112L32 124L18 119L21 107Z" fill="#16213E" stroke="#FFD166" stroke-width="2"/><rect x="26" y="110" width="4" height="4" fill="#FFD166" filter="url(#tinyGlow)"/>
  <path d="M212 102L221 112L216 124L202 119L205 107Z" fill="#16213E" stroke="#72F2C7" stroke-width="2"/><rect x="210" y="110" width="4" height="4" fill="#72F2C7" filter="url(#tinyGlow)"/>
  <path d="M120 208L129 218L124 230L110 225L113 213Z" fill="#16213E" stroke="#FF9FD6" stroke-width="2"/><rect x="118" y="216" width="4" height="4" fill="#FF9FD6" filter="url(#tinyGlow)"/>
  <path d="M120 12L129 22L124 34L110 29L113 17Z" fill="#16213E" stroke="#4CC9F0" stroke-width="2"/><rect x="118" y="20" width="4" height="4" fill="#4CC9F0" filter="url(#tinyGlow)"/>
</svg>