<svg xmlns="http://www.w3.org/2000/svg" width="350" height="150" viewBox="0 0 350 150" fill="none" shape-rendering="crispEdges" >
  <defs>
    <filter id="softGlow" x="-60%" y="-60%" width="220%" height="220%"><feGaussianBlur stdDeviation="7" result="b"/><feMerge><feMergeNode in="b"/><feMergeNode in="SourceGraphic"/></feMerge></filter>
    <filter id="tinyGlow" x="-80%" y="-80%" width="260%" height="260%"><feGaussianBlur stdDeviation="2" result="b"/><feMerge><feMergeNode in="b"/><feMergeNode in="SourceGraphic"/></feMerge></filter>
    <radialGradient id="bg" cx="50%" cy="28%" r="78%"><stop offset="0" stop-color="#72F2C7" stop-opacity="0.10"/><stop offset="35%" stop-color="#A78BFA" stop-opacity="0.08"/><stop offset="65%" stop-color="#0D1530" stop-opacity="0.86"/><stop offset="100%" stop-color="#070A18"/></radialGradient>
    <radialGradient id="lampGlow" cx="50%" cy="50%" r="60%"><stop offset="0" stop-color="#FFD166" stop-opacity="0.74"/><stop offset="50%" stop-color="#FFD166" stop-opacity="0.22"/><stop offset="100%" stop-color="#FFD166" stop-opacity="0"/></radialGradient>
    <radialGradient id="mintGlow" cx="50%" cy="50%" r="60%"><stop offset="0" stop-color="#72F2C7" stop-opacity="0.74"/><stop offset="100%" stop-color="#72F2C7" stop-opacity="0"/></radialGradient>
    <linearGradient id="panel" x1="0" y1="0" x2="1" y2="1"><stop offset="0" stop-color="#0D1530" stop-opacity="0.96"/><stop offset="1" stop-color="#16213E" stop-opacity="0.90"/></linearGradient>
    <linearGradient id="entryPanel" x1="0" y1="0" x2="1" y2="1"><stop offset="0" stop-color="#16213E" stop-opacity="0.92"/><stop offset="0.55" stop-color="#0D1530" stop-opacity="0.98"/><stop offset="1" stop-color="#72F2C7" stop-opacity="0.11"/></linearGradient>
  </defs>
  <rect x="1" y="1" width="348" height="148" rx="26" fill="#0D1530" fill-opacity="0.82" stroke="#8D98B8" stroke-opacity="0.20"/>
  <g transform="translate(52 74) scale(0.78)"><path d="M0 -13L12 -2L6 13L-10 8L-7 -7Z" fill="#16213E" stroke="#FFD166" stroke-width="2"/><rect x="-2" y="-2" width="4" height="4" fill="#FFD166" filter="url(#tinyGlow)"/></g>
  <path d="M76 74H136" stroke="#243056" stroke-width="4" stroke-dasharray="6 7"/>
  <g transform="translate(174 74) scale(0.48)">
      <circle cx="0" cy="0" r="36" fill="url(#lampGlow)" opacity="0.36"/>
      <rect x="-23" y="-12" width="46" height="42" rx="13" fill="#16213E" stroke="#FFD166" stroke-opacity="0.64"/>
      <rect x="-15" y="-27" width="30" height="16" rx="4" fill="#FFD166" fill-opacity="0.68"/>
      <rect x="-36" y="2" width="14" height="24" rx="4" fill="#243056" stroke="#FFD166" stroke-opacity="0.44"/>
      <rect x="-12" y="2" width="5" height="5" fill="#E8ECF8"/><rect x="7" y="2" width="5" height="5" fill="#E8ECF8"/>
      <rect x="-9" y="17" width="18" height="4" fill="#FFD166"/>
      <rect x="-16" y="32" width="8" height="7" fill="#243056"/><rect x="8" y="32" width="8" height="7" fill="#243056"/>
    </g>
  <path d="M214 74H276" stroke="#72F2C7" stroke-width="3" stroke-dasharray="6 7" filter="url(#tinyGlow)"/>
  <circle cx="302" cy="74" r="20" fill="#16213E" stroke="#A78BFA" stroke-width="2"/>
  <text x="24" y="126" text-anchor="start" font-family="Pretendard, system-ui, -apple-system, Segoe UI, sans-serif" font-size="13" font-weight="600" fill="#8D98B8" shape-rendering="geometricPrecision">입력 → 보관 → 그래프 연결</text>
</svg>