<svg xmlns="http://www.w3.org/2000/svg" width="32" height="32" viewBox="0 0 32 32" shape-rendering="crispEdges" role="img" aria-label="Momo Crew overworked">
  <title>Momo Crew overworked</title>
  <desc>Game Boy inspired Cosmic Pixel Graph Village sprite for Momo Crew, state overworked; transparent background, named token fills.</desc>
  <defs>
  <style><![CDATA[
    .space950{fill:#070A18}.space900{fill:#0D1530}.space800{fill:#16213E}.space700{fill:#243056}
    .signalBlue{fill:#4CC9F0}.signalMint{fill:#72F2C7}.soulViolet{fill:#A78BFA}.pixelLamp{fill:#FFD166}
    .moonWhite{fill:#E8ECF8}.mistGray{fill:#8D98B8}.dreamPink{fill:#FF9FD6}
    .strokeSpace700{stroke:#243056}.strokeSignalBlue{stroke:#4CC9F0}.strokeSignalMint{stroke:#72F2C7}
    .strokeSoulViolet{stroke:#A78BFA}.strokePixelLamp{stroke:#FFD166}.strokeMoonWhite{stroke:#E8ECF8}.strokeDreamPink{stroke:#FF9FD6}
  ]]></style>
</defs>
  <rect x="9" y="28" width="14" height="2" class="space900" opacity="0.42"/>
  <rect x="15" y="5" width="1" height="4" class="space700"/>
  <rect x="13" y="3" width="4" height="3" class="space900"/>
  <rect x="10" y="9" width="12" height="2" class="space950"/>
  <rect x="8" y="11" width="16" height="2" class="space950"/>
  <rect x="7" y="13" width="18" height="10" class="space950"/>
  <rect x="9" y="23" width="14" height="2" class="space950"/>
  <rect x="11" y="25" width="10" height="3" class="space950"/>
  <rect x="11" y="9" width="10" height="2" class="mistGray"/>
  <rect x="10" y="11" width="12" height="2" class="moonWhite"/>
  <rect x="9" y="13" width="14" height="10" class="moonWhite"/>
  <rect x="10" y="23" width="12" height="2" class="mistGray"/>
  <rect x="12" y="25" width="8" height="2" class="mistGray"/>
  <rect x="11" y="14" width="10" height="6" class="space800"/>
  <rect x="12" y="15" width="8" height="4" class="space900"/>
  <rect x="12" y="16" width="2" height="2" class="space950"/>
  <rect x="18" y="16" width="2" height="2" class="space950"/>
  <rect x="14" y="20" width="4" height="1" class="space900"/>
  <rect x="4" y="7" width="2" height="2" class="signalMint"/>
  <rect x="26" y="18" width="2" height="2" class="signalMint"/>
  <rect x="6" y="24" width="2" height="2" class="signalMint"/>
  <rect x="5" y="17" width="3" height="5" class="space950"/>
  <rect x="24" y="17" width="3" height="5" class="space950"/>
  <rect x="6" y="18" width="2" height="4" class="mistGray"/>
  <rect x="25" y="18" width="2" height="4" class="mistGray"/>
  <rect x="12" y="27" width="3" height="3" class="space950"/>
  <rect x="18" y="27" width="3" height="3" class="space950"/>
</svg>
