<svg xmlns="http://www.w3.org/2000/svg" width="390" height="844" viewBox="0 0 390 844" fill="none" shape-rendering="crispEdges" >

  <defs>
    <filter id="glow" x="-60%" y="-60%" width="220%" height="220%"><feGaussianBlur stdDeviation="6" result="b"/><feMerge><feMergeNode in="b"/><feMergeNode in="SourceGraphic"/></feMerge></filter>
    <filter id="smallGlow" x="-80%" y="-80%" width="260%" height="260%"><feGaussianBlur stdDeviation="2" result="b"/><feMerge><feMergeNode in="b"/><feMergeNode in="SourceGraphic"/></feMerge></filter>
    <radialGradient id="bg" cx="50%" cy="30%" r="78%"><stop offset="0" stop-color="#FF9FD6" stop-opacity="0.15"/><stop offset="34%" stop-color="#A78BFA" stop-opacity="0.10"/><stop offset="62%" stop-color="#0D1530" stop-opacity="0.88"/><stop offset="100%" stop-color="#070A18"/></radialGradient>
    <radialGradient id="dreamGlow" cx="50%" cy="50%" r="60%"><stop offset="0" stop-color="#FF9FD6" stop-opacity="0.72"/><stop offset="52%" stop-color="#A78BFA" stop-opacity="0.26"/><stop offset="100%" stop-color="#FF9FD6" stop-opacity="0"/></radialGradient>
  </defs>
<rect width="390" height="844" fill="url(#bg)"/><rect x="22" y="118" width="2" height="2" fill="#8D98B8" opacity="0.48"/><rect x="340" y="126" width="2" height="2" fill="#72F2C7" opacity="0.48"/><rect x="78" y="238" width="2" height="2" fill="#A78BFA" opacity="0.48"/><rect x="320" y="330" width="2" height="2" fill="#FFD166" opacity="0.48"/><rect x="42" y="592" width="2" height="2" fill="#72F2C7" opacity="0.48"/><rect x="355" y="642" width="2" height="2" fill="#8D98B8" opacity="0.48"/><rect x="116" y="760" width="2" height="2" fill="#FFD166" opacity="0.48"/><rect x="244" y="204" width="2" height="2" fill="#8D98B8" opacity="0.48"/><rect x="182" y="618" width="2" height="2" fill="#FF9FD6" opacity="0.48"/><rect x="32" y="410" width="2" height="2" fill="#FF9FD6" opacity="0.48"/><rect x="350" y="520" width="2" height="2" fill="#4CC9F0" opacity="0.48"/>

  <rect x="16" y="50" width="44" height="44" rx="14" fill="#0D1530" stroke="#8D98B8" stroke-opacity="0.28"/>
  <path d="M42 62L32 72L42 82" stroke="#E8ECF8" stroke-width="3"/>
  <text x="78" y="72" text-anchor="start" font-family="Pretendard, system-ui, -apple-system, Segoe UI, sans-serif" font-size="22" font-weight="600" fill="#E8ECF8" shape-rendering="geometricPrecision">공상 작업실</text>
  <text x="78" y="96" text-anchor="start" font-family="Pretendard, system-ui, -apple-system, Segoe UI, sans-serif" font-size="11" font-weight="500" fill="#8D98B8" shape-rendering="geometricPrecision">아직 말이 안 된 생각도 장면으로 펼쳐봐요.</text>
  <rect x="336" y="54" width="38" height="38" rx="13" fill="#0D1530" stroke="#FF9FD6" stroke-opacity="0.32"/>
  <path d="M355 62L359 72L369 76L359 80L355 90L351 80L341 76L351 72Z" fill="#FF9FD6" opacity="0.88"/>

  <g transform="translate(0,0)">
    <circle cx="195" cy="194" r="90" fill="url(#dreamGlow)" opacity="0.52" filter="url(#glow)"/>
    <g transform="translate(195 205) scale(0.78)">
      <circle cx="0" cy="2" r="48" fill="url(#dreamGlow)" opacity="0.72"/>
      <rect x="-26" y="-12" width="52" height="44" rx="14" fill="#16213E" stroke="#FF9FD6" stroke-opacity="0.58"/>
      <rect x="-18" y="-26" width="36" height="16" rx="6" fill="#A78BFA" stroke="#FF9FD6" stroke-opacity="0.44"/>
      <rect x="-4" y="-42" width="8" height="16" fill="#FF9FD6" filter="url(#tinyGlow)"/>
      <rect x="-2" y="-54" width="4" height="10" fill="#FFD166" filter="url(#tinyGlow)"/>
      <rect x="-14" y="2" width="5" height="5" fill="#E8ECF8"/>
      <rect x="9" y="2" width="5" height="5" fill="#E8ECF8"/>
      <rect x="-8" y="18" width="16" height="4" fill="#72F2C7"/>
      <path d="M-32 8L-48 -2L-38 26Z" fill="#A78BFA" opacity="0.62" stroke="#FF9FD6" stroke-opacity="0.44"/>
      <path d="M32 8L48 -2L38 26Z" fill="#A78BFA" opacity="0.62" stroke="#FF9FD6" stroke-opacity="0.44"/>
      <rect x="-18" y="34" width="10" height="8" fill="#243056"/>
      <rect x="8" y="34" width="10" height="8" fill="#243056"/>
    </g>
    <text x="195" y="306" text-anchor="middle" font-family="Pretendard, system-ui, -apple-system, Segoe UI, sans-serif" font-size="18" font-weight="600" fill="#E8ECF8" shape-rendering="geometricPrecision">벨라가 기다리고 있어요</text>
    <text x="195" y="330" text-anchor="middle" font-family="Pretendard, system-ui, -apple-system, Segoe UI, sans-serif" font-size="13" font-weight="500" fill="#8D98B8" shape-rendering="geometricPrecision">떠오른 장면을 하나만 던져주세요.</text>
  </g>
  <rect x="20" y="370" width="350" height="202" rx="26" fill="#0D1530" fill-opacity="0.78" stroke="#FF9FD6" stroke-opacity="0.26"/>
  <text x="42" y="408" text-anchor="start" font-family="Pretendard, system-ui, -apple-system, Segoe UI, sans-serif" font-size="15" font-weight="600" fill="#E8ECF8" shape-rendering="geometricPrecision">생각을 던져보세요</text>
  <rect x="42" y="430" width="306" height="84" rx="18" fill="#070A18" fill-opacity="0.36" stroke="#8D98B8" stroke-opacity="0.18"/>
  <text x="62" y="464" text-anchor="start" font-family="Pretendard, system-ui, -apple-system, Segoe UI, sans-serif" font-size="13" font-weight="500" fill="#8D98B8" shape-rendering="geometricPrecision">예: 밤빛 조각마을의 첫 장면</text>
  <text x="62" y="492" text-anchor="start" font-family="Pretendard, system-ui, -apple-system, Segoe UI, sans-serif" font-size="13" font-weight="500" fill="#8D98B8" shape-rendering="geometricPrecision">예: 세컨비가 기록을 옮기는 모습</text>
  <rect x="42" y="526" width="130" height="30" rx="12" fill="#72F2C7" fill-opacity="0.12" stroke="#72F2C7" stroke-opacity="0.3"/><text x="107" y="546" text-anchor="middle" font-family="Pretendard, system-ui, -apple-system, Segoe UI, sans-serif" font-size="11" font-weight="600" fill="#E8ECF8" shape-rendering="geometricPrecision">그래프에서 온 조각</text>
  <rect x="20" y="598" width="350" height="64" rx="22" fill="#FF9FD6" fill-opacity="0.17" stroke="#FF9FD6" stroke-opacity="0.42"/>
  <path d="M108 621L112 629L121 632L112 635L108 643L104 635L95 632L104 629Z" fill="#FFD166"/>
  <text x="195" y="638" text-anchor="middle" font-family="Pretendard, system-ui, -apple-system, Segoe UI, sans-serif" font-size="15" font-weight="700" fill="#E8ECF8" shape-rendering="geometricPrecision">장면으로 펼치기</text>
  <rect x="20" y="692" width="350" height="88" rx="22" fill="#0D1530" fill-opacity="0.78" stroke="#A78BFA" stroke-opacity="0.2"/>
  <text x="40" y="724" text-anchor="start" font-family="Pretendard, system-ui, -apple-system, Segoe UI, sans-serif" font-size="14" font-weight="600" fill="#E8ECF8" shape-rendering="geometricPrecision">공상은 어디로 저장되나요?</text>
  <text x="40" y="750" text-anchor="start" font-family="Pretendard, system-ui, -apple-system, Segoe UI, sans-serif" font-size="12" font-weight="500" fill="#8D98B8" shape-rendering="geometricPrecision">결과는 공상 조각으로 저장되고 그래프에 연결돼요.</text>
  <text x="195" y="818" text-anchor="middle" font-family="Pretendard, system-ui, -apple-system, Segoe UI, sans-serif" font-size="10" font-weight="500" fill="#8D98B8" shape-rendering="geometricPrecision">Imagine Home / 390×844</text>
</svg>