<svg xmlns="http://www.w3.org/2000/svg" width="390" height="844" viewBox="0 0 390 844" fill="none">
<defs>
  <filter id="softGlow" x="-60%" y="-60%" width="220%" height="220%">
    <feGaussianBlur stdDeviation="5" result="blur"/>
    <feColorMatrix in="blur" type="matrix" values="0 0 0 0 0.45 0 0 0 0 0.95 0 0 0 0 0.80 0 0 0 0.7 0" result="glow"/>
    <feMerge><feMergeNode in="glow"/><feMergeNode in="SourceGraphic"/></feMerge>
  </filter>
  <filter id="violetGlow" x="-60%" y="-60%" width="220%" height="220%">
    <feGaussianBlur stdDeviation="6" result="blur"/>
    <feColorMatrix in="blur" type="matrix" values="0 0 0 0 0.65 0 0 0 0 0.55 0 0 0 0 1 0 0 0 0.65 0" result="glow"/>
    <feMerge><feMergeNode in="glow"/><feMergeNode in="SourceGraphic"/></feMerge>
  </filter>
  <filter id="lampGlow" x="-60%" y="-60%" width="220%" height="220%">
    <feGaussianBlur stdDeviation="4" result="blur"/>
    <feColorMatrix in="blur" type="matrix" values="0 0 0 0 1 0 0 0 0 0.82 0 0 0 0 0.35 0 0 0 0.65 0" result="glow"/>
    <feMerge><feMergeNode in="glow"/><feMergeNode in="SourceGraphic"/></feMerge>
  </filter>
  <pattern id="noiseGrid" width="12" height="12" patternUnits="userSpaceOnUse">
    <path d="M 12 0 L 0 0 0 12" fill="none" stroke="rgba(141,152,184,0.08)" stroke-width="1"/>
  </pattern>
  <style>
    .t { font-family: 'Noto Sans CJK KR','Pretendard','SF Pro Display',system-ui,sans-serif; }
    .mono { font-family: 'NanumGothicCoding','SF Mono',monospace; }
    .pixel { shape-rendering: crispEdges; }
  </style>
</defs>


<rect width="390" height="844" fill="#070A18"/>
<rect width="390" height="844" fill="url(#noiseGrid)" opacity="0.48"/>
<circle cx="195" cy="160" r="150" fill="#A78BFA" opacity="0.14" filter="url(#violetGlow)"/>
<circle cx="72" cy="594" r="126" fill="#72F2C7" opacity="0.06"/>


<rect x="16" y="20" width="358" height="70" rx="22" fill="rgba(13,21,48,0.88)" stroke="rgba(167,139,250,0.30)"/>
<circle cx="52" cy="55" r="20" fill="#16213E" stroke="#A78BFA"/>
<rect class="pixel" x="44" y="50" width="5" height="5" fill="#E8ECF8"/><rect class="pixel" x="56" y="50" width="5" height="5" fill="#E8ECF8"/>
<text x="84" y="49" class="t" fill="#E8ECF8" font-size="16" font-weight="800">세컨비</text>
<text x="84" y="69" class="t" fill="#8D98B8" font-size="12">내 조각을 참고해서 답해요</text>
<rect x="333" y="46" width="16" height="16" rx="4" fill="rgba(114,242,199,0.18)"/>
<circle cx="341" cy="54" r="3" fill="#72F2C7"/>

<g transform="translate(20 116)">
  <rect x="0" y="0" width="350" height="238" rx="28" fill="rgba(13,21,48,0.70)" stroke="rgba(167,139,250,0.24)"/>
  <circle cx="175" cy="78" r="32" fill="rgba(167,139,250,0.12)" stroke="rgba(167,139,250,0.45)" filter="url(#violetGlow)"/>
  <rect class="pixel" x="161" y="72" width="7" height="7" fill="#E8ECF8"/>
  <rect class="pixel" x="183" y="72" width="7" height="7" fill="#E8ECF8"/>
  <rect class="pixel" x="172" y="91" width="8" height="4" fill="#72F2C7"/>
  <text x="175" y="139" class="t" fill="#E8ECF8" font-size="18" font-weight="800" text-anchor="middle">어떤 조각을 이어볼까요?</text>
  <text x="175" y="167" class="t" fill="#8D98B8" font-size="13" text-anchor="middle">최근 기록과 나의 모습을 참고해요.</text>
  <rect x="73" y="190" width="204" height="34" rx="15" fill="rgba(114,242,199,0.12)" stroke="rgba(114,242,199,0.35)"/>
  <text x="175" y="212" class="t" fill="#72F2C7" font-size="12" font-weight="800" text-anchor="middle">오늘의 조각으로 시작</text>
</g>
<g transform="translate(20 382)">
  <text x="0" y="0" class="t" fill="#E8ECF8" font-size="14" font-weight="800">빠른 질문</text>
  <rect x="0" y="18" width="164" height="42" rx="16" fill="rgba(22,33,62,0.92)" stroke="rgba(114,242,199,0.25)"/>
  <text x="18" y="44" class="t" fill="#E8ECF8" font-size="12">다음 한 걸음</text>
  <rect x="178" y="18" width="172" height="42" rx="16" fill="rgba(22,33,62,0.92)" stroke="rgba(167,139,250,0.25)"/>
  <text x="196" y="44" class="t" fill="#E8ECF8" font-size="12">요즘 자주 보이는 것</text>
  <rect x="0" y="74" width="164" height="42" rx="16" fill="rgba(22,33,62,0.92)" stroke="rgba(255,209,102,0.24)"/>
  <text x="18" y="100" class="t" fill="#E8ECF8" font-size="12">공상으로 펼치기</text>
  <rect x="178" y="74" width="172" height="42" rx="16" fill="rgba(22,33,62,0.92)" stroke="rgba(76,201,240,0.25)"/>
  <text x="196" y="100" class="t" fill="#E8ECF8" font-size="12">기록에서 찾아줘</text>
</g>

<rect x="16" y="758" width="358" height="68" rx="24" fill="rgba(13,21,48,0.96)" stroke="rgba(141,152,184,0.25)"/>
<rect x="30" y="772" width="246" height="40" rx="16" fill="rgba(7,10,24,0.55)"/>
<text x="48" y="797" class="t" fill="#8D98B8" font-size="13">세컨비에게 물어보기...</text>
<rect x="288" y="772" width="72" height="40" rx="16" fill="rgba(114,242,199,0.14)" stroke="rgba(114,242,199,0.38)"/>
<text x="309" y="797" class="t" fill="#72F2C7" font-size="13" font-weight="800">전송</text>


</svg>