<svg xmlns="http://www.w3.org/2000/svg" viewBox="0 0 64 64" shape-rendering="crispEdges" role="img" aria-label="Lulu carrying shard">
  <title>Lulu carrying shard</title>
  <desc>루루 수집 드론 pixel sprite state: carrying_shard.</desc>
    <rect x="18" y="55" width="28" height="4" fill="#0D1530" opacity="0.42"/>
  <rect x="18" y="14" width="8" height="4" fill="#0D1530"/>
  <rect x="38" y="14" width="8" height="4" fill="#0D1530"/>
  <rect x="20" y="12" width="4" height="2" fill="#72F2C7"/>
  <rect x="40" y="12" width="4" height="2" fill="#72F2C7"/>
  <rect x="21" y="17" width="22" height="4" fill="#070A18"/>
  <rect x="17" y="21" width="30" height="4" fill="#070A18"/>
  <rect x="15" y="25" width="34" height="20" fill="#070A18"/>
  <rect x="17" y="45" width="30" height="4" fill="#070A18"/>
  <rect x="21" y="49" width="22" height="5" fill="#070A18"/>
  <rect x="22" y="17" width="20" height="4" fill="#2EC4B6"/>
  <rect x="20" y="21" width="24" height="4" fill="#72F2C7"/>
  <rect x="18" y="25" width="28" height="19" fill="#72F2C7"/>
  <rect x="20" y="44" width="24" height="4" fill="#1A8B7A"/>
  <rect x="24" y="48" width="16" height="4" fill="#1A8B7A"/>
  <rect x="22" y="27" width="20" height="11" fill="#16213E"/>
  <rect x="24" y="29" width="16" height="7" fill="#0D1530"/>
  <rect x="25" y="31" width="3" height="4" fill="#E8ECF8"/>
  <rect x="36" y="31" width="3" height="4" fill="#E8ECF8"/>
  <rect x="26" y="32" width="1" height="1" fill="#72F2C7"/>
  <rect x="37" y="32" width="1" height="1" fill="#72F2C7"/>
  <rect x="30" y="40" width="4" height="4" fill="#0D1530"/>
  <rect x="31" y="41" width="2" height="2" fill="#72F2C7"/>
  <rect x="11" y="30" width="5" height="10" fill="#070A18"/>
  <rect x="48" y="30" width="5" height="10" fill="#070A18"/>
  <rect x="12" y="31" width="3" height="7" fill="#1A8B7A"/>
  <rect x="49" y="31" width="3" height="7" fill="#1A8B7A"/>
  <rect x="24" y="52" width="5" height="5" fill="#070A18"/>
  <rect x="35" y="52" width="5" height="5" fill="#070A18"/>
  <rect x="25" y="52" width="3" height="2" fill="#1A8B7A"/>
  <rect x="36" y="52" width="3" height="2" fill="#1A8B7A"/>
  <rect x="6" y="24" width="10" height="4" fill="#0D1530"/>
  <rect x="48" y="24" width="10" height="4" fill="#0D1530"/>
  <rect x="8" y="22" width="6" height="2" fill="#72F2C7"/>
  <rect x="50" y="22" width="6" height="2" fill="#72F2C7"/>
  <polygon points="29,13 35,13 38,18 32,23 26,18" fill="#FFD166"/>
  <rect x="31" y="15" width="2" height="2" fill="#E8ECF8"/>
</svg>
