<svg xmlns="http://www.w3.org/2000/svg" width="116" height="116" viewBox="0 0 116 116" fill="none" shape-rendering="crispEdges" >

  <defs>
    <filter id="softGlow" x="-50%" y="-50%" width="200%" height="200%">
      <feGaussianBlur stdDeviation="5" result="blur"/>
      <feMerge><feMergeNode in="blur"/><feMergeNode in="SourceGraphic"/></feMerge>
    </filter>
    <filter id="tinyGlow" x="-70%" y="-70%" width="240%" height="240%">
      <feGaussianBlur stdDeviation="2" result="blur"/>
      <feMerge><feMergeNode in="blur"/><feMergeNode in="SourceGraphic"/></feMerge>
    </filter>
    <radialGradient id="violetCore" cx="50%" cy="50%" r="50%">
      <stop offset="0%" stop-color="#A78BFA" stop-opacity="0.95"/>
      <stop offset="60%" stop-color="#A78BFA" stop-opacity="0.18"/>
      <stop offset="100%" stop-color="#A78BFA" stop-opacity="0"/>
    </radialGradient>
    <radialGradient id="mintGlow" cx="50%" cy="50%" r="50%">
      <stop offset="0%" stop-color="#72F2C7" stop-opacity="0.9"/>
      <stop offset="100%" stop-color="#72F2C7" stop-opacity="0"/>
    </radialGradient>
    <linearGradient id="nodeSurface" x1="0" y1="0" x2="1" y2="1">
      <stop offset="0" stop-color="#16213E"/>
      <stop offset="1" stop-color="#0D1530"/>
    </linearGradient>
  </defs>

  <rect x="8" y="8" width="100" height="100" rx="18" fill="#0D1530" fill-opacity="0.72" stroke="#8D98B8" stroke-opacity="0.25"/>
  <path d="M58 58L32 34M58 58L84 40M58 58L36 82M58 58L78 84" stroke="#243056" stroke-width="3"/>
  <rect x="52" y="52" width="12" height="12" fill="#A78BFA"/>
  <rect x="28" y="30" width="8" height="8" fill="#4CC9F0"/>
  <rect x="80" y="36" width="8" height="8" fill="#72F2C7"/>
  <rect x="32" y="78" width="8" height="8" fill="#FFD166"/>
  <rect x="74" y="80" width="8" height="8" fill="#FF9FD6"/>
</svg>