<svg xmlns="http://www.w3.org/2000/svg" width="390" height="844" viewBox="0 0 390 844" fill="none" shape-rendering="crispEdges">
  <defs>
    <filter id="softGlow" x="-60%" y="-60%" width="220%" height="220%"><feGaussianBlur stdDeviation="6" result="b"/><feMerge><feMergeNode in="b"/><feMergeNode in="SourceGraphic"/></feMerge></filter>
    <filter id="tinyGlow" x="-80%" y="-80%" width="260%" height="260%"><feGaussianBlur stdDeviation="2" result="b"/><feMerge><feMergeNode in="b"/><feMergeNode in="SourceGraphic"/></feMerge></filter>
    <radialGradient id="screenBg" cx="50%" cy="28%" r="86%"><stop offset="0" stop-color="#72F2C7" stop-opacity="0.10"/><stop offset="34%" stop-color="#A78BFA" stop-opacity="0.10"/><stop offset="74%" stop-color="#0D1530" stop-opacity="0.92"/><stop offset="100%" stop-color="#070A18"/></radialGradient>
    <radialGradient id="mintGlow" cx="50%" cy="50%" r="58%"><stop offset="0" stop-color="#72F2C7" stop-opacity="0.68"/><stop offset="100%" stop-color="#72F2C7" stop-opacity="0"/></radialGradient>
    <radialGradient id="violetGlow" cx="50%" cy="50%" r="58%"><stop offset="0" stop-color="#A78BFA" stop-opacity="0.64"/><stop offset="100%" stop-color="#A78BFA" stop-opacity="0"/></radialGradient>
    <radialGradient id="lampGlow" cx="50%" cy="50%" r="58%"><stop offset="0" stop-color="#FFD166" stop-opacity="0.72"/><stop offset="100%" stop-color="#FFD166" stop-opacity="0"/></radialGradient>
    <linearGradient id="panel" x1="0" y1="0" x2="1" y2="1"><stop offset="0" stop-color="#0D1530" stop-opacity="0.96"/><stop offset="1" stop-color="#16213E" stop-opacity="0.88"/></linearGradient>
    <linearGradient id="shardPanel" x1="0" y1="0" x2="1" y2="1"><stop offset="0" stop-color="#16213E" stop-opacity="0.94"/><stop offset="0.68" stop-color="#0D1530" stop-opacity="0.96"/><stop offset="1" stop-color="#72F2C7" stop-opacity="0.15"/></linearGradient>
    
  </defs><rect width="390" height="844" fill="url(#screenBg)"/><rect x="20" y="122" width="2" height="2" fill="#8D98B8" opacity="0.50"/><rect x="342" y="114" width="2" height="2" fill="#72F2C7" opacity="0.50"/><rect x="66" y="225" width="2" height="2" fill="#A78BFA" opacity="0.50"/><rect x="312" y="322" width="2" height="2" fill="#FFD166" opacity="0.50"/><rect x="52" y="516" width="2" height="2" fill="#72F2C7" opacity="0.50"/><rect x="352" y="635" width="2" height="2" fill="#8D98B8" opacity="0.50"/><rect x="96" y="760" width="2" height="2" fill="#FFD166" opacity="0.50"/><rect x="210" y="206" width="2" height="2" fill="#8D98B8" opacity="0.50"/><rect x="172" y="660" width="2" height="2" fill="#4CC9F0" opacity="0.50"/><rect x="32" y="407" width="2" height="2" fill="#FFD166" opacity="0.50"/><rect x="342" y="466" width="2" height="2" fill="#72F2C7" opacity="0.50"/><rect x="280" y="735" width="2" height="2" fill="#A78BFA" opacity="0.50"/>
  <rect x="16" y="50" width="44" height="44" rx="14" fill="#0D1530" stroke="#8D98B8" stroke-opacity="0.28"/>
  <path d="M42 62L32 72L42 82" stroke="#E8ECF8" stroke-width="3"/>
  <text x="78" y="72" text-anchor="start" font-family="Pretendard, system-ui, -apple-system, Segoe UI, sans-serif" font-size="22" font-weight="600" fill="#E8ECF8" shape-rendering="geometricPrecision">지식 창고</text>
  <text x="78" y="96" text-anchor="start" font-family="Pretendard, system-ui, -apple-system, Segoe UI, sans-serif" font-size="11" font-weight="500" fill="#8D98B8" shape-rendering="geometricPrecision">저장된 조각을 다시 찾아요</text>
  <rect x="336" y="54" width="38" height="38" rx="13" fill="#0D1530" stroke="#72F2C7" stroke-opacity="0.32"/>
  <path d="M356 62L360 72L370 76L360 80L356 90L352 80L342 76L352 72Z" fill="#72F2C7" opacity="0.88"/>
  <g transform="translate(20 126)">
    <rect x="0" y="0" width="350" height="58" rx="22" fill="#0D1530" fill-opacity="0.92" stroke="#8D98B8" stroke-opacity="0.20"/>
    <circle cx="31" cy="29" r="10" stroke="#72F2C7" stroke-width="3"/><path d="M39 37L48 46" stroke="#72F2C7" stroke-width="3"/>
    <text x="64" y="36" text-anchor="start" font-family="Pretendard, system-ui, -apple-system, Segoe UI, sans-serif" font-size="13" font-weight="500" fill="#8D98B8" shape-rendering="geometricPrecision">조각, 제목, 태그 검색</text>
  </g>
  <g transform="translate(20 204)"><text x="0" y="0" text-anchor="start" font-family="Pretendard, system-ui, -apple-system, Segoe UI, sans-serif" font-size="15" font-weight="600" fill="#E8ECF8" shape-rendering="geometricPrecision">최근 위키 페이지</text></g>
  <g transform="translate(20 220)"><rect x="0" y="0" width="350" height="124" rx="24" fill="url(#panel)" stroke="#72F2C7" stroke-opacity="0.26"/><g transform="translate(44 56) scale(0.8)" opacity="1">
      <path d="M0 -13L12 -2L6 13L-10 9L-8 -6Z" fill="#16213E" stroke="#72F2C7" stroke-width="2"/>
      <rect x="-2" y="-2" width="4" height="4" fill="#72F2C7" filter="url(#tinyGlow)"/>
    </g><text x="86" y="42" text-anchor="start" font-family="Pretendard, system-ui, -apple-system, Segoe UI, sans-serif" font-size="16" font-weight="600" fill="#E8ECF8" shape-rendering="geometricPrecision">픽셀 그래프 마을</text><text x="86" y="66" text-anchor="start" font-family="Pretendard, system-ui, -apple-system, Segoe UI, sans-serif" font-size="12" font-weight="500" fill="#8D98B8" shape-rendering="geometricPrecision">UI 시안과 세계관 조각</text><rect x="86" y="84" width="76" height="24" rx="12" fill="#72F2C7" fill-opacity="0.14"/><text x="124" y="100" text-anchor="middle" font-family="Pretendard, system-ui, -apple-system, Segoe UI, sans-serif" font-size="9" font-weight="600" fill="#E8ECF8" shape-rendering="geometricPrecision">14 조각</text></g>
  <g transform="translate(20 364)"><rect x="0" y="0" width="350" height="124" rx="24" fill="#0D1530" fill-opacity="0.86" stroke="#A78BFA" stroke-opacity="0.24"/><g transform="translate(44 56) scale(0.8)" opacity="1">
      <path d="M0 -13L12 -2L6 13L-10 9L-8 -6Z" fill="#16213E" stroke="#A78BFA" stroke-width="2"/>
      <rect x="-2" y="-2" width="4" height="4" fill="#A78BFA" filter="url(#tinyGlow)"/>
    </g><text x="86" y="42" text-anchor="start" font-family="Pretendard, system-ui, -apple-system, Segoe UI, sans-serif" font-size="16" font-weight="600" fill="#E8ECF8" shape-rendering="geometricPrecision">세컨비 대화 UI</text><text x="86" y="66" text-anchor="start" font-family="Pretendard, system-ui, -apple-system, Segoe UI, sans-serif" font-size="12" font-weight="500" fill="#8D98B8" shape-rendering="geometricPrecision">참고한 조각이 보이는 답변 구조</text><rect x="86" y="84" width="76" height="24" rx="12" fill="#A78BFA" fill-opacity="0.14"/><text x="124" y="100" text-anchor="middle" font-family="Pretendard, system-ui, -apple-system, Segoe UI, sans-serif" font-size="9" font-weight="600" fill="#E8ECF8" shape-rendering="geometricPrecision">9 조각</text></g>
  <g transform="translate(20 518)"><rect x="0" y="0" width="350" height="170" rx="28" fill="url(#panel)" stroke="#4CC9F0" stroke-opacity="0.22"/><text x="24" y="36" text-anchor="start" font-family="Pretendard, system-ui, -apple-system, Segoe UI, sans-serif" font-size="15" font-weight="600" fill="#4CC9F0" shape-rendering="geometricPrecision">지식 창고 지도</text><path d="M70 94C130 48 196 128 280 72" stroke="#72F2C7" stroke-opacity="0.52" stroke-width="3" fill="none"/><g transform="translate(70 94)">
      <circle r="18" fill="#16213E" stroke="#FFD166" stroke-opacity="0.62" stroke-width="2"/>
      <rect x="-4" y="-4" width="8" height="8" fill="#FFD166" filter="url(#tinyGlow)"/>
    </g><g transform="translate(156 66)">
      <circle r="18" fill="#16213E" stroke="#72F2C7" stroke-opacity="0.62" stroke-width="2"/>
      <rect x="-4" y="-4" width="8" height="8" fill="#72F2C7" filter="url(#tinyGlow)"/>
    </g><g transform="translate(226 112)">
      <circle r="18" fill="#16213E" stroke="#A78BFA" stroke-opacity="0.62" stroke-width="2"/>
      <rect x="-4" y="-4" width="8" height="8" fill="#A78BFA" filter="url(#tinyGlow)"/>
    </g><g transform="translate(280 72)">
      <circle r="18" fill="#16213E" stroke="#4CC9F0" stroke-opacity="0.62" stroke-width="2"/>
      <rect x="-4" y="-4" width="8" height="8" fill="#4CC9F0" filter="url(#tinyGlow)"/>
    </g><text x="175" y="148" text-anchor="middle" font-family="Pretendard, system-ui, -apple-system, Segoe UI, sans-serif" font-size="11" font-weight="500" fill="#8D98B8" shape-rendering="geometricPrecision">위키와 기록이 연결된 모습을 작게 보여줘요.</text></g>
  <rect x="294" y="744" width="68" height="68" rx="24" fill="#16213E" stroke="#A78BFA" stroke-opacity="0.48"/><g transform="translate(328 778) scale(0.42)">
      <circle cx="0" cy="2" r="42" fill="url(#violetGlow)" opacity="0.52"/>
      <rect x="-25" y="-19" width="50" height="48" rx="14" fill="#16213E" stroke="#A78BFA" stroke-opacity="0.62"/>
      <rect x="-12" y="-30" width="24" height="12" rx="5" fill="#A78BFA" fill-opacity="0.18" stroke="#A78BFA" stroke-opacity="0.42"/>
      <rect x="-12" y="-1" width="6" height="6" fill="#E8ECF8"/><rect x="6" y="-1" width="6" height="6" fill="#E8ECF8"/>
      <rect x="-7" y="17" width="14" height="4" fill="#72F2C7"/>
      <rect x="-3" y="-13" width="6" height="6" fill="#72F2C7" filter="url(#tinyGlow)"/>
    </g>
</svg>