<svg xmlns="http://www.w3.org/2000/svg" width="390" height="844" viewBox="0 0 390 844" fill="none" shape-rendering="crispEdges">
  <title>Mobile first shard success</title>
  <defs>
    <linearGradient id="bg" x1="0" y1="0" x2="390" y2="844" gradientUnits="userSpaceOnUse">
      <stop stop-color="#070A18"/>
      <stop offset="0.62" stop-color="#0D1530"/>
      <stop offset="1" stop-color="#16213E"/>
    </linearGradient>
    <radialGradient id="violetGlow" cx="50%" cy="38%" r="55%">
      <stop stop-color="#A78BFA" stop-opacity="0.4"/>
      <stop offset="1" stop-color="#A78BFA" stop-opacity="0"/>
    </radialGradient>
    <radialGradient id="mintGlow" cx="50%" cy="50%" r="50%">
      <stop stop-color="#72F2C7" stop-opacity="0.45"/>
      <stop offset="1" stop-color="#72F2C7" stop-opacity="0"/>
    </radialGradient>
    <filter id="softGlow" x="-50%" y="-50%" width="200%" height="200%">
      <feGaussianBlur stdDeviation="6" result="blur"/>
      <feMerge><feMergeNode in="blur"/><feMergeNode in="SourceGraphic"/></feMerge>
    </filter>
  </defs>
  
    <rect width="390" height="844" fill="#070A18"/>
    <circle cx="196" cy="214" r="180" fill="#A78BFA" opacity=".12"/>
    <circle cx="64" cy="620" r="120" fill="#72F2C7" opacity=".06"/>
    <rect x="16" y="18" width="358" height="806" rx="34" fill="none" stroke="#243056" stroke-opacity=".55"/>
    
  <rect x="28" y="50" width="334" height="64" rx="20" fill="#0D1530" stroke="#243056"/>
  <text x="50" y="78" fill="#E8ECF8" font-family="Pretendard, system-ui" font-size="14" font-weight="700">첫 조각이 들어왔어요</text>
  <text x="50" y="100" fill="#8D98B8" font-family="Pretendard, system-ui" font-size="11">새 연결을 확인해볼 수 있어요.</text>
  <g transform="translate(0 150)">
    <circle cx="195" cy="220" r="110" fill="#FFD166" opacity=".08"/>
    <path d="M195 220 L115 160 M195 220 L275 160 M195 220 L115 300 M195 220 L275 300" stroke="#243056" stroke-width="4"/>
    <path d="M195 220 L115 300" stroke="#72F2C7" stroke-width="3" stroke-dasharray="5 7"/>
    <rect x="162" y="188" width="66" height="66" rx="20" fill="#16213E" stroke="#A78BFA"/>
    <circle cx="115" cy="300" r="18" fill="#FFD166"/>
    <path d="M96 318l19 19-7 30H82l-7-30 21-19z" fill="#FFD166" opacity=".8" transform="scale(.5) translate(120 270)"/>
  </g>
  <rect x="32" y="716" width="326" height="52" rx="26" fill="#72F2C7"/>
  <text x="126" y="749" fill="#070A18" font-family="Pretendard, system-ui" font-size="15" font-weight="800">그래프에서 보기</text>

    
</svg>
